M48
; DRILL file {KiCad 6.0.0-unknown-90f06c5~86~ubuntu18.04.1} date Tue 27 Aug 2019 17:16:54 NZST
; FORMAT={-:-/ absolute / metric / decimal}
; #@! TF.CreationDate,2019-08-27T17:16:54+12:00
; #@! TF.GenerationSoftware,Kicad,Pcbnew,6.0.0-unknown-90f06c5~86~ubuntu18.04.1
; #@! TF.FileFunction,Plated,1,2,PTH
FMAT,2
METRIC
T1C0.800
T2C1.000
T3C1.016
%
G90
G05
T1
X110.49Y-71.12
X110.49Y-76.2
X114.3Y-78.74
X119.38Y-78.74
X127.0Y-105.41
X130.81Y-77.47
X130.81Y-82.55
X132.08Y-105.41
X139.7Y-85.09
X139.7Y-90.17
X151.13Y-90.17
X151.13Y-97.79
X156.21Y-92.71
X156.21Y-100.33
X171.45Y-90.17
X171.45Y-97.79
X173.99Y-74.93
X173.99Y-82.55
X168.91Y-102.87
X168.91Y-110.49
X142.24Y-74.93
X142.24Y-82.55
X148.59Y-113.03
X156.21Y-113.03
X146.05Y-115.57
X153.67Y-115.57
X151.13Y-110.49
X158.75Y-110.49
X163.83Y-113.03
X171.45Y-113.03
X144.78Y-74.93
X144.78Y-82.55
X161.29Y-115.57
X168.91Y-115.57
T2
X156.21Y-104.14
X156.21Y-106.68
X158.75Y-104.14
X158.75Y-106.68
X134.62Y-74.93
X134.62Y-77.47
X134.62Y-80.01
X153.67Y-104.14
X153.67Y-106.68
X161.29Y-104.14
X161.29Y-106.68
X163.83Y-104.14
X163.83Y-106.68
X114.3Y-81.28
X175.26Y-114.3
X185.42Y-114.3
X187.96Y-114.3
X114.3Y-86.36
X116.84Y-81.28
X116.84Y-86.36
X124.46Y-81.28
X124.46Y-86.36
X177.8Y-114.3
X180.34Y-114.3
X182.88Y-114.3
X109.22Y-81.28
X109.22Y-83.82
X109.22Y-86.36
X109.22Y-88.9
X109.22Y-91.44
X109.22Y-93.98
X175.26Y-107.95
X177.8Y-107.95
X180.34Y-107.95
X182.88Y-107.95
X185.42Y-107.95
X187.96Y-107.95
X114.3Y-93.98
X114.3Y-99.06
X116.84Y-93.98
X116.84Y-99.06
X124.46Y-93.98
X124.46Y-99.06
X177.8Y-82.55
X180.34Y-82.55
X182.88Y-82.55
X185.42Y-82.55
X180.34Y-74.93
X182.88Y-74.93
X185.42Y-74.93
X187.96Y-74.93
X134.62Y-85.09
X134.62Y-87.63
X134.62Y-90.17
T3
X177.038Y-119.126
X179.578Y-119.126
X182.118Y-119.126
X184.658Y-119.126
X187.198Y-119.126
X189.738Y-119.126
X192.278Y-119.126
X194.818Y-119.126
X122.174Y-70.866
X124.714Y-70.866
X127.254Y-70.866
X129.794Y-70.866
X132.334Y-70.866
X134.874Y-70.866
X137.414Y-70.866
X139.954Y-70.866
X142.494Y-70.866
X145.034Y-70.866
X171.958Y-70.866
X174.498Y-70.866
X177.038Y-70.866
X179.578Y-70.866
X182.118Y-70.866
X184.658Y-70.866
X187.198Y-70.866
X189.738Y-70.866
X131.318Y-119.126
X133.858Y-119.126
X136.398Y-119.126
X138.938Y-119.126
X141.478Y-119.126
X144.018Y-119.126
X146.558Y-119.126
X149.098Y-119.126
X149.098Y-70.866
X151.638Y-70.866
X154.178Y-70.866
X156.718Y-70.866
X159.258Y-70.866
X161.798Y-70.866
X164.338Y-70.866
X166.878Y-70.866
X197.358Y-70.866
X197.358Y-73.406
X197.358Y-75.946
X197.358Y-78.486
X197.358Y-81.026
X197.358Y-83.566
X197.358Y-86.106
X197.358Y-88.646
X197.358Y-91.186
X197.358Y-93.726
X197.358Y-96.266
X197.358Y-98.806
X197.358Y-101.346
X197.358Y-103.886
X197.358Y-106.426
X197.358Y-108.966
X197.358Y-111.506
X197.358Y-114.046
X199.898Y-70.866
X199.898Y-73.406
X199.898Y-75.946
X199.898Y-78.486
X199.898Y-81.026
X154.178Y-119.126
X169.418Y-119.126
X199.898Y-114.046
X156.718Y-119.126
X199.898Y-111.506
X159.258Y-119.126
X199.898Y-108.966
X161.798Y-119.126
X199.898Y-106.426
X164.338Y-119.126
X166.878Y-119.126
X199.898Y-98.806
X171.958Y-119.126
X199.898Y-83.566
X199.898Y-86.106
X199.898Y-88.646
X199.898Y-91.186
X199.898Y-93.726
X199.898Y-96.266
X199.898Y-101.346
X199.898Y-103.886
T0
M30
