G04 #@! TF.GenerationSoftware,KiCad,Pcbnew,6.0.0-unknown-90f06c5~86~ubuntu18.04.1*
G04 #@! TF.CreationDate,2019-08-27T17:16:46+12:00*
G04 #@! TF.ProjectId,flip-controller-pcb,666c6970-2d63-46f6-9e74-726f6c6c6572,rev?*
G04 #@! TF.SameCoordinates,Original*
G04 #@! TF.FileFunction,Copper,L2,Bot*
G04 #@! TF.FilePolarity,Positive*
%FSLAX46Y46*%
G04 Gerber Fmt 4.6, Leading zero omitted, Abs format (unit mm)*
G04 Created by KiCad (PCBNEW 6.0.0-unknown-90f06c5~86~ubuntu18.04.1) date 2019-08-27 17:16:46*
%MOMM*%
%LPD*%
G04 APERTURE LIST*
%ADD10O,1.700000X1.700000*%
%ADD11R,1.700000X1.700000*%
%ADD12O,1.600000X1.600000*%
%ADD13C,1.600000*%
%ADD14C,2.000000*%
%ADD15R,2.000000X2.000000*%
%ADD16C,1.727200*%
%ADD17O,1.727200X1.727200*%
%ADD18O,1.727200X2.032000*%
%ADD19C,1.600000*%
G04 APERTURE END LIST*
D10*
X163830000Y-104140000D03*
X163830000Y-106680000D03*
X161290000Y-104140000D03*
X161290000Y-106680000D03*
X158750000Y-104140000D03*
X158750000Y-106680000D03*
X156210000Y-104140000D03*
X156210000Y-106680000D03*
X153670000Y-104140000D03*
D11*
X153670000Y-106680000D03*
D10*
X177800000Y-82550000D03*
X180340000Y-82550000D03*
X182880000Y-82550000D03*
D11*
X185420000Y-82550000D03*
D10*
X187960000Y-107950000D03*
X185420000Y-107950000D03*
X182880000Y-107950000D03*
X180340000Y-107950000D03*
X177800000Y-107950000D03*
D11*
X175260000Y-107950000D03*
D10*
X187960000Y-114300000D03*
X185420000Y-114300000D03*
X182880000Y-114300000D03*
X180340000Y-114300000D03*
X177800000Y-114300000D03*
D11*
X175260000Y-114300000D03*
D10*
X180340000Y-74930000D03*
X182880000Y-74930000D03*
X185420000Y-74930000D03*
D11*
X187960000Y-74930000D03*
D10*
X109220000Y-81280000D03*
X109220000Y-83820000D03*
X109220000Y-86360000D03*
X109220000Y-88900000D03*
X109220000Y-91440000D03*
D11*
X109220000Y-93980000D03*
D10*
X134620000Y-74930000D03*
X134620000Y-77470000D03*
D11*
X134620000Y-80010000D03*
D10*
X134620000Y-85090000D03*
X134620000Y-87630000D03*
D11*
X134620000Y-90170000D03*
D12*
X142240000Y-74930000D03*
D13*
X142240000Y-82550000D03*
D12*
X144780000Y-74930000D03*
D13*
X144780000Y-82550000D03*
D14*
X124460000Y-86360000D03*
X124460000Y-81280000D03*
X116840000Y-86360000D03*
D15*
X114300000Y-86360000D03*
D14*
X116840000Y-81280000D03*
X114300000Y-81280000D03*
X124460000Y-99060000D03*
X124460000Y-93980000D03*
X116840000Y-99060000D03*
D15*
X114300000Y-99060000D03*
D14*
X116840000Y-93980000D03*
X114300000Y-93980000D03*
D12*
X168910000Y-102870000D03*
D13*
X168910000Y-110490000D03*
D12*
X171450000Y-113030000D03*
D13*
X163830000Y-113030000D03*
D12*
X168910000Y-115570000D03*
D13*
X161290000Y-115570000D03*
D12*
X151130000Y-110490000D03*
D13*
X158750000Y-110490000D03*
D12*
X148590000Y-113030000D03*
D13*
X156210000Y-113030000D03*
D12*
X146050000Y-115570000D03*
D13*
X153670000Y-115570000D03*
D16*
X197358000Y-114046000D03*
D17*
X199898000Y-114046000D03*
X197358000Y-111506000D03*
X199898000Y-111506000D03*
X197358000Y-108966000D03*
X199898000Y-108966000D03*
X197358000Y-106426000D03*
X199898000Y-106426000D03*
X197358000Y-103886000D03*
X199898000Y-103886000D03*
X197358000Y-101346000D03*
X199898000Y-101346000D03*
X197358000Y-98806000D03*
X199898000Y-98806000D03*
X197358000Y-96266000D03*
X199898000Y-96266000D03*
X197358000Y-93726000D03*
X199898000Y-93726000D03*
X197358000Y-91186000D03*
X199898000Y-91186000D03*
X197358000Y-88646000D03*
X199898000Y-88646000D03*
X197358000Y-86106000D03*
X199898000Y-86106000D03*
X197358000Y-83566000D03*
X199898000Y-83566000D03*
X197358000Y-81026000D03*
X199898000Y-81026000D03*
X197358000Y-78486000D03*
X199898000Y-78486000D03*
X197358000Y-75946000D03*
X199898000Y-75946000D03*
X197358000Y-73406000D03*
X199898000Y-73406000D03*
X197358000Y-70866000D03*
X199898000Y-70866000D03*
D18*
X131318000Y-119126000D03*
X133858000Y-119126000D03*
X136398000Y-119126000D03*
X138938000Y-119126000D03*
X141478000Y-119126000D03*
X144018000Y-119126000D03*
X146558000Y-119126000D03*
X149098000Y-119126000D03*
X154178000Y-119126000D03*
X156718000Y-119126000D03*
X159258000Y-119126000D03*
X161798000Y-119126000D03*
X164338000Y-119126000D03*
X166878000Y-119126000D03*
X169418000Y-119126000D03*
X171958000Y-119126000D03*
X177038000Y-119126000D03*
X179578000Y-119126000D03*
X182118000Y-119126000D03*
X184658000Y-119126000D03*
X187198000Y-119126000D03*
X189738000Y-119126000D03*
X192278000Y-119126000D03*
X194818000Y-119126000D03*
X122174000Y-70866000D03*
X124714000Y-70866000D03*
X127254000Y-70866000D03*
X129794000Y-70866000D03*
X132334000Y-70866000D03*
X134874000Y-70866000D03*
X137414000Y-70866000D03*
X139954000Y-70866000D03*
X142494000Y-70866000D03*
X145034000Y-70866000D03*
X149098000Y-70866000D03*
X151638000Y-70866000D03*
X154178000Y-70866000D03*
X156718000Y-70866000D03*
X159258000Y-70866000D03*
X161798000Y-70866000D03*
X164338000Y-70866000D03*
X166878000Y-70866000D03*
X171958000Y-70866000D03*
X174498000Y-70866000D03*
X177038000Y-70866000D03*
X179578000Y-70866000D03*
X182118000Y-70866000D03*
X184658000Y-70866000D03*
X187198000Y-70866000D03*
X189738000Y-70866000D03*
D14*
X151130000Y-97790000D03*
X171450000Y-90170000D03*
X171450000Y-97790000D03*
X156210000Y-92710000D03*
X156210000Y-100330000D03*
X114300000Y-78740000D03*
X127000000Y-105410000D03*
X119380000Y-78740000D03*
X132080000Y-105410000D03*
X173990000Y-82550000D03*
X110490000Y-71120000D03*
X110490000Y-76200000D03*
X139700000Y-85090000D03*
X130810000Y-82550000D03*
X130810000Y-77470000D03*
X139700000Y-90170000D03*
X151130000Y-90170000D03*
X173990000Y-74930000D03*
D19*
X151130000Y-110490000D02*
X151130000Y-97790000D01*
X148590000Y-113030000D02*
X151130000Y-110490000D01*
X146050000Y-115570000D02*
X148590000Y-113030000D01*
X146558000Y-119126000D02*
X146050000Y-115570000D01*
X195326000Y-114046000D02*
X194310000Y-113030000D01*
X197358000Y-114046000D02*
X195326000Y-114046000D01*
X194310000Y-113030000D02*
X194310000Y-97790000D01*
X194310000Y-97790000D02*
X171450000Y-97790000D01*
X171450000Y-102870000D02*
X171450000Y-97790000D01*
X171450000Y-90170000D02*
X177800000Y-90170000D01*
X153670000Y-97790000D02*
X153670000Y-104140000D01*
X166370000Y-97790000D02*
X153670000Y-97790000D01*
X166370000Y-110490000D02*
X166370000Y-97790000D01*
X156210000Y-92710000D02*
X185420000Y-92710000D01*
X156210000Y-104140000D02*
X156210000Y-100330000D01*
X158750000Y-104140000D02*
X156210000Y-104140000D01*
X161290000Y-104140000D02*
X158750000Y-104140000D01*
X163830000Y-104140000D02*
X161290000Y-104140000D01*
X168910000Y-115570000D02*
X171450000Y-113030000D01*
X171450000Y-102870000D02*
X168910000Y-102870000D01*
X171450000Y-113030000D02*
X171450000Y-102870000D01*
X166370000Y-116840000D02*
X166370000Y-110490000D01*
X168910000Y-110490000D02*
X166370000Y-110490000D01*
X163830000Y-113030000D02*
X163830000Y-106680000D01*
X163830000Y-116840000D02*
X163830000Y-113030000D01*
X161290000Y-115570000D02*
X161290000Y-106680000D01*
X161290000Y-116840000D02*
X161290000Y-115570000D01*
X158750000Y-110490000D02*
X158750000Y-106680000D01*
X158750000Y-116840000D02*
X158750000Y-110490000D01*
X156210000Y-113030000D02*
X156210000Y-106680000D01*
X156210000Y-116840000D02*
X156210000Y-113030000D01*
X153670000Y-115570000D02*
X153670000Y-107210010D01*
X153670000Y-116840000D02*
X153670000Y-115570000D01*
X166878000Y-119126000D02*
X166370000Y-116840000D01*
X164338000Y-119126000D02*
X163830000Y-116840000D01*
X161798000Y-119126000D02*
X161290000Y-116840000D01*
X159258000Y-119126000D02*
X158750000Y-116840000D01*
X154178000Y-119126000D02*
X153670000Y-116840000D01*
X156718000Y-119126000D02*
X156210000Y-116840000D01*
X175260000Y-114300000D02*
X175260000Y-107950000D01*
X177800000Y-114300000D02*
X177800000Y-107950000D01*
X180340000Y-114300000D02*
X180340000Y-107950000D01*
X182880000Y-114300000D02*
X182880000Y-107950000D01*
X185420000Y-114300000D02*
X185420000Y-107950000D01*
X187960000Y-114300000D02*
X187960000Y-107950000D01*
X137160000Y-77470000D02*
X134620000Y-77470000D01*
X142240000Y-82550000D02*
X137160000Y-77470000D01*
X144780000Y-86360000D02*
X143510000Y-87630000D01*
X144780000Y-82550000D02*
X144780000Y-86360000D01*
X143510000Y-87630000D02*
X134620000Y-87630000D01*
X127000000Y-76200000D02*
X127000000Y-80010000D01*
X116840000Y-76200000D02*
X127000000Y-76200000D01*
X116840000Y-81280000D02*
X116840000Y-76200000D01*
X134620000Y-80010000D02*
X127000000Y-80010000D01*
X127000000Y-90170000D02*
X127000000Y-101600000D01*
X127000000Y-101600000D02*
X120650000Y-101600000D01*
X120650000Y-101600000D02*
X120650000Y-93980000D01*
X120650000Y-93980000D02*
X116840000Y-93980000D01*
X134620000Y-90170000D02*
X127000000Y-90170000D01*
X114300000Y-93980000D02*
X109220000Y-93980000D01*
X124460000Y-91440000D02*
X109220000Y-91440000D01*
X124460000Y-93980000D02*
X124460000Y-91440000D01*
X124460000Y-99060000D02*
X124460000Y-93980000D01*
X124460000Y-88900000D02*
X109220000Y-88900000D01*
X124460000Y-86360000D02*
X124460000Y-88900000D01*
X124460000Y-81280000D02*
X124460000Y-86360000D01*
X110490000Y-86360000D02*
X114300000Y-82550000D01*
X109220000Y-86360000D02*
X110490000Y-86360000D01*
X114300000Y-82550000D02*
X114300000Y-81280000D01*
X185420000Y-74930000D02*
X184658000Y-70866000D01*
X184658000Y-71119540D02*
X184658000Y-70866000D01*
X182880000Y-74930000D02*
X182118000Y-70866000D01*
X182118000Y-71113942D02*
X182118000Y-70866000D01*
X185420000Y-82550000D02*
X187960000Y-80010000D01*
X187960000Y-80010000D02*
X187960000Y-74930000D01*
X185420000Y-92710000D02*
X185420000Y-82550000D01*
X129540000Y-92710000D02*
X156210000Y-92710000D01*
X129540000Y-116840000D02*
X129540000Y-92710000D01*
X138938000Y-119126000D02*
X138430000Y-116840000D01*
X138430000Y-116840000D02*
X129540000Y-116840000D01*
X163830000Y-77470000D02*
X161798000Y-75438000D01*
X161798000Y-75438000D02*
X161798000Y-70866000D01*
X180340000Y-77470000D02*
X163830000Y-77470000D01*
X182880000Y-80010000D02*
X180340000Y-77470000D01*
X182880000Y-82550000D02*
X182880000Y-80010000D01*
X160020000Y-80010000D02*
X159258000Y-79248000D01*
X159258000Y-79248000D02*
X159258000Y-70866000D01*
X179070000Y-80010000D02*
X160020000Y-80010000D01*
X180340000Y-81280000D02*
X179070000Y-80010000D01*
X180340000Y-82550000D02*
X180340000Y-81280000D01*
X145034000Y-70866000D02*
X144780000Y-74930000D01*
X142494000Y-70866000D02*
X142240000Y-74930000D01*
X194564000Y-70866000D02*
X194310000Y-71120000D01*
X194310000Y-95250000D02*
X167640000Y-95250000D01*
X197358000Y-70866000D02*
X194564000Y-70866000D01*
X194310000Y-71120000D02*
X194310000Y-95250000D01*
X105410000Y-73660000D02*
X105410000Y-76200000D01*
X114300000Y-73660000D02*
X105410000Y-73660000D01*
X114300000Y-78740000D02*
X114300000Y-73660000D01*
X105410000Y-83820000D02*
X105410000Y-100330000D01*
X105410000Y-76200000D02*
X105410000Y-83820000D01*
X109220000Y-83820000D02*
X105410000Y-83820000D01*
X105410000Y-100330000D02*
X110490000Y-105410000D01*
X110490000Y-105410000D02*
X116840000Y-105410000D01*
X119380000Y-86360000D02*
X119380000Y-78740000D01*
X199898000Y-70866000D02*
X197358000Y-70866000D01*
X116840000Y-105410000D02*
X127000000Y-105410000D01*
X116840000Y-86360000D02*
X119380000Y-86360000D01*
X132080000Y-114300000D02*
X132080000Y-105410000D01*
X132080000Y-97790000D02*
X132080000Y-105410000D01*
X132080000Y-95250000D02*
X132080000Y-97790000D01*
X116840000Y-99060000D02*
X116840000Y-105410000D01*
X140970000Y-114300000D02*
X132080000Y-114300000D01*
X132080000Y-95250000D02*
X135890000Y-95250000D01*
X141478000Y-119126000D02*
X140970000Y-114300000D01*
X165100000Y-95250000D02*
X167640000Y-95250000D01*
X162560000Y-95250000D02*
X165100000Y-95250000D01*
X160020000Y-95250000D02*
X162560000Y-95250000D01*
X157480000Y-95250000D02*
X160020000Y-95250000D01*
X154940000Y-95250000D02*
X157480000Y-95250000D01*
X148590000Y-95250000D02*
X154940000Y-95250000D01*
X146050000Y-95250000D02*
X148590000Y-95250000D01*
X143510000Y-95250000D02*
X146050000Y-95250000D01*
X140970000Y-95250000D02*
X143510000Y-95250000D01*
X138430000Y-95250000D02*
X140970000Y-95250000D01*
X135890000Y-95250000D02*
X138430000Y-95250000D01*
X173990000Y-74930000D02*
X180340000Y-74930000D01*
X173990000Y-82550000D02*
X173990000Y-82550000D01*
X177800000Y-82550000D02*
X173990000Y-82550000D01*
X177800000Y-90170000D02*
X177800000Y-82550000D01*
X151130000Y-90170000D02*
X171450000Y-90170000D01*
X199898000Y-114046000D02*
X197358000Y-114046000D01*
X110490000Y-71120000D02*
X110490000Y-71120000D01*
X116840000Y-71120000D02*
X110490000Y-71120000D01*
X116840000Y-73654402D02*
X116840000Y-71120000D01*
X127000000Y-73660000D02*
X116845598Y-73660000D01*
X116845598Y-73660000D02*
X116840000Y-73654402D01*
X129794000Y-73482000D02*
X127178000Y-73482000D01*
X127178000Y-73482000D02*
X127000000Y-73660000D01*
X110490000Y-76200000D02*
X110490000Y-76200000D01*
X109220000Y-77470000D02*
X110490000Y-76200000D01*
X109220000Y-81280000D02*
X109220000Y-77470000D01*
X134620000Y-85090000D02*
X139700000Y-85090000D01*
X133350000Y-85090000D02*
X130810000Y-82550000D01*
X134620000Y-85090000D02*
X133350000Y-85090000D01*
X131242000Y-77038000D02*
X130810000Y-77470000D01*
X131242000Y-74930000D02*
X131242000Y-77038000D01*
X129794000Y-73482000D02*
X131242000Y-74930000D01*
X129794000Y-70866000D02*
X129794000Y-73482000D01*
X131242000Y-74930000D02*
X134620000Y-74930000D01*
X144018000Y-119126000D02*
X146558000Y-119126000D01*
X139700000Y-90170000D02*
X151130000Y-90170000D01*
M02*
