  0
SECTION
  2
HEADER
  9
$ACADVER
  1
AC1014
  9
$HANDSEED
  5
FFFF
  9
$MEASUREMENT
 70
     1
  0
ENDSEC
  0
SECTION
  2
TABLES
  0
TABLE
  2
VPORT
  5
8
330
0
100
AcDbSymbolTable
 70
     4
  0
VPORT
  5
2E
330
8
100
AcDbSymbolTableRecord
100
AcDbViewportTableRecord
  2
*ACTIVE
 70
     0
 10
0.0
 20
0.0
 11
1.0
 21
1.0
 12
210.0
 22
148.5
 13
0.0
 23
0.0
 14
10.0
 24
10.0
 15
10.0
 25
10.0
 16
0.0
 26
0.0
 36
1.0
 17
0.0
 27
0.0
 37
0.0
 40
341.0
 41
1.24
 42
50.0
 43
0.0
 44
0.0
 50
0.0
 51
0.0
 71
     0
 72
   100
 73
     1
 74
     3
 75
     0
 76
     0
 77
     0
 78
     0
  0
ENDTAB
  0
TABLE
  2
LTYPE
  5
5
330
0
100
AcDbSymbolTable
 70
     1
  0
LTYPE
  5
14
330
5
100
AcDbSymbolTableRecord
100
AcDbLinetypeTableRecord
  2
BYBLOCK
 70
     0
  3

 72
    65
 73
     0
 40
0.0
  0
LTYPE
  5
15
330
5
100
AcDbSymbolTableRecord
100
AcDbLinetypeTableRecord
  2
BYLAYER
 70
     0
  3

 72
    65
 73
     0
 40
0.0
  0
LTYPE
  5
16
330
5
100
AcDbSymbolTableRecord
100
AcDbLinetypeTableRecord
  2
CONTINUOUS
 70
     0
  3
Solid line
 72
    65
 73
     0
 40
0.0
  0
ENDTAB
  0
TABLE
  2
LAYER
  5
2
100
AcDbSymbolTable
 70
2
  0
LAYER
  5
50
100
AcDbSymbolTableRecord
100
AcDbLayerTableRecord
  2
0
 70
0
  6
CONTINUOUS
  0
LAYER
  5
51
100
AcDbSymbolTableRecord
100
AcDbLayerTableRecord
  2
Layer_1
 70
0
  6
CONTINUOUS
  0
ENDTAB
  0
TABLE
  2
STYLE
  5
3
330
0
100
AcDbSymbolTable
 70
     1
  0
STYLE
  5
11
330
3
100
AcDbSymbolTableRecord
100
AcDbTextStyleTableRecord
  2
STANDARD
 70
     0
 40
0.0
 41
1.0
 50
0.0
 71
     0
 42
2.5
  3
txt
  4

  0
ENDTAB
  0
TABLE
  2
VIEW
  5
6
330
0
100
AcDbSymbolTable
 70
     0
  0
ENDTAB
  0
TABLE
  2
UCS
  5
7
330
0
100
AcDbSymbolTable
 70
     0
  0
ENDTAB
  0
TABLE
  2
APPID
  5
9
330
0
100
AcDbSymbolTable
 70
     2
  0
APPID
  5
12
330
9
100
AcDbSymbolTableRecord
100
AcDbRegAppTableRecord
  2
ACAD
 70
     0
  0
ENDTAB
  0
TABLE
  2
DIMSTYLE
  5
A
330
0
100
AcDbSymbolTable
 70
     1
  0
DIMSTYLE
105
27
330
A
100
AcDbSymbolTableRecord
100
AcDbDimStyleTableRecord
  2
ISO-25
 70
     0
  3

  4

  5

  6

  7

 40
1.0
 41
2.5
 42
0.625
 43
3.75
 44
1.25
 45
0.0
 46
0.0
 47
0.0
 48
0.0
140
2.5
141
2.5
142
0.0
143
0.03937007874016
144
1.0
145
0.0
146
1.0
147
0.625
 71
     0
 72
     0
 73
     0
 74
     0
 75
     0
 76
     0
 77
     1
 78
     8
170
     0
171
     3
172
     1
173
     0
174
     0
175
     0
176
     0
177
     0
178
     0
270
     2
271
     2
272
     2
273
     2
274
     3
340
11
275
     0
280
     0
281
     0
282
     0
283
     0
284
     8
285
     0
286
     0
287
     3
288
     0
  0
ENDTAB
  0
TABLE
  2
BLOCK_RECORD
  5
1
330
0
100
AcDbSymbolTable
 70
     1
  0
BLOCK_RECORD
  5
1F
330
1
100
AcDbSymbolTableRecord
100
AcDbBlockTableRecord
  2
*MODEL_SPACE
  0
BLOCK_RECORD
  5
1B
330
1
100
AcDbSymbolTableRecord
100
AcDbBlockTableRecord
  2
*PAPER_SPACE
  0
ENDTAB
  0
ENDSEC
  0
SECTION
  2
BLOCKS
  0
BLOCK
  5
20
330
1F
100
AcDbEntity
  8
0
100
AcDbBlockBegin
  2
*MODEL_SPACE
 70
     0
 10
0.0
 20
0.0
 30
0.0
  3
*MODEL_SPACE
  1

  0
ENDBLK
  5
21
330
1F
100
AcDbEntity
  8
0
100
AcDbBlockEnd
  0
BLOCK
  5
1C
330
1B
100
AcDbEntity
 67
     1
  8
0
100
AcDbBlockBegin
  2
*PAPER_SPACE
  1

  0
ENDBLK
  5
1D
330
1B
100
AcDbEntity
 67
     1
  8
0
100
AcDbBlockEnd
  0
ENDSEC
  0
SECTION
  2
ENTITIES
  0
SPLINE
  5
100
100
AcDbEntity
  8
Layer_1
 62
7
100
AcDbSpline
 70
8
 71
3
 72
8
 73
4
 74
0
 40
0
 40
0
 40
0
 40
0
 40
1
 40
1
 40
1
 40
1
 10
40.666650
 20
364.727646
 30
0.0
 10
77.582464
 20
342.582012
 30
0.0
 10
89.914068
 20
293.219900
 30
0.0
 10
67.770529
 20
256.307601
 30
0.0
  0
SPLINE
  5
101
100
AcDbEntity
  8
Layer_1
 62
7
100
AcDbSpline
 70
8
 71
3
 72
8
 73
4
 74
0
 40
0
 40
0
 40
0
 40
0
 40
1
 40
1
 40
1
 40
1
 10
67.770529
 20
256.307601
 30
0.0
 10
45.610869
 20
219.368427
 30
0.0
 10
-3.782489
 20
207.029022
 30
0.0
 10
-40.718148
 20
229.186587
 30
0.0
  0
SPLINE
  5
102
100
AcDbEntity
  8
Layer_1
 62
7
100
AcDbSpline
 70
8
 71
3
 72
8
 73
4
 74
0
 40
0
 40
0
 40
0
 40
0
 40
1
 40
1
 40
1
 40
1
 10
-40.718148
 20
229.186587
 30
0.0
 10
-77.680682
 20
251.360274
 30
0.0
 10
-90.027888
 20
300.784878
 30
0.0
 10
-67.856296
 20
337.743898
 30
0.0
  0
SPLINE
  5
103
100
AcDbEntity
  8
Layer_1
 62
7
100
AcDbSpline
 70
8
 71
3
 72
8
 73
4
 74
0
 40
0
 40
0
 40
0
 40
0
 40
1
 40
1
 40
1
 40
1
 10
-67.856296
 20
337.743898
 30
0.0
 10
-45.668583
 20
374.729791
 30
0.0
 10
3.787267
 20
387.084797
 30
0.0
 10
40.769647
 20
364.899180
 30
0.0
  0
SPLINE
  5
104
100
AcDbEntity
  8
Layer_1
 62
7
100
AcDbSpline
 70
8
 71
3
 72
8
 73
4
 74
0
 40
0
 40
0
 40
0
 40
0
 40
1
 40
1
 40
1
 40
1
 10
40.769647
 20
364.899180
 30
0.0
 10
77.778900
 20
342.697440
 30
0.0
 10
90.141707
 20
293.210344
 30
0.0
 10
67.942063
 20
256.204604
 30
0.0
  0
SPLINE
  5
105
100
AcDbEntity
  8
Layer_1
 62
7
100
AcDbSpline
 70
8
 71
3
 72
8
 73
4
 74
0
 40
0
 40
0
 40
0
 40
0
 40
1
 40
1
 40
1
 40
1
 10
67.942063
 20
256.204604
 30
0.0
 10
45.726297
 20
219.171991
 30
0.0
 10
-3.792045
 20
206.801383
 30
0.0
 10
-40.821145
 20
229.015054
 30
0.0
  0
SPLINE
  5
106
100
AcDbEntity
  8
Layer_1
 62
7
100
AcDbSpline
 70
8
 71
3
 72
8
 73
4
 74
0
 40
0
 40
0
 40
0
 40
0
 40
1
 40
1
 40
1
 40
1
 10
-40.821145
 20
229.015054
 30
0.0
 10
-77.877118
 20
251.244846
 30
0.0
 10
-90.255527
 20
300.794434
 30
0.0
 10
-68.027830
 20
337.846894
 30
0.0
  0
SPLINE
  5
107
100
AcDbEntity
  8
Layer_1
 62
7
100
AcDbSpline
 70
8
 71
3
 72
8
 73
4
 74
0
 40
0
 40
0
 40
0
 40
0
 40
1
 40
1
 40
1
 40
1
 10
-68.027830
 20
337.846894
 30
0.0
 10
-45.784011
 20
374.926227
 30
0.0
 10
3.796823
 20
387.312436
 30
0.0
 10
40.872643
 20
365.070713
 30
0.0
  0
SPLINE
  5
108
100
AcDbEntity
  8
Layer_1
 62
7
100
AcDbSpline
 70
8
 71
3
 72
8
 73
4
 74
0
 40
0
 40
0
 40
0
 40
0
 40
1
 40
1
 40
1
 40
1
 10
40.872643
 20
365.070713
 30
0.0
 10
77.975336
 20
342.812868
 30
0.0
 10
90.369346
 20
293.200788
 30
0.0
 10
68.113597
 20
256.101608
 30
0.0
  0
SPLINE
  5
109
100
AcDbEntity
  8
Layer_1
 62
7
100
AcDbSpline
 70
8
 71
3
 72
8
 73
4
 74
0
 40
0
 40
0
 40
0
 40
0
 40
1
 40
1
 40
1
 40
1
 10
68.113597
 20
256.101608
 30
0.0
 10
45.841725
 20
218.975555
 30
0.0
 10
-3.801602
 20
206.573744
 30
0.0
 10
-40.924141
 20
228.843520
 30
0.0
  0
SPLINE
  5
10a
100
AcDbEntity
  8
Layer_1
 62
7
100
AcDbSpline
 70
8
 71
3
 72
8
 73
4
 74
0
 40
0
 40
0
 40
0
 40
0
 40
1
 40
1
 40
1
 40
1
 10
-40.924141
 20
228.843520
 30
0.0
 10
-78.073554
 20
251.129417
 30
0.0
 10
-90.483166
 20
300.803991
 30
0.0
 10
-68.199363
 20
337.949890
 30
0.0
  0
SPLINE
  5
10b
100
AcDbEntity
  8
Layer_1
 62
7
100
AcDbSpline
 70
8
 71
3
 72
8
 73
4
 74
0
 40
0
 40
0
 40
0
 40
0
 40
1
 40
1
 40
1
 40
1
 10
-68.199363
 20
337.949890
 30
0.0
 10
-45.899440
 20
375.122664
 30
0.0
 10
3.806380
 20
387.540075
 30
0.0
 10
40.975639
 20
365.242247
 30
0.0
  0
SPLINE
  5
10c
100
AcDbEntity
  8
Layer_1
 62
7
100
AcDbSpline
 70
8
 71
3
 72
8
 73
4
 74
0
 40
0
 40
0
 40
0
 40
0
 40
1
 40
1
 40
1
 40
1
 10
40.975639
 20
365.242247
 30
0.0
 10
78.171773
 20
342.928297
 30
0.0
 10
90.596985
 20
293.191231
 30
0.0
 10
68.285130
 20
255.998612
 30
0.0
  0
SPLINE
  5
10d
100
AcDbEntity
  8
Layer_1
 62
7
100
AcDbSpline
 70
8
 71
3
 72
8
 73
4
 74
0
 40
0
 40
0
 40
0
 40
0
 40
1
 40
1
 40
1
 40
1
 10
68.285130
 20
255.998612
 30
0.0
 10
45.957154
 20
218.779118
 30
0.0
 10
-3.811158
 20
206.346105
 30
0.0
 10
-41.027137
 20
228.671986
 30
0.0
  0
SPLINE
  5
10e
100
AcDbEntity
  8
Layer_1
 62
7
100
AcDbSpline
 70
8
 71
3
 72
8
 73
4
 74
0
 40
0
 40
0
 40
0
 40
0
 40
1
 40
1
 40
1
 40
1
 10
-41.027137
 20
228.671986
 30
0.0
 10
-78.269991
 20
251.013989
 30
0.0
 10
-90.710805
 20
300.813547
 30
0.0
 10
-68.370897
 20
338.052886
 30
0.0
  0
SPLINE
  5
10f
100
AcDbEntity
  8
Layer_1
 62
7
100
AcDbSpline
 70
8
 71
3
 72
8
 73
4
 74
0
 40
0
 40
0
 40
0
 40
0
 40
1
 40
1
 40
1
 40
1
 10
-68.370897
 20
338.052886
 30
0.0
 10
-46.014868
 20
375.319100
 30
0.0
 10
3.815936
 20
387.767714
 30
0.0
 10
41.078636
 20
365.413780
 30
0.0
  0
SPLINE
  5
110
100
AcDbEntity
  8
Layer_1
 62
7
100
AcDbSpline
 70
8
 71
3
 72
8
 73
4
 74
0
 40
0
 40
0
 40
0
 40
0
 40
1
 40
1
 40
1
 40
1
 10
41.078636
 20
365.413780
 30
0.0
 10
78.368209
 20
343.043725
 30
0.0
 10
90.824624
 20
293.181675
 30
0.0
 10
68.456664
 20
255.895615
 30
0.0
  0
SPLINE
  5
111
100
AcDbEntity
  8
Layer_1
 62
7
100
AcDbSpline
 70
8
 71
3
 72
8
 73
4
 74
0
 40
0
 40
0
 40
0
 40
0
 40
1
 40
1
 40
1
 40
1
 10
68.456664
 20
255.895615
 30
0.0
 10
46.072582
 20
218.582682
 30
0.0
 10
-3.820714
 20
206.118466
 30
0.0
 10
-41.130134
 20
228.500453
 30
0.0
  0
SPLINE
  5
112
100
AcDbEntity
  8
Layer_1
 62
7
100
AcDbSpline
 70
8
 71
3
 72
8
 73
4
 74
0
 40
0
 40
0
 40
0
 40
0
 40
1
 40
1
 40
1
 40
1
 10
-41.130134
 20
228.500453
 30
0.0
 10
-78.466427
 20
250.898561
 30
0.0
 10
-90.938444
 20
300.823103
 30
0.0
 10
-68.542431
 20
338.155883
 30
0.0
  0
SPLINE
  5
113
100
AcDbEntity
  8
Layer_1
 62
7
100
AcDbSpline
 70
8
 71
3
 72
8
 73
4
 74
0
 40
0
 40
0
 40
0
 40
0
 40
1
 40
1
 40
1
 40
1
 10
-68.542431
 20
338.155883
 30
0.0
 10
-46.130296
 20
375.515536
 30
0.0
 10
3.825492
 20
387.995353
 30
0.0
 10
41.181632
 20
365.585314
 30
0.0
  0
SPLINE
  5
114
100
AcDbEntity
  8
Layer_1
 62
7
100
AcDbSpline
 70
8
 71
3
 72
8
 73
4
 74
0
 40
0
 40
0
 40
0
 40
0
 40
1
 40
1
 40
1
 40
1
 10
41.181632
 20
365.585314
 30
0.0
 10
78.564645
 20
343.159153
 30
0.0
 10
91.052263
 20
293.172119
 30
0.0
 10
68.628197
 20
255.792619
 30
0.0
  0
SPLINE
  5
115
100
AcDbEntity
  8
Layer_1
 62
7
100
AcDbSpline
 70
8
 71
3
 72
8
 73
4
 74
0
 40
0
 40
0
 40
0
 40
0
 40
1
 40
1
 40
1
 40
1
 10
68.628197
 20
255.792619
 30
0.0
 10
46.188010
 20
218.386246
 30
0.0
 10
-3.830271
 20
205.890827
 30
0.0
 10
-41.233130
 20
228.328919
 30
0.0
  0
SPLINE
  5
116
100
AcDbEntity
  8
Layer_1
 62
7
100
AcDbSpline
 70
8
 71
3
 72
8
 73
4
 74
0
 40
0
 40
0
 40
0
 40
0
 40
1
 40
1
 40
1
 40
1
 10
-41.233130
 20
228.328919
 30
0.0
 10
-78.662863
 20
250.783133
 30
0.0
 10
-91.166083
 20
300.832660
 30
0.0
 10
-68.713964
 20
338.258879
 30
0.0
  0
SPLINE
  5
117
100
AcDbEntity
  8
Layer_1
 62
7
100
AcDbSpline
 70
8
 71
3
 72
8
 73
4
 74
0
 40
0
 40
0
 40
0
 40
0
 40
1
 40
1
 40
1
 40
1
 10
-68.713964
 20
338.258879
 30
0.0
 10
-46.245724
 20
375.711972
 30
0.0
 10
3.835049
 20
388.222992
 30
0.0
 10
41.284628
 20
365.756848
 30
0.0
  0
SPLINE
  5
118
100
AcDbEntity
  8
Layer_1
 62
7
100
AcDbSpline
 70
8
 71
3
 72
8
 73
4
 74
0
 40
0
 40
0
 40
0
 40
0
 40
1
 40
1
 40
1
 40
1
 10
41.284628
 20
365.756848
 30
0.0
 10
78.761081
 20
343.274581
 30
0.0
 10
91.279902
 20
293.162562
 30
0.0
 10
68.799731
 20
255.689623
 30
0.0
  0
SPLINE
  5
119
100
AcDbEntity
  8
Layer_1
 62
7
100
AcDbSpline
 70
8
 71
3
 72
8
 73
4
 74
0
 40
0
 40
0
 40
0
 40
0
 40
1
 40
1
 40
1
 40
1
 10
68.799731
 20
255.689623
 30
0.0
 10
46.303438
 20
218.189810
 30
0.0
 10
-3.839827
 20
205.663188
 30
0.0
 10
-41.336126
 20
228.157386
 30
0.0
  0
SPLINE
  5
11a
100
AcDbEntity
  8
Layer_1
 62
7
100
AcDbSpline
 70
8
 71
3
 72
8
 73
4
 74
0
 40
0
 40
0
 40
0
 40
0
 40
1
 40
1
 40
1
 40
1
 10
-41.336126
 20
228.157386
 30
0.0
 10
-78.859299
 20
250.667705
 30
0.0
 10
-91.393722
 20
300.842216
 30
0.0
 10
-68.885498
 20
338.361875
 30
0.0
  0
SPLINE
  5
11b
100
AcDbEntity
  8
Layer_1
 62
7
100
AcDbSpline
 70
8
 71
3
 72
8
 73
4
 74
0
 40
0
 40
0
 40
0
 40
0
 40
1
 40
1
 40
1
 40
1
 10
-68.885498
 20
338.361875
 30
0.0
 10
-46.361152
 20
375.908408
 30
0.0
 10
3.844605
 20
388.450631
 30
0.0
 10
41.387624
 20
365.928381
 30
0.0
  0
SPLINE
  5
11c
100
AcDbEntity
  8
Layer_1
 62
7
100
AcDbSpline
 70
8
 71
3
 72
8
 73
4
 74
0
 40
0
 40
0
 40
0
 40
0
 40
1
 40
1
 40
1
 40
1
 10
41.387624
 20
365.928381
 30
0.0
 10
78.957517
 20
343.390009
 30
0.0
 10
91.507541
 20
293.153006
 30
0.0
 10
68.971265
 20
255.586627
 30
0.0
  0
SPLINE
  5
11d
100
AcDbEntity
  8
Layer_1
 62
7
100
AcDbSpline
 70
8
 71
3
 72
8
 73
4
 74
0
 40
0
 40
0
 40
0
 40
0
 40
1
 40
1
 40
1
 40
1
 10
68.971265
 20
255.586627
 30
0.0
 10
46.418866
 20
217.993374
 30
0.0
 10
-3.849383
 20
205.435549
 30
0.0
 10
-41.439123
 20
227.985852
 30
0.0
  0
SPLINE
  5
11e
100
AcDbEntity
  8
Layer_1
 62
7
100
AcDbSpline
 70
8
 71
3
 72
8
 73
4
 74
0
 40
0
 40
0
 40
0
 40
0
 40
1
 40
1
 40
1
 40
1
 10
-41.439123
 20
227.985852
 30
0.0
 10
-79.055735
 20
250.552277
 30
0.0
 10
-91.621361
 20
300.851773
 30
0.0
 10
-69.057031
 20
338.464872
 30
0.0
  0
SPLINE
  5
11f
100
AcDbEntity
  8
Layer_1
 62
7
100
AcDbSpline
 70
8
 71
3
 72
8
 73
4
 74
0
 40
0
 40
0
 40
0
 40
0
 40
1
 40
1
 40
1
 40
1
 10
-69.057031
 20
338.464872
 30
0.0
 10
-46.476580
 20
376.104845
 30
0.0
 10
3.854162
 20
388.678270
 30
0.0
 10
41.490621
 20
366.099915
 30
0.0
  0
SPLINE
  5
120
100
AcDbEntity
  8
Layer_1
 62
7
100
AcDbSpline
 70
8
 71
3
 72
8
 73
4
 74
0
 40
0
 40
0
 40
0
 40
0
 40
1
 40
1
 40
1
 40
1
 10
41.490621
 20
366.099915
 30
0.0
 10
79.153954
 20
343.505437
 30
0.0
 10
91.735180
 20
293.143449
 30
0.0
 10
69.142798
 20
255.483630
 30
0.0
  0
SPLINE
  5
121
100
AcDbEntity
  8
Layer_1
 62
7
100
AcDbSpline
 70
8
 71
3
 72
8
 73
4
 74
0
 40
0
 40
0
 40
0
 40
0
 40
1
 40
1
 40
1
 40
1
 10
69.142798
 20
255.483630
 30
0.0
 10
46.534294
 20
217.796937
 30
0.0
 10
-3.858940
 20
205.207910
 30
0.0
 10
-41.542119
 20
227.814319
 30
0.0
  0
SPLINE
  5
122
100
AcDbEntity
  8
Layer_1
 62
7
100
AcDbSpline
 70
8
 71
3
 72
8
 73
4
 74
0
 40
0
 40
0
 40
0
 40
0
 40
1
 40
1
 40
1
 40
1
 10
-41.542119
 20
227.814319
 30
0.0
 10
-79.252172
 20
250.436849
 30
0.0
 10
-91.849000
 20
300.861329
 30
0.0
 10
-69.228565
 20
338.567868
 30
0.0
  0
SPLINE
  5
123
100
AcDbEntity
  8
Layer_1
 62
7
100
AcDbSpline
 70
8
 71
3
 72
8
 73
4
 74
0
 40
0
 40
0
 40
0
 40
0
 40
1
 40
1
 40
1
 40
1
 10
-69.228565
 20
338.567868
 30
0.0
 10
-46.592008
 20
376.301281
 30
0.0
 10
3.863718
 20
388.905909
 30
0.0
 10
41.593617
 20
366.271448
 30
0.0
  0
SPLINE
  5
124
100
AcDbEntity
  8
Layer_1
 62
7
100
AcDbSpline
 70
8
 71
3
 72
8
 73
4
 74
0
 40
0
 40
0
 40
0
 40
0
 40
1
 40
1
 40
1
 40
1
 10
41.593617
 20
366.271448
 30
0.0
 10
79.350390
 20
343.620866
 30
0.0
 10
91.962819
 20
293.133893
 30
0.0
 10
69.314332
 20
255.380634
 30
0.0
  0
SPLINE
  5
125
100
AcDbEntity
  8
Layer_1
 62
7
100
AcDbSpline
 70
8
 71
3
 72
8
 73
4
 74
0
 40
0
 40
0
 40
0
 40
0
 40
1
 40
1
 40
1
 40
1
 10
69.314332
 20
255.380634
 30
0.0
 10
46.649723
 20
217.600501
 30
0.0
 10
-3.868496
 20
204.980271
 30
0.0
 10
-41.645115
 20
227.642785
 30
0.0
  0
SPLINE
  5
126
100
AcDbEntity
  8
Layer_1
 62
7
100
AcDbSpline
 70
8
 71
3
 72
8
 73
4
 74
0
 40
0
 40
0
 40
0
 40
0
 40
1
 40
1
 40
1
 40
1
 10
-41.645115
 20
227.642785
 30
0.0
 10
-79.448608
 20
250.321420
 30
0.0
 10
-92.076639
 20
300.870885
 30
0.0
 10
-69.400098
 20
338.670864
 30
0.0
  0
SPLINE
  5
127
100
AcDbEntity
  8
Layer_1
 62
7
100
AcDbSpline
 70
8
 71
3
 72
8
 73
4
 74
0
 40
0
 40
0
 40
0
 40
0
 40
1
 40
1
 40
1
 40
1
 10
-69.400098
 20
338.670864
 30
0.0
 10
-46.707437
 20
376.497717
 30
0.0
 10
3.873274
 20
389.133548
 30
0.0
 10
41.696613
 20
366.442982
 30
0.0
  0
SPLINE
  5
128
100
AcDbEntity
  8
Layer_1
 62
7
100
AcDbSpline
 70
8
 71
3
 72
8
 73
4
 74
0
 40
0
 40
0
 40
0
 40
0
 40
1
 40
1
 40
1
 40
1
 10
41.696613
 20
366.442982
 30
0.0
 10
79.546826
 20
343.736294
 30
0.0
 10
92.190458
 20
293.124337
 30
0.0
 10
69.485865
 20
255.277638
 30
0.0
  0
SPLINE
  5
129
100
AcDbEntity
  8
Layer_1
 62
7
100
AcDbSpline
 70
8
 71
3
 72
8
 73
4
 74
0
 40
0
 40
0
 40
0
 40
0
 40
1
 40
1
 40
1
 40
1
 10
69.485865
 20
255.277638
 30
0.0
 10
46.765151
 20
217.404065
 30
0.0
 10
-3.878053
 20
204.752632
 30
0.0
 10
-41.748111
 20
227.471251
 30
0.0
  0
SPLINE
  5
12a
100
AcDbEntity
  8
Layer_1
 62
7
100
AcDbSpline
 70
8
 71
3
 72
8
 73
4
 74
0
 40
0
 40
0
 40
0
 40
0
 40
1
 40
1
 40
1
 40
1
 10
-41.748111
 20
227.471251
 30
0.0
 10
-79.645044
 20
250.205992
 30
0.0
 10
-92.304278
 20
300.880442
 30
0.0
 10
-69.571632
 20
338.773860
 30
0.0
  0
SPLINE
  5
12b
100
AcDbEntity
  8
Layer_1
 62
7
100
AcDbSpline
 70
8
 71
3
 72
8
 73
4
 74
0
 40
0
 40
0
 40
0
 40
0
 40
1
 40
1
 40
1
 40
1
 10
-69.571632
 20
338.773860
 30
0.0
 10
-46.822865
 20
376.694153
 30
0.0
 10
3.882831
 20
389.361187
 30
0.0
 10
41.799610
 20
366.614515
 30
0.0
  0
SPLINE
  5
12c
100
AcDbEntity
  8
Layer_1
 62
7
100
AcDbSpline
 70
8
 71
3
 72
8
 73
4
 74
0
 40
0
 40
0
 40
0
 40
0
 40
1
 40
1
 40
1
 40
1
 10
41.799610
 20
366.614515
 30
0.0
 10
79.743262
 20
343.851722
 30
0.0
 10
92.418097
 20
293.114780
 30
0.0
 10
69.657399
 20
255.174641
 30
0.0
  0
SPLINE
  5
12d
100
AcDbEntity
  8
Layer_1
 62
7
100
AcDbSpline
 70
8
 71
3
 72
8
 73
4
 74
0
 40
0
 40
0
 40
0
 40
0
 40
1
 40
1
 40
1
 40
1
 10
69.657399
 20
255.174641
 30
0.0
 10
46.880579
 20
217.207629
 30
0.0
 10
-3.887609
 20
204.524993
 30
0.0
 10
-41.851108
 20
227.299718
 30
0.0
  0
SPLINE
  5
12e
100
AcDbEntity
  8
Layer_1
 62
7
100
AcDbSpline
 70
8
 71
3
 72
8
 73
4
 74
0
 40
0
 40
0
 40
0
 40
0
 40
1
 40
1
 40
1
 40
1
 10
-41.851108
 20
227.299718
 30
0.0
 10
-79.841480
 20
250.090564
 30
0.0
 10
-92.531917
 20
300.889998
 30
0.0
 10
-69.743166
 20
338.876857
 30
0.0
  0
SPLINE
  5
12f
100
AcDbEntity
  8
Layer_1
 62
7
100
AcDbSpline
 70
8
 71
3
 72
8
 73
4
 74
0
 40
0
 40
0
 40
0
 40
0
 40
1
 40
1
 40
1
 40
1
 10
-69.743166
 20
338.876857
 30
0.0
 10
-46.938293
 20
376.890589
 30
0.0
 10
3.892387
 20
389.588826
 30
0.0
 10
41.902606
 20
366.786049
 30
0.0
  0
SPLINE
  5
130
100
AcDbEntity
  8
Layer_1
 62
7
100
AcDbSpline
 70
8
 71
3
 72
8
 73
4
 74
0
 40
0
 40
0
 40
0
 40
0
 40
1
 40
1
 40
1
 40
1
 10
41.902606
 20
366.786049
 30
0.0
 10
79.939698
 20
343.967150
 30
0.0
 10
92.645736
 20
293.105224
 30
0.0
 10
69.828932
 20
255.071645
 30
0.0
  0
SPLINE
  5
131
100
AcDbEntity
  8
Layer_1
 62
7
100
AcDbSpline
 70
8
 71
3
 72
8
 73
4
 74
0
 40
0
 40
0
 40
0
 40
0
 40
1
 40
1
 40
1
 40
1
 10
69.828932
 20
255.071645
 30
0.0
 10
46.996007
 20
217.011193
 30
0.0
 10
-3.897165
 20
204.297354
 30
0.0
 10
-41.954104
 20
227.128184
 30
0.0
  0
SPLINE
  5
132
100
AcDbEntity
  8
Layer_1
 62
7
100
AcDbSpline
 70
8
 71
3
 72
8
 73
4
 74
0
 40
0
 40
0
 40
0
 40
0
 40
1
 40
1
 40
1
 40
1
 10
-41.954104
 20
227.128184
 30
0.0
 10
-80.037916
 20
249.975136
 30
0.0
 10
-92.759556
 20
300.899554
 30
0.0
 10
-69.914699
 20
338.979853
 30
0.0
  0
SPLINE
  5
133
100
AcDbEntity
  8
Layer_1
 62
7
100
AcDbSpline
 70
8
 71
3
 72
8
 73
4
 74
0
 40
0
 40
0
 40
0
 40
0
 40
1
 40
1
 40
1
 40
1
 10
-69.914699
 20
338.979853
 30
0.0
 10
-47.053721
 20
377.087026
 30
0.0
 10
3.901943
 20
389.816465
 30
0.0
 10
42.005602
 20
366.957583
 30
0.0
  0
SPLINE
  5
134
100
AcDbEntity
  8
Layer_1
 62
7
100
AcDbSpline
 70
8
 71
3
 72
8
 73
4
 74
0
 40
0
 40
0
 40
0
 40
0
 40
1
 40
1
 40
1
 40
1
 10
42.005602
 20
366.957583
 30
0.0
 10
80.136135
 20
344.082578
 30
0.0
 10
92.873375
 20
293.095668
 30
0.0
 10
70.000466
 20
254.968649
 30
0.0
  0
SPLINE
  5
135
100
AcDbEntity
  8
Layer_1
 62
7
100
AcDbSpline
 70
8
 71
3
 72
8
 73
4
 74
0
 40
0
 40
0
 40
0
 40
0
 40
1
 40
1
 40
1
 40
1
 10
70.000466
 20
254.968649
 30
0.0
 10
47.111435
 20
216.814756
 30
0.0
 10
-3.906722
 20
204.069715
 30
0.0
 10
-42.057100
 20
226.956651
 30
0.0
  0
SPLINE
  5
136
100
AcDbEntity
  8
Layer_1
 62
7
100
AcDbSpline
 70
8
 71
3
 72
8
 73
4
 74
0
 40
0
 40
0
 40
0
 40
0
 40
1
 40
1
 40
1
 40
1
 10
-42.057100
 20
226.956651
 30
0.0
 10
-80.234353
 20
249.859708
 30
0.0
 10
-92.987195
 20
300.909111
 30
0.0
 10
-70.086233
 20
339.082849
 30
0.0
  0
SPLINE
  5
137
100
AcDbEntity
  8
Layer_1
 62
7
100
AcDbSpline
 70
8
 71
3
 72
8
 73
4
 74
0
 40
0
 40
0
 40
0
 40
0
 40
1
 40
1
 40
1
 40
1
 10
-70.086233
 20
339.082849
 30
0.0
 10
-47.169149
 20
377.283462
 30
0.0
 10
3.911500
 20
390.044104
 30
0.0
 10
42.108598
 20
367.129116
 30
0.0
  0
SPLINE
  5
138
100
AcDbEntity
  8
Layer_1
 62
7
100
AcDbSpline
 70
8
 71
3
 72
8
 73
4
 74
0
 40
0
 40
0
 40
0
 40
0
 40
1
 40
1
 40
1
 40
1
 10
42.108598
 20
367.129116
 30
0.0
 10
80.332571
 20
344.198006
 30
0.0
 10
93.101014
 20
293.086111
 30
0.0
 10
70.172000
 20
254.865652
 30
0.0
  0
SPLINE
  5
139
100
AcDbEntity
  8
Layer_1
 62
7
100
AcDbSpline
 70
8
 71
3
 72
8
 73
4
 74
0
 40
0
 40
0
 40
0
 40
0
 40
1
 40
1
 40
1
 40
1
 10
70.172000
 20
254.865652
 30
0.0
 10
47.226863
 20
216.618320
 30
0.0
 10
-3.916278
 20
203.842076
 30
0.0
 10
-42.160097
 20
226.785117
 30
0.0
  0
SPLINE
  5
13a
100
AcDbEntity
  8
Layer_1
 62
7
100
AcDbSpline
 70
8
 71
3
 72
8
 73
4
 74
0
 40
0
 40
0
 40
0
 40
0
 40
1
 40
1
 40
1
 40
1
 10
-42.160097
 20
226.785117
 30
0.0
 10
-80.430789
 20
249.744280
 30
0.0
 10
-93.214834
 20
300.918667
 30
0.0
 10
-70.257766
 20
339.185846
 30
0.0
  0
SPLINE
  5
13b
100
AcDbEntity
  8
Layer_1
 62
7
100
AcDbSpline
 70
8
 71
3
 72
8
 73
4
 74
0
 40
0
 40
0
 40
0
 40
0
 40
1
 40
1
 40
1
 40
1
 10
-70.257766
 20
339.185846
 30
0.0
 10
-47.284860
 20
377.479427
 30
0.0
 10
3.919886
 20
390.271529
 30
0.0
 10
42.210358
 20
367.301392
 30
0.0
  0
ENDSEC
  0
SECTION
  2
OBJECTS
  0
DICTIONARY
  5
C
330
0
100
AcDbDictionary
  3
ACAD_GROUP
350
D
  3
ACAD_MLINESTYLE
350
17
  0
DICTIONARY
  5
D
330
C
100
AcDbDictionary
  0
DICTIONARY
  5
1A
330
C
100
AcDbDictionary
  0
DICTIONARY
  5
17
330
C
100
AcDbDictionary
  3
STANDARD
350
18
  0
DICTIONARY
  5
19
330
C
100
AcDbDictionary
  0
ENDSEC
  0
EOF
