<?xml version="1.0" encoding="UTF-8" standalone="no"?>
<!-- Created with Inkscape (http://www.inkscape.org/) -->

<svg
   xmlns:dc="http://purl.org/dc/elements/1.1/"
   xmlns:cc="http://creativecommons.org/ns#"
   xmlns:rdf="http://www.w3.org/1999/02/22-rdf-syntax-ns#"
   xmlns:svg="http://www.w3.org/2000/svg"
   xmlns="http://www.w3.org/2000/svg"
   xmlns:sodipodi="http://sodipodi.sourceforge.net/DTD/sodipodi-0.dtd"
   xmlns:inkscape="http://www.inkscape.org/namespaces/inkscape"
   width="210mm"
   height="297mm"
   viewBox="0 0 210 297"
   version="1.1"
   id="svg2930"
   inkscape:version="0.92.3 (2405546, 2018-03-11)"
   sodipodi:docname="coil-spiral-recess.svg">
  <defs
     id="defs2924" />
  <sodipodi:namedview
     id="base"
     pagecolor="#ffffff"
     bordercolor="#666666"
     borderopacity="1.0"
     inkscape:pageopacity="0.0"
     inkscape:pageshadow="2"
     inkscape:zoom="0.98994949"
     inkscape:cx="72.195751"
     inkscape:cy="1167.7143"
     inkscape:document-units="mm"
     inkscape:current-layer="layer1"
     showgrid="false"
     inkscape:window-width="1425"
     inkscape:window-height="1273"
     inkscape:window-x="305"
     inkscape:window-y="396"
     inkscape:window-maximized="0" />
  <metadata
     id="metadata2927">
    <rdf:RDF>
      <cc:Work
         rdf:about="">
        <dc:format>image/svg+xml</dc:format>
        <dc:type
           rdf:resource="http://purl.org/dc/dcmitype/StillImage" />
        <dc:title></dc:title>
      </cc:Work>
    </rdf:RDF>
  </metadata>
  <g
     inkscape:label="Layer 1"
     inkscape:groupmode="layer"
     id="layer1">
    <path
       sodipodi:type="spiral"
       style="fill:none;fill-rule:evenodd;stroke:#000000;stroke-width:0.05"
       id="path3475"
       sodipodi:cx="0"
       sodipodi:cy="0"
       sodipodi:expansion="1"
       sodipodi:revolution="409.83606"
       sodipodi:radius="82"
       sodipodi:argument="0"
       sodipodi:t0="0.96340001"
       d="M 40.66665,-67.727646 C 77.582464,-45.582012 89.914068,3.7800997 67.770529,40.692399 45.610869,77.631573 -3.7824888,89.970978 -40.718148,67.813413 -77.680682,45.639726 -90.027888,-3.7848779 -67.856296,-40.743898 -45.668583,-77.729791 3.787267,-90.084797 40.769647,-67.89918 77.7789,-45.69744 90.141707,3.7896561 67.942063,40.795396 45.726297,77.828009 -3.7920451,90.198617 -40.821145,67.984946 -77.877118,45.755154 -90.255527,-3.7944342 -68.02783,-40.846894 -45.784011,-77.926227 3.7968233,-90.312436 40.872643,-68.070713 77.975336,-45.812868 90.369346,3.7992124 68.113597,40.898392 45.841725,78.024445 -3.8016015,90.426256 -40.924141,68.15648 -78.073554,45.870583 -90.483166,-3.8039906 -68.199363,-40.94989 -45.89944,-78.122664 3.8063797,-90.540075 40.975639,-68.242247 78.171773,-45.928297 90.596985,3.8087688 68.28513,41.001388 45.957154,78.220882 -3.8111579,90.653895 -41.027137,68.328014 -78.269991,45.986011 -90.710805,-3.813547 -68.370897,-41.052886 -46.014868,-78.3191 3.8159361,-90.767714 41.078636,-68.41378 78.368209,-46.043725 90.824624,3.8183252 68.456664,41.104385 46.072582,78.417318 -3.8207143,90.881534 -41.130134,68.499547 -78.466427,46.101439 -90.938444,-3.8231034 -68.542431,-41.155883 -46.130296,-78.515536 3.8254924,-90.995353 41.181632,-68.585314 78.564645,-46.159153 91.052263,3.8278815 68.628197,41.207381 46.18801,78.613754 -3.8302706,91.109173 -41.23313,68.671081 -78.662863,46.216867 -91.166083,-3.8326597 -68.713964,-41.258879 -46.245724,-78.711972 3.8350488,-91.222992 41.284628,-68.756848 78.761081,-46.274581 91.279902,3.8374379 68.799731,41.310377 46.303438,78.81019 -3.839827,91.336812 -41.336126,68.842614 -78.859299,46.332295 -91.393722,-3.8422161 -68.885498,-41.361875 -46.361152,-78.908408 3.8446052,-91.450631 41.387624,-68.928381 78.957517,-46.390009 91.507541,3.8469943 68.971265,41.413373 46.418866,79.006626 -3.8493834,91.564451 -41.439123,69.014148 -79.055735,46.447723 -91.621361,-3.8517725 -69.057031,-41.464872 -46.47658,-79.104845 3.8541616,-91.67827 41.490621,-69.099915 79.153954,-46.505437 91.73518,3.8565507 69.142798,41.51637 46.534294,79.203063 -3.8589397,91.79209 -41.542119,69.185681 -79.252172,46.563151 -91.849,-3.8613288 -69.228565,-41.567868 -46.592008,-79.301281 3.8637179,-91.905909 41.593617,-69.271448 79.35039,-46.620866 91.962819,3.866107 69.314332,41.619366 46.649723,79.399499 -3.8684961,92.019729 -41.645115,69.357215 -79.448608,46.67858 -92.076639,-3.8708852 -69.400098,-41.670864 -46.707437,-79.497717 3.8732743,-92.133548 41.696613,-69.442982 79.546826,-46.736294 92.190458,3.8756634 69.485865,41.722362 46.765151,79.595935 -3.8780525,92.247368 -41.748111,69.528749 -79.645044,46.794008 -92.304278,-3.8804416 -69.571632,-41.77386 -46.822865,-79.694153 3.8828307,-92.361187 41.79961,-69.614515 79.743262,-46.851722 92.418097,3.8852198 69.657399,41.825359 46.880579,79.792371 -3.8876089,92.475007 -41.851108,69.700282 -79.84148,46.909436 -92.531917,-3.8899979 -69.743166,-41.876857 -46.938293,-79.890589 3.892387,-92.588826 41.902606,-69.786049 79.939698,-46.96715 92.645736,3.8947761 69.828932,41.928355 46.996007,79.988807 -3.8971652,92.702646 -41.954104,69.871816 -80.037916,47.024864 -92.759556,-3.8995543 -69.914699,-41.979853 -47.053721,-80.087026 3.9019434,-92.816465 42.005602,-69.957583 80.136135,-47.082578 92.873375,3.9043325 70.000466,42.031351 47.111435,80.185244 -3.9067216,92.930285 -42.0571,70.043349 -80.234353,47.140292 -92.987195,-3.9091107 -70.086233,-42.082849 -47.169149,-80.283462 3.9114998,-93.044104 42.108598,-70.129116 80.332571,-47.198006 93.101014,3.9138889 70.172,42.134348 47.226863,80.38168 -3.916278,93.157924 -42.160097,70.214883 -80.430789,47.25572 -93.214834,-3.9186671 -70.257766,-42.185846 -47.28486,-80.479427 3.9198862,-93.271529 42.210358,-70.301392" />
  </g>
</svg>
