<?xml version="1.0" standalone="no"?>
<!DOCTYPE svg PUBLIC "-//W3C//DTD SVG 1.1//EN"
"http://www.w3.org/Graphics/SVG/1.1/DTD/svg11.dtd">
<svg width="8098.55" height="4298.55" viewBox="0 0 8098.55 4298.55" version="1.1"
xmlns="http://www.w3.org/2000/svg"
xmlns:xlink="http://www.w3.org/1999/xlink">
<circle cx="7249.28" cy="4049.28" r="31.4961" style=""/>
<circle cx="6709.28" cy="3669.28" r="31.4961" style=""/>
<circle cx="6709.28" cy="3169.28" r="31.4961" style=""/>
<circle cx="6509.28" cy="3169.28" r="31.4961" style=""/>
<circle cx="6309.28" cy="3169.28" r="31.4961" style=""/>
<circle cx="5409.28" cy="2369.28" r="31.4961" style=""/>
<circle cx="5409.28" cy="1769.28" r="31.4961" style=""/>
<circle cx="5609.28" cy="1169.28" r="31.4961" style=""/>
<circle cx="5909.28" cy="1169.28" r="31.4961" style=""/>
<circle cx="6109.28" cy="1169.28" r="31.4961" style=""/>
<circle cx="6309.28" cy="1169.28" r="31.4961" style=""/>
<circle cx="6509.28" cy="1169.28" r="31.4961" style=""/>
<circle cx="6109.28" cy="569.276" r="31.4961" style=""/>
<circle cx="6309.28" cy="569.276" r="31.4961" style=""/>
<circle cx="6509.28" cy="569.276" r="31.4961" style=""/>
<circle cx="6709.28" cy="569.276" r="31.4961" style=""/>
<circle cx="6449.28" cy="249.276" r="31.4961" style=""/>
<circle cx="6249.28" cy="249.276" r="31.4961" style=""/>
<circle cx="6049.28" cy="249.276" r="31.4961" style=""/>
<circle cx="5849.28" cy="249.276" r="31.4961" style=""/>
<circle cx="5609.28" cy="569.276" r="31.4961" style=""/>
<circle cx="5649.28" cy="249.276" r="31.4961" style=""/>
<circle cx="5449.28" cy="249.276" r="31.4961" style=""/>
<circle cx="5049.28" cy="249.276" r="31.4961" style=""/>
<circle cx="4849.28" cy="249.276" r="31.4961" style=""/>
<circle cx="4649.28" cy="249.276" r="31.4961" style=""/>
<circle cx="4449.28" cy="249.276" r="31.4961" style=""/>
<circle cx="4249.28" cy="249.276" r="31.4961" style=""/>
<circle cx="4049.28" cy="249.276" r="31.4961" style=""/>
<circle cx="3849.28" cy="249.276" r="31.4961" style=""/>
<circle cx="3649.28" cy="249.276" r="31.4961" style=""/>
<circle cx="3329.28" cy="249.276" r="31.4961" style=""/>
<circle cx="3129.28" cy="249.276" r="31.4961" style=""/>
<circle cx="2929.28" cy="249.276" r="31.4961" style=""/>
<circle cx="2729.28" cy="249.276" r="31.4961" style=""/>
<circle cx="2529.28" cy="249.276" r="31.4961" style=""/>
<circle cx="2329.28" cy="249.276" r="31.4961" style=""/>
<circle cx="2129.28" cy="249.276" r="31.4961" style=""/>
<circle cx="1929.28" cy="249.276" r="31.4961" style=""/>
<circle cx="1729.28" cy="249.276" r="31.4961" style=""/>
<circle cx="1529.28" cy="249.276" r="31.4961" style=""/>
<circle cx="1309.28" cy="869.276" r="31.4961" style=""/>
<circle cx="609.276" cy="269.276" r="31.4961" style=""/>
<circle cx="609.276" cy="669.276" r="31.4961" style=""/>
<circle cx="909.276" cy="869.276" r="31.4961" style=""/>
<circle cx="909.276" cy="1069.28" r="31.4961" style=""/>
<circle cx="509.276" cy="1069.28" r="31.4961" style=""/>
<circle cx="509.276" cy="1269.28" r="31.4961" style=""/>
<circle cx="509.276" cy="1469.28" r="31.4961" style=""/>
<circle cx="509.276" cy="1669.28" r="31.4961" style=""/>
<circle cx="509.276" cy="1869.28" r="31.4961" style=""/>
<circle cx="509.276" cy="2069.28" r="31.4961" style=""/>
<circle cx="909.276" cy="2069.28" r="31.4961" style=""/>
<circle cx="1109.28" cy="2069.28" r="31.4961" style=""/>
<circle cx="909.276" cy="2469.28" r="31.4961" style=""/>
<circle cx="1109.28" cy="2469.28" r="31.4961" style=""/>
<circle cx="1709.28" cy="2069.28" r="31.4961" style=""/>
<circle cx="1709.28" cy="2469.28" r="31.4961" style=""/>
<circle cx="1909.28" cy="2969.28" r="31.4961" style=""/>
<circle cx="2309.28" cy="2969.28" r="31.4961" style=""/>
<circle cx="2249.28" cy="4049.28" r="31.4961" style=""/>
<circle cx="2449.28" cy="4049.28" r="31.4961" style=""/>
<circle cx="2649.28" cy="4049.28" r="31.4961" style=""/>
<circle cx="2849.28" cy="4049.28" r="31.4961" style=""/>
<circle cx="3049.28" cy="4049.28" r="31.4961" style=""/>
<circle cx="3249.28" cy="4049.28" r="31.4961" style=""/>
<circle cx="3449.28" cy="4049.28" r="31.4961" style=""/>
<circle cx="3649.28" cy="4049.28" r="31.4961" style=""/>
<circle cx="3409.28" cy="3769.28" r="31.4961" style=""/>
<circle cx="3609.28" cy="3569.28" r="31.4961" style=""/>
<circle cx="3809.28" cy="3369.28" r="31.4961" style=""/>
<circle cx="4009.28" cy="3069.28" r="31.4961" style=""/>
<circle cx="4009.28" cy="2869.28" r="31.4961" style=""/>
<circle cx="4209.28" cy="2569.28" r="31.4961" style=""/>
<circle cx="3809.28" cy="2369.28" r="31.4961" style=""/>
<circle cx="4209.28" cy="1969.28" r="31.4961" style=""/>
<circle cx="3809.28" cy="1769.28" r="31.4961" style=""/>
<circle cx="3309.28" cy="1169.28" r="31.4961" style=""/>
<circle cx="3109.28" cy="1169.28" r="31.4961" style=""/>
<circle cx="2909.28" cy="1369.28" r="31.4961" style=""/>
<circle cx="2909.28" cy="1769.28" r="31.4961" style=""/>
<circle cx="2509.28" cy="1769.28" r="31.4961" style=""/>
<circle cx="2509.28" cy="1569.28" r="31.4961" style=""/>
<circle cx="2509.28" cy="1369.28" r="31.4961" style=""/>
<circle cx="2209.28" cy="1169.28" r="31.4961" style=""/>
<circle cx="1709.28" cy="1469.28" r="31.4961" style=""/>
<circle cx="1109.28" cy="1469.28" r="31.4961" style=""/>
<circle cx="909.276" cy="1469.28" r="31.4961" style=""/>
<circle cx="1109.28" cy="1069.28" r="31.4961" style=""/>
<circle cx="1709.28" cy="1069.28" r="31.4961" style=""/>
<circle cx="2209.28" cy="769.276" r="31.4961" style=""/>
<circle cx="2509.28" cy="969.276" r="31.4961" style=""/>
<circle cx="2509.28" cy="769.276" r="31.4961" style=""/>
<circle cx="2509.28" cy="569.276" r="31.4961" style=""/>
<circle cx="3109.28" cy="569.276" r="31.4961" style=""/>
<circle cx="3309.28" cy="569.276" r="31.4961" style=""/>
<circle cx="5209.28" cy="2769.28" r="31.4961" style=""/>
<circle cx="4809.28" cy="3069.28" r="31.4961" style=""/>
<circle cx="4809.28" cy="2869.28" r="31.4961" style=""/>
<circle cx="4609.28" cy="3069.28" r="31.4961" style=""/>
<circle cx="4609.28" cy="2869.28" r="31.4961" style=""/>
<circle cx="4409.28" cy="3069.28" r="31.4961" style=""/>
<circle cx="4409.28" cy="2869.28" r="31.4961" style=""/>
<circle cx="4209.28" cy="2869.28" r="31.4961" style=""/>
<circle cx="4209.28" cy="3069.28" r="31.4961" style=""/>
<circle cx="4409.28" cy="3369.28" r="31.4961" style=""/>
<circle cx="4209.28" cy="3569.28" r="31.4961" style=""/>
<circle cx="4009.28" cy="3769.28" r="31.4961" style=""/>
<circle cx="4049.28" cy="4049.28" r="31.4961" style=""/>
<circle cx="4249.28" cy="4049.28" r="31.4961" style=""/>
<circle cx="4449.28" cy="4049.28" r="31.4961" style=""/>
<circle cx="4649.28" cy="4049.28" r="31.4961" style=""/>
<circle cx="4609.28" cy="3769.28" r="31.4961" style=""/>
<circle cx="4809.28" cy="3569.28" r="31.4961" style=""/>
<circle cx="4849.28" cy="4049.28" r="31.4961" style=""/>
<circle cx="5049.28" cy="4049.28" r="31.4961" style=""/>
<circle cx="5249.28" cy="4049.28" r="31.4961" style=""/>
<circle cx="5449.28" cy="4049.28" r="31.4961" style=""/>
<circle cx="5209.28" cy="3769.28" r="31.4961" style=""/>
<circle cx="5409.28" cy="3569.28" r="31.4961" style=""/>
<circle cx="5209.28" cy="3369.28" r="31.4961" style=""/>
<circle cx="5709.28" cy="3169.28" r="31.4961" style=""/>
<circle cx="5909.28" cy="3169.28" r="31.4961" style=""/>
<circle cx="6109.28" cy="3169.28" r="31.4961" style=""/>
<circle cx="6509.28" cy="3669.28" r="31.4961" style=""/>
<circle cx="6309.28" cy="3669.28" r="31.4961" style=""/>
<circle cx="6109.28" cy="3669.28" r="31.4961" style=""/>
<circle cx="5909.28" cy="3669.28" r="31.4961" style=""/>
<circle cx="5709.28" cy="3669.28" r="31.4961" style=""/>
<circle cx="5849.28" cy="4049.28" r="31.4961" style=""/>
<circle cx="6049.28" cy="4049.28" r="31.4961" style=""/>
<circle cx="6249.28" cy="4049.28" r="31.4961" style=""/>
<circle cx="6449.28" cy="4049.28" r="31.4961" style=""/>
<circle cx="6649.28" cy="4049.28" r="31.4961" style=""/>
<circle cx="6849.28" cy="4049.28" r="31.4961" style=""/>
<circle cx="7049.28" cy="4049.28" r="31.4961" style=""/>
<circle cx="7449.28" cy="3649.28" r="31.4961" style=""/>
<circle cx="7649.28" cy="3649.28" r="31.4961" style=""/>
<circle cx="7649.28" cy="3449.28" r="31.4961" style=""/>
<circle cx="7449.28" cy="3449.28" r="31.4961" style=""/>
<circle cx="7649.28" cy="3249.28" r="31.4961" style=""/>
<circle cx="7649.28" cy="3049.28" r="31.4961" style=""/>
<circle cx="7449.28" cy="3249.28" r="31.4961" style=""/>
<circle cx="7449.28" cy="3049.28" r="31.4961" style=""/>
<circle cx="7649.28" cy="2849.28" r="31.4961" style=""/>
<circle cx="7649.28" cy="2649.28" r="31.4961" style=""/>
<circle cx="7449.28" cy="2849.28" r="31.4961" style=""/>
<circle cx="7449.28" cy="2649.28" r="31.4961" style=""/>
<circle cx="7649.28" cy="2449.28" r="31.4961" style=""/>
<circle cx="7649.28" cy="2249.28" r="31.4961" style=""/>
<circle cx="7449.28" cy="2449.28" r="31.4961" style=""/>
<circle cx="7449.28" cy="2249.28" r="31.4961" style=""/>
<circle cx="7649.28" cy="2049.28" r="31.4961" style=""/>
<circle cx="7449.28" cy="2049.28" r="31.4961" style=""/>
<circle cx="7649.28" cy="1849.28" r="31.4961" style=""/>
<circle cx="7449.28" cy="1849.28" r="31.4961" style=""/>
<circle cx="7649.28" cy="1649.28" r="31.4961" style=""/>
<circle cx="7449.28" cy="1649.28" r="31.4961" style=""/>
<circle cx="7649.28" cy="1449.28" r="31.4961" style=""/>
<circle cx="7649.28" cy="1249.28" r="31.4961" style=""/>
<circle cx="7449.28" cy="1449.28" r="31.4961" style=""/>
<circle cx="7449.28" cy="1249.28" r="31.4961" style=""/>
<circle cx="7649.28" cy="1049.28" r="31.4961" style=""/>
<circle cx="7649.28" cy="849.276" r="31.4961" style=""/>
<circle cx="7449.28" cy="1049.28" r="31.4961" style=""/>
<circle cx="7449.28" cy="849.276" r="31.4961" style=""/>
<circle cx="7649.28" cy="649.276" r="31.4961" style=""/>
<circle cx="7649.28" cy="449.276" r="31.4961" style=""/>
<circle cx="7649.28" cy="249.276" r="31.4961" style=""/>
<circle cx="7449.28" cy="249.276" r="31.4961" style=""/>
<circle cx="7449.28" cy="449.276" r="31.4961" style=""/>
<circle cx="7449.28" cy="649.276" r="31.4961" style=""/>
<circle cx="6849.28" cy="249.276" r="31.4961" style=""/>
<circle cx="6649.28" cy="249.276" r="31.4961" style=""/>
</svg>
