<?xml version="1.0" standalone="no"?>
<!DOCTYPE svg PUBLIC "-//W3C//DTD SVG 1.1//EN"
"http://www.w3.org/Graphics/SVG/1.1/DTD/svg11.dtd">
<svg width="8000" height="4200" viewBox="0 0 8000 4200" version="1.1"
xmlns="http://www.w3.org/2000/svg"
xmlns:xlink="http://www.w3.org/1999/xlink">
<g fill-rule="evenodd"><path d="M 781.26,1498.74 L 781.26,1341.26 L 938.74,1341.26 L 938.74,1498.74 L 781.26,1498.74 z " style="fill-opacity:1.000000;fill:rgb(103,198,105);stroke:rgb(0,0,0);stroke-width:2"/></g>
<g fill-rule="evenodd"><path d="M 781.26,2498.74 L 781.26,2341.26 L 938.74,2341.26 L 938.74,2498.74 L 781.26,2498.74 z " style="fill-opacity:1.000000;fill:rgb(115,81,255);stroke:rgb(0,0,0);stroke-width:2"/></g>
<g fill-rule="evenodd"><path d="M 7400,3468 L 7386.31,3466.61 L 7373.18,3462.49 L 7361.15,3455.81 L 7350.72,3446.85 L 7342.29,3435.97 L 7336.23,3423.62 L 7332.79,3410.3 L 7332.09,3396.56 L 7334.17,3382.96 L 7338.95,3370.05 L 7346.23,3358.38 L 7355.71,3348.41 L 7367,3340.55 L 7379.64,3335.12 L 7393.12,3332.35 L 7400,3332 L 7413.69,3333.39 L 7426.82,3337.51 L 7438.85,3344.19 L 7449.28,3353.15 L 7457.71,3364.03 L 7463.77,3376.38 L 7467.21,3389.7 L 7467.91,3403.44 L 7465.83,3417.04 L 7461.05,3429.95 L 7453.77,3441.62 L 7444.29,3451.59 L 7433,3459.45 L 7420.36,3464.88 L 7406.88,3467.65 L 7400,3468 z " style="fill-opacity:1.000000;fill:rgb(74,236,41);stroke:rgb(0,0,0);stroke-width:2"/></g>
<g fill-rule="evenodd"><path d="M 7600,3468 L 7586.31,3466.61 L 7573.18,3462.49 L 7561.15,3455.81 L 7550.72,3446.85 L 7542.29,3435.97 L 7536.23,3423.62 L 7532.79,3410.3 L 7532.09,3396.56 L 7534.17,3382.96 L 7538.95,3370.05 L 7546.23,3358.38 L 7555.71,3348.41 L 7567,3340.55 L 7579.64,3335.12 L 7593.12,3332.35 L 7600,3332 L 7613.69,3333.39 L 7626.82,3337.51 L 7638.85,3344.19 L 7649.28,3353.15 L 7657.71,3364.03 L 7663.77,3376.38 L 7667.21,3389.7 L 7667.91,3403.44 L 7665.83,3417.04 L 7661.05,3429.95 L 7653.77,3441.62 L 7644.29,3451.59 L 7633,3459.45 L 7620.36,3464.88 L 7606.88,3467.65 L 7600,3468 z " style="fill-opacity:1.000000;fill:rgb(205,186,171);stroke:rgb(0,0,0);stroke-width:2"/></g>
<g fill-rule="evenodd"><path d="M 7400,3268 L 7386.31,3266.61 L 7373.18,3262.49 L 7361.15,3255.81 L 7350.72,3246.85 L 7342.29,3235.97 L 7336.23,3223.62 L 7332.79,3210.3 L 7332.09,3196.56 L 7334.17,3182.96 L 7338.95,3170.05 L 7346.23,3158.38 L 7355.71,3148.41 L 7367,3140.55 L 7379.64,3135.12 L 7393.12,3132.35 L 7400,3132 L 7413.69,3133.39 L 7426.82,3137.51 L 7438.85,3144.19 L 7449.28,3153.15 L 7457.71,3164.03 L 7463.77,3176.38 L 7467.21,3189.7 L 7467.91,3203.44 L 7465.83,3217.04 L 7461.05,3229.95 L 7453.77,3241.62 L 7444.29,3251.59 L 7433,3259.45 L 7420.36,3264.88 L 7406.88,3267.65 L 7400,3268 z " style="fill-opacity:1.000000;fill:rgb(242,251,227);stroke:rgb(0,0,0);stroke-width:2"/></g>
<g fill-rule="evenodd"><path d="M 7600,3268 L 7586.31,3266.61 L 7573.18,3262.49 L 7561.15,3255.81 L 7550.72,3246.85 L 7542.29,3235.97 L 7536.23,3223.62 L 7532.79,3210.3 L 7532.09,3196.56 L 7534.17,3182.96 L 7538.95,3170.05 L 7546.23,3158.38 L 7555.71,3148.41 L 7567,3140.55 L 7579.64,3135.12 L 7593.12,3132.35 L 7600,3132 L 7613.69,3133.39 L 7626.82,3137.51 L 7638.85,3144.19 L 7649.28,3153.15 L 7657.71,3164.03 L 7663.77,3176.38 L 7667.21,3189.7 L 7667.91,3203.44 L 7665.83,3217.04 L 7661.05,3229.95 L 7653.77,3241.62 L 7644.29,3251.59 L 7633,3259.45 L 7620.36,3264.88 L 7606.88,3267.65 L 7600,3268 z " style="fill-opacity:1.000000;fill:rgb(70,124,194);stroke:rgb(0,0,0);stroke-width:2"/></g>
<g fill-rule="evenodd"><path d="M 7400,3068 L 7386.31,3066.61 L 7373.18,3062.49 L 7361.15,3055.81 L 7350.72,3046.85 L 7342.29,3035.97 L 7336.23,3023.62 L 7332.79,3010.3 L 7332.09,2996.56 L 7334.17,2982.96 L 7338.95,2970.05 L 7346.23,2958.38 L 7355.71,2948.41 L 7367,2940.55 L 7379.64,2935.12 L 7393.12,2932.35 L 7400,2932 L 7413.69,2933.39 L 7426.82,2937.51 L 7438.85,2944.19 L 7449.28,2953.15 L 7457.71,2964.03 L 7463.77,2976.38 L 7467.21,2989.7 L 7467.91,3003.44 L 7465.83,3017.04 L 7461.05,3029.95 L 7453.77,3041.62 L 7444.29,3051.59 L 7433,3059.45 L 7420.36,3064.88 L 7406.88,3067.65 L 7400,3068 z " style="fill-opacity:1.000000;fill:rgb(84,248,27);stroke:rgb(0,0,0);stroke-width:2"/></g>
<g fill-rule="evenodd"><path d="M 7600,3068 L 7586.31,3066.61 L 7573.18,3062.49 L 7561.15,3055.81 L 7550.72,3046.85 L 7542.29,3035.97 L 7536.23,3023.62 L 7532.79,3010.3 L 7532.09,2996.56 L 7534.17,2982.96 L 7538.95,2970.05 L 7546.23,2958.38 L 7555.71,2948.41 L 7567,2940.55 L 7579.64,2935.12 L 7593.12,2932.35 L 7600,2932 L 7613.69,2933.39 L 7626.82,2937.51 L 7638.85,2944.19 L 7649.28,2953.15 L 7657.71,2964.03 L 7663.77,2976.38 L 7667.21,2989.7 L 7667.91,3003.44 L 7665.83,3017.04 L 7661.05,3029.95 L 7653.77,3041.62 L 7644.29,3051.59 L 7633,3059.45 L 7620.36,3064.88 L 7606.88,3067.65 L 7600,3068 z " style="fill-opacity:1.000000;fill:rgb(232,231,141);stroke:rgb(0,0,0);stroke-width:2"/></g>
<g fill-rule="evenodd"><path d="M 7400,2868 L 7386.31,2866.61 L 7373.18,2862.49 L 7361.15,2855.81 L 7350.72,2846.85 L 7342.29,2835.97 L 7336.23,2823.62 L 7332.79,2810.3 L 7332.09,2796.56 L 7334.17,2782.96 L 7338.95,2770.05 L 7346.23,2758.38 L 7355.71,2748.41 L 7367,2740.55 L 7379.64,2735.12 L 7393.12,2732.35 L 7400,2732 L 7413.69,2733.39 L 7426.82,2737.51 L 7438.85,2744.19 L 7449.28,2753.15 L 7457.71,2764.03 L 7463.77,2776.38 L 7467.21,2789.7 L 7467.91,2803.44 L 7465.83,2817.04 L 7461.05,2829.95 L 7453.77,2841.62 L 7444.29,2851.59 L 7433,2859.45 L 7420.36,2864.88 L 7406.88,2867.65 L 7400,2868 z " style="fill-opacity:1.000000;fill:rgb(118,90,46);stroke:rgb(0,0,0);stroke-width:2"/></g>
<g fill-rule="evenodd"><path d="M 7600,2868 L 7586.31,2866.61 L 7573.18,2862.49 L 7561.15,2855.81 L 7550.72,2846.85 L 7542.29,2835.97 L 7536.23,2823.62 L 7532.79,2810.3 L 7532.09,2796.56 L 7534.17,2782.96 L 7538.95,2770.05 L 7546.23,2758.38 L 7555.71,2748.41 L 7567,2740.55 L 7579.64,2735.12 L 7593.12,2732.35 L 7600,2732 L 7613.69,2733.39 L 7626.82,2737.51 L 7638.85,2744.19 L 7649.28,2753.15 L 7657.71,2764.03 L 7663.77,2776.38 L 7667.21,2789.7 L 7667.91,2803.44 L 7665.83,2817.04 L 7661.05,2829.95 L 7653.77,2841.62 L 7644.29,2851.59 L 7633,2859.45 L 7620.36,2864.88 L 7606.88,2867.65 L 7600,2868 z " style="fill-opacity:1.000000;fill:rgb(99,51,159);stroke:rgb(0,0,0);stroke-width:2"/></g>
<g fill-rule="evenodd"><path d="M 7400,2668 L 7386.31,2666.61 L 7373.18,2662.49 L 7361.15,2655.81 L 7350.72,2646.85 L 7342.29,2635.97 L 7336.23,2623.62 L 7332.79,2610.3 L 7332.09,2596.56 L 7334.17,2582.96 L 7338.95,2570.05 L 7346.23,2558.38 L 7355.71,2548.41 L 7367,2540.55 L 7379.64,2535.12 L 7393.12,2532.35 L 7400,2532 L 7413.69,2533.39 L 7426.82,2537.51 L 7438.85,2544.19 L 7449.28,2553.15 L 7457.71,2564.03 L 7463.77,2576.38 L 7467.21,2589.7 L 7467.91,2603.44 L 7465.83,2617.04 L 7461.05,2629.95 L 7453.77,2641.62 L 7444.29,2651.59 L 7433,2659.45 L 7420.36,2664.88 L 7406.88,2667.65 L 7400,2668 z " style="fill-opacity:1.000000;fill:rgb(201,154,102);stroke:rgb(0,0,0);stroke-width:2"/></g>
<g fill-rule="evenodd"><path d="M 7600,2668 L 7586.31,2666.61 L 7573.18,2662.49 L 7561.15,2655.81 L 7550.72,2646.85 L 7542.29,2635.97 L 7536.23,2623.62 L 7532.79,2610.3 L 7532.09,2596.56 L 7534.17,2582.96 L 7538.95,2570.05 L 7546.23,2558.38 L 7555.71,2548.41 L 7567,2540.55 L 7579.64,2535.12 L 7593.12,2532.35 L 7600,2532 L 7613.69,2533.39 L 7626.82,2537.51 L 7638.85,2544.19 L 7649.28,2553.15 L 7657.71,2564.03 L 7663.77,2576.38 L 7667.21,2589.7 L 7667.91,2603.44 L 7665.83,2617.04 L 7661.05,2629.95 L 7653.77,2641.62 L 7644.29,2651.59 L 7633,2659.45 L 7620.36,2664.88 L 7606.88,2667.65 L 7600,2668 z " style="fill-opacity:1.000000;fill:rgb(50,13,183);stroke:rgb(0,0,0);stroke-width:2"/></g>
<g fill-rule="evenodd"><path d="M 7400,2468 L 7386.31,2466.61 L 7373.18,2462.49 L 7361.15,2455.81 L 7350.72,2446.85 L 7342.29,2435.97 L 7336.23,2423.62 L 7332.79,2410.3 L 7332.09,2396.56 L 7334.17,2382.96 L 7338.95,2370.05 L 7346.23,2358.38 L 7355.71,2348.41 L 7367,2340.55 L 7379.64,2335.12 L 7393.12,2332.35 L 7400,2332 L 7413.69,2333.39 L 7426.82,2337.51 L 7438.85,2344.19 L 7449.28,2353.15 L 7457.71,2364.03 L 7463.77,2376.38 L 7467.21,2389.7 L 7467.91,2403.44 L 7465.83,2417.04 L 7461.05,2429.95 L 7453.77,2441.62 L 7444.29,2451.59 L 7433,2459.45 L 7420.36,2464.88 L 7406.88,2467.65 L 7400,2468 z " style="fill-opacity:1.000000;fill:rgb(49,88,163);stroke:rgb(0,0,0);stroke-width:2"/></g>
<g fill-rule="evenodd"><path d="M 7600,2468 L 7586.31,2466.61 L 7573.18,2462.49 L 7561.15,2455.81 L 7550.72,2446.85 L 7542.29,2435.97 L 7536.23,2423.62 L 7532.79,2410.3 L 7532.09,2396.56 L 7534.17,2382.96 L 7538.95,2370.05 L 7546.23,2358.38 L 7555.71,2348.41 L 7567,2340.55 L 7579.64,2335.12 L 7593.12,2332.35 L 7600,2332 L 7613.69,2333.39 L 7626.82,2337.51 L 7638.85,2344.19 L 7649.28,2353.15 L 7657.71,2364.03 L 7663.77,2376.38 L 7667.21,2389.7 L 7667.91,2403.44 L 7665.83,2417.04 L 7661.05,2429.95 L 7653.77,2441.62 L 7644.29,2451.59 L 7633,2459.45 L 7620.36,2464.88 L 7606.88,2467.65 L 7600,2468 z " style="fill-opacity:1.000000;fill:rgb(90,37,93);stroke:rgb(0,0,0);stroke-width:2"/></g>
<g fill-rule="evenodd"><path d="M 7400,2268 L 7386.31,2266.61 L 7373.18,2262.49 L 7361.15,2255.81 L 7350.72,2246.85 L 7342.29,2235.97 L 7336.23,2223.62 L 7332.79,2210.3 L 7332.09,2196.56 L 7334.17,2182.96 L 7338.95,2170.05 L 7346.23,2158.38 L 7355.71,2148.41 L 7367,2140.55 L 7379.64,2135.12 L 7393.12,2132.35 L 7400,2132 L 7413.69,2133.39 L 7426.82,2137.51 L 7438.85,2144.19 L 7449.28,2153.15 L 7457.71,2164.03 L 7463.77,2176.38 L 7467.21,2189.7 L 7467.91,2203.44 L 7465.83,2217.04 L 7461.05,2229.95 L 7453.77,2241.62 L 7444.29,2251.59 L 7433,2259.45 L 7420.36,2264.88 L 7406.88,2267.65 L 7400,2268 z " style="fill-opacity:1.000000;fill:rgb(5,23,88);stroke:rgb(0,0,0);stroke-width:2"/></g>
<g fill-rule="evenodd"><path d="M 7600,2268 L 7586.31,2266.61 L 7573.18,2262.49 L 7561.15,2255.81 L 7550.72,2246.85 L 7542.29,2235.97 L 7536.23,2223.62 L 7532.79,2210.3 L 7532.09,2196.56 L 7534.17,2182.96 L 7538.95,2170.05 L 7546.23,2158.38 L 7555.71,2148.41 L 7567,2140.55 L 7579.64,2135.12 L 7593.12,2132.35 L 7600,2132 L 7613.69,2133.39 L 7626.82,2137.51 L 7638.85,2144.19 L 7649.28,2153.15 L 7657.71,2164.03 L 7663.77,2176.38 L 7667.21,2189.7 L 7667.91,2203.44 L 7665.83,2217.04 L 7661.05,2229.95 L 7653.77,2241.62 L 7644.29,2251.59 L 7633,2259.45 L 7620.36,2264.88 L 7606.88,2267.65 L 7600,2268 z " style="fill-opacity:1.000000;fill:rgb(233,94,212);stroke:rgb(0,0,0);stroke-width:2"/></g>
<g fill-rule="evenodd"><path d="M 7400,2068 L 7386.31,2066.61 L 7373.18,2062.49 L 7361.15,2055.81 L 7350.72,2046.85 L 7342.29,2035.97 L 7336.23,2023.62 L 7332.79,2010.3 L 7332.09,1996.56 L 7334.17,1982.96 L 7338.95,1970.05 L 7346.23,1958.38 L 7355.71,1948.41 L 7367,1940.55 L 7379.64,1935.12 L 7393.12,1932.35 L 7400,1932 L 7413.69,1933.39 L 7426.82,1937.51 L 7438.85,1944.19 L 7449.28,1953.15 L 7457.71,1964.03 L 7463.77,1976.38 L 7467.21,1989.7 L 7467.91,2003.44 L 7465.83,2017.04 L 7461.05,2029.95 L 7453.77,2041.62 L 7444.29,2051.59 L 7433,2059.45 L 7420.36,2064.88 L 7406.88,2067.65 L 7400,2068 z " style="fill-opacity:1.000000;fill:rgb(171,178,205);stroke:rgb(0,0,0);stroke-width:2"/></g>
<g fill-rule="evenodd"><path d="M 7600,2068 L 7586.31,2066.61 L 7573.18,2062.49 L 7561.15,2055.81 L 7550.72,2046.85 L 7542.29,2035.97 L 7536.23,2023.62 L 7532.79,2010.3 L 7532.09,1996.56 L 7534.17,1982.96 L 7538.95,1970.05 L 7546.23,1958.38 L 7555.71,1948.41 L 7567,1940.55 L 7579.64,1935.12 L 7593.12,1932.35 L 7600,1932 L 7613.69,1933.39 L 7626.82,1937.51 L 7638.85,1944.19 L 7649.28,1953.15 L 7657.71,1964.03 L 7663.77,1976.38 L 7667.21,1989.7 L 7667.91,2003.44 L 7665.83,2017.04 L 7661.05,2029.95 L 7653.77,2041.62 L 7644.29,2051.59 L 7633,2059.45 L 7620.36,2064.88 L 7606.88,2067.65 L 7600,2068 z " style="fill-opacity:1.000000;fill:rgb(198,155,180);stroke:rgb(0,0,0);stroke-width:2"/></g>
<g fill-rule="evenodd"><path d="M 7400,1868 L 7386.31,1866.61 L 7373.18,1862.49 L 7361.15,1855.81 L 7350.72,1846.85 L 7342.29,1835.97 L 7336.23,1823.62 L 7332.79,1810.3 L 7332.09,1796.56 L 7334.17,1782.96 L 7338.95,1770.05 L 7346.23,1758.38 L 7355.71,1748.41 L 7367,1740.55 L 7379.64,1735.12 L 7393.12,1732.35 L 7400,1732 L 7413.69,1733.39 L 7426.82,1737.51 L 7438.85,1744.19 L 7449.28,1753.15 L 7457.71,1764.03 L 7463.77,1776.38 L 7467.21,1789.7 L 7467.91,1803.44 L 7465.83,1817.04 L 7461.05,1829.95 L 7453.77,1841.62 L 7444.29,1851.59 L 7433,1859.45 L 7420.36,1864.88 L 7406.88,1867.65 L 7400,1868 z " style="fill-opacity:1.000000;fill:rgb(84,17,14);stroke:rgb(0,0,0);stroke-width:2"/></g>
<g fill-rule="evenodd"><path d="M 7600,1868 L 7586.31,1866.61 L 7573.18,1862.49 L 7561.15,1855.81 L 7550.72,1846.85 L 7542.29,1835.97 L 7536.23,1823.62 L 7532.79,1810.3 L 7532.09,1796.56 L 7534.17,1782.96 L 7538.95,1770.05 L 7546.23,1758.38 L 7555.71,1748.41 L 7567,1740.55 L 7579.64,1735.12 L 7593.12,1732.35 L 7600,1732 L 7613.69,1733.39 L 7626.82,1737.51 L 7638.85,1744.19 L 7649.28,1753.15 L 7657.71,1764.03 L 7663.77,1776.38 L 7667.21,1789.7 L 7667.91,1803.44 L 7665.83,1817.04 L 7661.05,1829.95 L 7653.77,1841.62 L 7644.29,1851.59 L 7633,1859.45 L 7620.36,1864.88 L 7606.88,1867.65 L 7600,1868 z " style="fill-opacity:1.000000;fill:rgb(130,116,65);stroke:rgb(0,0,0);stroke-width:2"/></g>
<g fill-rule="evenodd"><path d="M 7400,1668 L 7386.31,1666.61 L 7373.18,1662.49 L 7361.15,1655.81 L 7350.72,1646.85 L 7342.29,1635.97 L 7336.23,1623.62 L 7332.79,1610.3 L 7332.09,1596.56 L 7334.17,1582.96 L 7338.95,1570.05 L 7346.23,1558.38 L 7355.71,1548.41 L 7367,1540.55 L 7379.64,1535.12 L 7393.12,1532.35 L 7400,1532 L 7413.69,1533.39 L 7426.82,1537.51 L 7438.85,1544.19 L 7449.28,1553.15 L 7457.71,1564.03 L 7463.77,1576.38 L 7467.21,1589.7 L 7467.91,1603.44 L 7465.83,1617.04 L 7461.05,1629.95 L 7453.77,1641.62 L 7444.29,1651.59 L 7433,1659.45 L 7420.36,1664.88 L 7406.88,1667.65 L 7400,1668 z " style="fill-opacity:1.000000;fill:rgb(33,61,220);stroke:rgb(0,0,0);stroke-width:2"/></g>
<g fill-rule="evenodd"><path d="M 7600,1668 L 7586.31,1666.61 L 7573.18,1662.49 L 7561.15,1655.81 L 7550.72,1646.85 L 7542.29,1635.97 L 7536.23,1623.62 L 7532.79,1610.3 L 7532.09,1596.56 L 7534.17,1582.96 L 7538.95,1570.05 L 7546.23,1558.38 L 7555.71,1548.41 L 7567,1540.55 L 7579.64,1535.12 L 7593.12,1532.35 L 7600,1532 L 7613.69,1533.39 L 7626.82,1537.51 L 7638.85,1544.19 L 7649.28,1553.15 L 7657.71,1564.03 L 7663.77,1576.38 L 7667.21,1589.7 L 7667.91,1603.44 L 7665.83,1617.04 L 7661.05,1629.95 L 7653.77,1641.62 L 7644.29,1651.59 L 7633,1659.45 L 7620.36,1664.88 L 7606.88,1667.65 L 7600,1668 z " style="fill-opacity:1.000000;fill:rgb(135,112,233);stroke:rgb(0,0,0);stroke-width:2"/></g>
<g fill-rule="evenodd"><path d="M 7400,1468 L 7386.31,1466.61 L 7373.18,1462.49 L 7361.15,1455.81 L 7350.72,1446.85 L 7342.29,1435.97 L 7336.23,1423.62 L 7332.79,1410.3 L 7332.09,1396.56 L 7334.17,1382.96 L 7338.95,1370.05 L 7346.23,1358.38 L 7355.71,1348.41 L 7367,1340.55 L 7379.64,1335.12 L 7393.12,1332.35 L 7400,1332 L 7413.69,1333.39 L 7426.82,1337.51 L 7438.85,1344.19 L 7449.28,1353.15 L 7457.71,1364.03 L 7463.77,1376.38 L 7467.21,1389.7 L 7467.91,1403.44 L 7465.83,1417.04 L 7461.05,1429.95 L 7453.77,1441.62 L 7444.29,1451.59 L 7433,1459.45 L 7420.36,1464.88 L 7406.88,1467.65 L 7400,1468 z " style="fill-opacity:1.000000;fill:rgb(62,161,65);stroke:rgb(0,0,0);stroke-width:2"/></g>
<g fill-rule="evenodd"><path d="M 7600,1468 L 7586.31,1466.61 L 7573.18,1462.49 L 7561.15,1455.81 L 7550.72,1446.85 L 7542.29,1435.97 L 7536.23,1423.62 L 7532.79,1410.3 L 7532.09,1396.56 L 7534.17,1382.96 L 7538.95,1370.05 L 7546.23,1358.38 L 7555.71,1348.41 L 7567,1340.55 L 7579.64,1335.12 L 7593.12,1332.35 L 7600,1332 L 7613.69,1333.39 L 7626.82,1337.51 L 7638.85,1344.19 L 7649.28,1353.15 L 7657.71,1364.03 L 7663.77,1376.38 L 7667.21,1389.7 L 7667.91,1403.44 L 7665.83,1417.04 L 7661.05,1429.95 L 7653.77,1441.62 L 7644.29,1451.59 L 7633,1459.45 L 7620.36,1464.88 L 7606.88,1467.65 L 7600,1468 z " style="fill-opacity:1.000000;fill:rgb(225,252,103);stroke:rgb(0,0,0);stroke-width:2"/></g>
<g fill-rule="evenodd"><path d="M 7400,1268 L 7386.31,1266.61 L 7373.18,1262.49 L 7361.15,1255.81 L 7350.72,1246.85 L 7342.29,1235.97 L 7336.23,1223.62 L 7332.79,1210.3 L 7332.09,1196.56 L 7334.17,1182.96 L 7338.95,1170.05 L 7346.23,1158.38 L 7355.71,1148.41 L 7367,1140.55 L 7379.64,1135.12 L 7393.12,1132.35 L 7400,1132 L 7413.69,1133.39 L 7426.82,1137.51 L 7438.85,1144.19 L 7449.28,1153.15 L 7457.71,1164.03 L 7463.77,1176.38 L 7467.21,1189.7 L 7467.91,1203.44 L 7465.83,1217.04 L 7461.05,1229.95 L 7453.77,1241.62 L 7444.29,1251.59 L 7433,1259.45 L 7420.36,1264.88 L 7406.88,1267.65 L 7400,1268 z " style="fill-opacity:1.000000;fill:rgb(62,1,126);stroke:rgb(0,0,0);stroke-width:2"/></g>
<g fill-rule="evenodd"><path d="M 7600,1268 L 7586.31,1266.61 L 7573.18,1262.49 L 7561.15,1255.81 L 7550.72,1246.85 L 7542.29,1235.97 L 7536.23,1223.62 L 7532.79,1210.3 L 7532.09,1196.56 L 7534.17,1182.96 L 7538.95,1170.05 L 7546.23,1158.38 L 7555.71,1148.41 L 7567,1140.55 L 7579.64,1135.12 L 7593.12,1132.35 L 7600,1132 L 7613.69,1133.39 L 7626.82,1137.51 L 7638.85,1144.19 L 7649.28,1153.15 L 7657.71,1164.03 L 7663.77,1176.38 L 7667.21,1189.7 L 7667.91,1203.44 L 7665.83,1217.04 L 7661.05,1229.95 L 7653.77,1241.62 L 7644.29,1251.59 L 7633,1259.45 L 7620.36,1264.88 L 7606.88,1267.65 L 7600,1268 z " style="fill-opacity:1.000000;fill:rgb(151,234,220);stroke:rgb(0,0,0);stroke-width:2"/></g>
<g fill-rule="evenodd"><path d="M 7400,1068 L 7386.31,1066.61 L 7373.18,1062.49 L 7361.15,1055.81 L 7350.72,1046.85 L 7342.29,1035.97 L 7336.23,1023.62 L 7332.79,1010.3 L 7332.09,996.556 L 7334.17,982.956 L 7338.95,970.054 L 7346.23,958.378 L 7355.71,948.406 L 7367,940.546 L 7379.64,935.12 L 7393.12,932.35 L 7400,932 L 7413.69,933.392 L 7426.82,937.512 L 7438.85,944.19 L 7449.28,953.152 L 7457.71,964.032 L 7463.77,976.384 L 7467.21,989.704 L 7467.91,1003.44 L 7465.83,1017.04 L 7461.05,1029.95 L 7453.77,1041.62 L 7444.29,1051.59 L 7433,1059.45 L 7420.36,1064.88 L 7406.88,1067.65 L 7400,1068 z " style="fill-opacity:1.000000;fill:rgb(107,150,143);stroke:rgb(0,0,0);stroke-width:2"/></g>
<g fill-rule="evenodd"><path d="M 7600,1068 L 7586.31,1066.61 L 7573.18,1062.49 L 7561.15,1055.81 L 7550.72,1046.85 L 7542.29,1035.97 L 7536.23,1023.62 L 7532.79,1010.3 L 7532.09,996.556 L 7534.17,982.956 L 7538.95,970.054 L 7546.23,958.378 L 7555.71,948.406 L 7567,940.546 L 7579.64,935.12 L 7593.12,932.35 L 7600,932 L 7613.69,933.392 L 7626.82,937.512 L 7638.85,944.19 L 7649.28,953.152 L 7657.71,964.032 L 7663.77,976.384 L 7667.21,989.704 L 7667.91,1003.44 L 7665.83,1017.04 L 7661.05,1029.95 L 7653.77,1041.62 L 7644.29,1051.59 L 7633,1059.45 L 7620.36,1064.88 L 7606.88,1067.65 L 7600,1068 z " style="fill-opacity:1.000000;fill:rgb(56,92,42);stroke:rgb(0,0,0);stroke-width:2"/></g>
<g fill-rule="evenodd"><path d="M 7400,868 L 7386.31,866.608 L 7373.18,862.488 L 7361.15,855.81 L 7350.72,846.848 L 7342.29,835.968 L 7336.23,823.616 L 7332.79,810.296 L 7332.09,796.556 L 7334.17,782.956 L 7338.95,770.054 L 7346.23,758.378 L 7355.71,748.406 L 7367,740.546 L 7379.64,735.12 L 7393.12,732.35 L 7400,732 L 7413.69,733.392 L 7426.82,737.512 L 7438.85,744.19 L 7449.28,753.152 L 7457.71,764.032 L 7463.77,776.384 L 7467.21,789.704 L 7467.91,803.444 L 7465.83,817.044 L 7461.05,829.946 L 7453.77,841.622 L 7444.29,851.594 L 7433,859.454 L 7420.36,864.88 L 7406.88,867.65 L 7400,868 z " style="fill-opacity:1.000000;fill:rgb(236,176,59);stroke:rgb(0,0,0);stroke-width:2"/></g>
<g fill-rule="evenodd"><path d="M 7600,868 L 7586.31,866.608 L 7573.18,862.488 L 7561.15,855.81 L 7550.72,846.848 L 7542.29,835.968 L 7536.23,823.616 L 7532.79,810.296 L 7532.09,796.556 L 7534.17,782.956 L 7538.95,770.054 L 7546.23,758.378 L 7555.71,748.406 L 7567,740.546 L 7579.64,735.12 L 7593.12,732.35 L 7600,732 L 7613.69,733.392 L 7626.82,737.512 L 7638.85,744.19 L 7649.28,753.152 L 7657.71,764.032 L 7663.77,776.384 L 7667.21,789.704 L 7667.91,803.444 L 7665.83,817.044 L 7661.05,829.946 L 7653.77,841.622 L 7644.29,851.594 L 7633,859.454 L 7620.36,864.88 L 7606.88,867.65 L 7600,868 z " style="fill-opacity:1.000000;fill:rgb(251,50,175);stroke:rgb(0,0,0);stroke-width:2"/></g>
<g fill-rule="evenodd"><path d="M 7400,668 L 7386.31,666.608 L 7373.18,662.488 L 7361.15,655.81 L 7350.72,646.848 L 7342.29,635.968 L 7336.23,623.616 L 7332.79,610.296 L 7332.09,596.556 L 7334.17,582.956 L 7338.95,570.054 L 7346.23,558.378 L 7355.71,548.406 L 7367,540.546 L 7379.64,535.12 L 7393.12,532.35 L 7400,532 L 7413.69,533.392 L 7426.82,537.512 L 7438.85,544.19 L 7449.28,553.152 L 7457.71,564.032 L 7463.77,576.384 L 7467.21,589.704 L 7467.91,603.444 L 7465.83,617.044 L 7461.05,629.946 L 7453.77,641.622 L 7444.29,651.594 L 7433,659.454 L 7420.36,664.88 L 7406.88,667.65 L 7400,668 z " style="fill-opacity:1.000000;fill:rgb(60,84,236);stroke:rgb(0,0,0);stroke-width:2"/></g>
<g fill-rule="evenodd"><path d="M 7600,668 L 7586.31,666.608 L 7573.18,662.488 L 7561.15,655.81 L 7550.72,646.848 L 7542.29,635.968 L 7536.23,623.616 L 7532.79,610.296 L 7532.09,596.556 L 7534.17,582.956 L 7538.95,570.054 L 7546.23,558.378 L 7555.71,548.406 L 7567,540.546 L 7579.64,535.12 L 7593.12,532.35 L 7600,532 L 7613.69,533.392 L 7626.82,537.512 L 7638.85,544.19 L 7649.28,553.152 L 7657.71,564.032 L 7663.77,576.384 L 7667.21,589.704 L 7667.91,603.444 L 7665.83,617.044 L 7661.05,629.946 L 7653.77,641.622 L 7644.29,651.594 L 7633,659.454 L 7620.36,664.88 L 7606.88,667.65 L 7600,668 z " style="fill-opacity:1.000000;fill:rgb(24,219,92);stroke:rgb(0,0,0);stroke-width:2"/></g>
<g fill-rule="evenodd"><path d="M 7400,468 L 7386.31,466.608 L 7373.18,462.488 L 7361.15,455.81 L 7350.72,446.848 L 7342.29,435.968 L 7336.23,423.616 L 7332.79,410.296 L 7332.09,396.556 L 7334.17,382.956 L 7338.95,370.054 L 7346.23,358.378 L 7355.71,348.406 L 7367,340.546 L 7379.64,335.12 L 7393.12,332.35 L 7400,332 L 7413.69,333.392 L 7426.82,337.512 L 7438.85,344.19 L 7449.28,353.152 L 7457.71,364.032 L 7463.77,376.384 L 7467.21,389.704 L 7467.91,403.444 L 7465.83,417.044 L 7461.05,429.946 L 7453.77,441.622 L 7444.29,451.594 L 7433,459.454 L 7420.36,464.88 L 7406.88,467.65 L 7400,468 z " style="fill-opacity:1.000000;fill:rgb(2,26,254);stroke:rgb(0,0,0);stroke-width:2"/></g>
<g fill-rule="evenodd"><path d="M 7600,468 L 7586.31,466.608 L 7573.18,462.488 L 7561.15,455.81 L 7550.72,446.848 L 7542.29,435.968 L 7536.23,423.616 L 7532.79,410.296 L 7532.09,396.556 L 7534.17,382.956 L 7538.95,370.054 L 7546.23,358.378 L 7555.71,348.406 L 7567,340.546 L 7579.64,335.12 L 7593.12,332.35 L 7600,332 L 7613.69,333.392 L 7626.82,337.512 L 7638.85,344.19 L 7649.28,353.152 L 7657.71,364.032 L 7663.77,376.384 L 7667.21,389.704 L 7667.91,403.444 L 7665.83,417.044 L 7661.05,429.946 L 7653.77,441.622 L 7644.29,451.594 L 7633,459.454 L 7620.36,464.88 L 7606.88,467.65 L 7600,468 z " style="fill-opacity:1.000000;fill:rgb(67,251,250);stroke:rgb(0,0,0);stroke-width:2"/></g>
<g fill-rule="evenodd"><path d="M 2268,4012 L 2266.61,4025.69 L 2262.49,4038.82 L 2255.81,4050.85 L 2246.85,4061.28 L 2235.97,4069.71 L 2223.62,4075.77 L 2210.3,4079.21 L 2196.56,4079.91 L 2182.96,4077.83 L 2170.05,4073.05 L 2158.38,4065.77 L 2148.41,4056.29 L 2140.55,4045 L 2135.12,4032.36 L 2132.35,4018.88 L 2132,3988 L 2133.39,3974.31 L 2137.51,3961.18 L 2144.19,3949.15 L 2153.15,3938.72 L 2164.03,3930.29 L 2176.38,3924.23 L 2189.7,3920.79 L 2203.44,3920.09 L 2217.04,3922.17 L 2229.95,3926.95 L 2241.62,3934.23 L 2251.59,3943.71 L 2259.45,3955 L 2264.88,3967.64 L 2267.65,3981.12 L 2268,4012 z " style="fill-opacity:1.000000;fill:rgb(170,58,251);stroke:rgb(0,0,0);stroke-width:2"/></g>
<g fill-rule="evenodd"><path d="M 2468,4012 L 2466.61,4025.69 L 2462.49,4038.82 L 2455.81,4050.85 L 2446.85,4061.28 L 2435.97,4069.71 L 2423.62,4075.77 L 2410.3,4079.21 L 2396.56,4079.91 L 2382.96,4077.83 L 2370.05,4073.05 L 2358.38,4065.77 L 2348.41,4056.29 L 2340.55,4045 L 2335.12,4032.36 L 2332.35,4018.88 L 2332,3988 L 2333.39,3974.31 L 2337.51,3961.18 L 2344.19,3949.15 L 2353.15,3938.72 L 2364.03,3930.29 L 2376.38,3924.23 L 2389.7,3920.79 L 2403.44,3920.09 L 2417.04,3922.17 L 2429.95,3926.95 L 2441.62,3934.23 L 2451.59,3943.71 L 2459.45,3955 L 2464.88,3967.64 L 2467.65,3981.12 L 2468,4012 z " style="fill-opacity:1.000000;fill:rgb(41,209,230);stroke:rgb(0,0,0);stroke-width:2"/></g>
<g fill-rule="evenodd"><path d="M 2668,4012 L 2666.61,4025.69 L 2662.49,4038.82 L 2655.81,4050.85 L 2646.85,4061.28 L 2635.97,4069.71 L 2623.62,4075.77 L 2610.3,4079.21 L 2596.56,4079.91 L 2582.96,4077.83 L 2570.05,4073.05 L 2558.38,4065.77 L 2548.41,4056.29 L 2540.55,4045 L 2535.12,4032.36 L 2532.35,4018.88 L 2532,3988 L 2533.39,3974.31 L 2537.51,3961.18 L 2544.19,3949.15 L 2553.15,3938.72 L 2564.03,3930.29 L 2576.38,3924.23 L 2589.7,3920.79 L 2603.44,3920.09 L 2617.04,3922.17 L 2629.95,3926.95 L 2641.62,3934.23 L 2651.59,3943.71 L 2659.45,3955 L 2664.88,3967.64 L 2667.65,3981.12 L 2668,4012 z " style="fill-opacity:1.000000;fill:rgb(5,60,124);stroke:rgb(0,0,0);stroke-width:2"/></g>
<g fill-rule="evenodd"><path d="M 3668,4012 L 3666.61,4025.69 L 3662.49,4038.82 L 3655.81,4050.85 L 3646.85,4061.28 L 3635.97,4069.71 L 3623.62,4075.77 L 3610.3,4079.21 L 3596.56,4079.91 L 3582.96,4077.83 L 3570.05,4073.05 L 3558.38,4065.77 L 3548.41,4056.29 L 3540.55,4045 L 3535.12,4032.36 L 3532.35,4018.88 L 3532,3988 L 3533.39,3974.31 L 3537.51,3961.18 L 3544.19,3949.15 L 3553.15,3938.72 L 3564.03,3930.29 L 3576.38,3924.23 L 3589.7,3920.79 L 3603.44,3920.09 L 3617.04,3922.17 L 3629.95,3926.95 L 3641.62,3934.23 L 3651.59,3943.71 L 3659.45,3955 L 3664.88,3967.64 L 3667.65,3981.12 L 3668,4012 z " style="fill-opacity:1.000000;fill:rgb(148,117,216);stroke:rgb(0,0,0);stroke-width:2"/></g>
<g fill-rule="evenodd"><path d="M 5268,4012 L 5266.61,4025.69 L 5262.49,4038.82 L 5255.81,4050.85 L 5246.85,4061.28 L 5235.97,4069.71 L 5223.62,4075.77 L 5210.3,4079.21 L 5196.56,4079.91 L 5182.96,4077.83 L 5170.05,4073.05 L 5158.38,4065.77 L 5148.41,4056.29 L 5140.55,4045 L 5135.12,4032.36 L 5132.35,4018.88 L 5132,3988 L 5133.39,3974.31 L 5137.51,3961.18 L 5144.19,3949.15 L 5153.15,3938.72 L 5164.03,3930.29 L 5176.38,3924.23 L 5189.7,3920.79 L 5203.44,3920.09 L 5217.04,3922.17 L 5229.95,3926.95 L 5241.62,3934.23 L 5251.59,3943.71 L 5259.45,3955 L 5264.88,3967.64 L 5267.65,3981.12 L 5268,4012 z " style="fill-opacity:1.000000;fill:rgb(190,97,137);stroke:rgb(0,0,0);stroke-width:2"/></g>
<g fill-rule="evenodd"><path d="M 5468,4012 L 5466.61,4025.69 L 5462.49,4038.82 L 5455.81,4050.85 L 5446.85,4061.28 L 5435.97,4069.71 L 5423.62,4075.77 L 5410.3,4079.21 L 5396.56,4079.91 L 5382.96,4077.83 L 5370.05,4073.05 L 5358.38,4065.77 L 5348.41,4056.29 L 5340.55,4045 L 5335.12,4032.36 L 5332.35,4018.88 L 5332,3988 L 5333.39,3974.31 L 5337.51,3961.18 L 5344.19,3949.15 L 5353.15,3938.72 L 5364.03,3930.29 L 5376.38,3924.23 L 5389.7,3920.79 L 5403.44,3920.09 L 5417.04,3922.17 L 5429.95,3926.95 L 5441.62,3934.23 L 5451.59,3943.71 L 5459.45,3955 L 5464.88,3967.64 L 5467.65,3981.12 L 5468,4012 z " style="fill-opacity:1.000000;fill:rgb(249,92,187);stroke:rgb(0,0,0);stroke-width:2"/></g>
<g fill-rule="evenodd"><path d="M 5868,4012 L 5866.61,4025.69 L 5862.49,4038.82 L 5855.81,4050.85 L 5846.85,4061.28 L 5835.97,4069.71 L 5823.62,4075.77 L 5810.3,4079.21 L 5796.56,4079.91 L 5782.96,4077.83 L 5770.05,4073.05 L 5758.38,4065.77 L 5748.41,4056.29 L 5740.55,4045 L 5735.12,4032.36 L 5732.35,4018.88 L 5732,3988 L 5733.39,3974.31 L 5737.51,3961.18 L 5744.19,3949.15 L 5753.15,3938.72 L 5764.03,3930.29 L 5776.38,3924.23 L 5789.7,3920.79 L 5803.44,3920.09 L 5817.04,3922.17 L 5829.95,3926.95 L 5841.62,3934.23 L 5851.59,3943.71 L 5859.45,3955 L 5864.88,3967.64 L 5867.65,3981.12 L 5868,4012 z " style="fill-opacity:1.000000;fill:rgb(168,153,15);stroke:rgb(0,0,0);stroke-width:2"/></g>
<g fill-rule="evenodd"><path d="M 6068,4012 L 6066.61,4025.69 L 6062.49,4038.82 L 6055.81,4050.85 L 6046.85,4061.28 L 6035.97,4069.71 L 6023.62,4075.77 L 6010.3,4079.21 L 5996.56,4079.91 L 5982.96,4077.83 L 5970.05,4073.05 L 5958.38,4065.77 L 5948.41,4056.29 L 5940.55,4045 L 5935.12,4032.36 L 5932.35,4018.88 L 5932,3988 L 5933.39,3974.31 L 5937.51,3961.18 L 5944.19,3949.15 L 5953.15,3938.72 L 5964.03,3930.29 L 5976.38,3924.23 L 5989.7,3920.79 L 6003.44,3920.09 L 6017.04,3922.17 L 6029.95,3926.95 L 6041.62,3934.23 L 6051.59,3943.71 L 6059.45,3955 L 6064.88,3967.64 L 6067.65,3981.12 L 6068,4012 z " style="fill-opacity:1.000000;fill:rgb(149,177,235);stroke:rgb(0,0,0);stroke-width:2"/></g>
<g fill-rule="evenodd"><path d="M 6268,4012 L 6266.61,4025.69 L 6262.49,4038.82 L 6255.81,4050.85 L 6246.85,4061.28 L 6235.97,4069.71 L 6223.62,4075.77 L 6210.3,4079.21 L 6196.56,4079.91 L 6182.96,4077.83 L 6170.05,4073.05 L 6158.38,4065.77 L 6148.41,4056.29 L 6140.55,4045 L 6135.12,4032.36 L 6132.35,4018.88 L 6132,3988 L 6133.39,3974.31 L 6137.51,3961.18 L 6144.19,3949.15 L 6153.15,3938.72 L 6164.03,3930.29 L 6176.38,3924.23 L 6189.7,3920.79 L 6203.44,3920.09 L 6217.04,3922.17 L 6229.95,3926.95 L 6241.62,3934.23 L 6251.59,3943.71 L 6259.45,3955 L 6264.88,3967.64 L 6267.65,3981.12 L 6268,4012 z " style="fill-opacity:1.000000;fill:rgb(241,179,5);stroke:rgb(0,0,0);stroke-width:2"/></g>
<g fill-rule="evenodd"><path d="M 6468,4012 L 6466.61,4025.69 L 6462.49,4038.82 L 6455.81,4050.85 L 6446.85,4061.28 L 6435.97,4069.71 L 6423.62,4075.77 L 6410.3,4079.21 L 6396.56,4079.91 L 6382.96,4077.83 L 6370.05,4073.05 L 6358.38,4065.77 L 6348.41,4056.29 L 6340.55,4045 L 6335.12,4032.36 L 6332.35,4018.88 L 6332,3988 L 6333.39,3974.31 L 6337.51,3961.18 L 6344.19,3949.15 L 6353.15,3938.72 L 6364.03,3930.29 L 6376.38,3924.23 L 6389.7,3920.79 L 6403.44,3920.09 L 6417.04,3922.17 L 6429.95,3926.95 L 6441.62,3934.23 L 6451.59,3943.71 L 6459.45,3955 L 6464.88,3967.64 L 6467.65,3981.12 L 6468,4012 z " style="fill-opacity:1.000000;fill:rgb(239,247,0);stroke:rgb(0,0,0);stroke-width:2"/></g>
<g fill-rule="evenodd"><path d="M 6668,4012 L 6666.61,4025.69 L 6662.49,4038.82 L 6655.81,4050.85 L 6646.85,4061.28 L 6635.97,4069.71 L 6623.62,4075.77 L 6610.3,4079.21 L 6596.56,4079.91 L 6582.96,4077.83 L 6570.05,4073.05 L 6558.38,4065.77 L 6548.41,4056.29 L 6540.55,4045 L 6535.12,4032.36 L 6532.35,4018.88 L 6532,3988 L 6533.39,3974.31 L 6537.51,3961.18 L 6544.19,3949.15 L 6553.15,3938.72 L 6564.03,3930.29 L 6576.38,3924.23 L 6589.7,3920.79 L 6603.44,3920.09 L 6617.04,3922.17 L 6629.95,3926.95 L 6641.62,3934.23 L 6651.59,3943.71 L 6659.45,3955 L 6664.88,3967.64 L 6667.65,3981.12 L 6668,4012 z " style="fill-opacity:1.000000;fill:rgb(233,161,58);stroke:rgb(0,0,0);stroke-width:2"/></g>
<g fill-rule="evenodd"><path d="M 6868,4012 L 6866.61,4025.69 L 6862.49,4038.82 L 6855.81,4050.85 L 6846.85,4061.28 L 6835.97,4069.71 L 6823.62,4075.77 L 6810.3,4079.21 L 6796.56,4079.91 L 6782.96,4077.83 L 6770.05,4073.05 L 6758.38,4065.77 L 6748.41,4056.29 L 6740.55,4045 L 6735.12,4032.36 L 6732.35,4018.88 L 6732,3988 L 6733.39,3974.31 L 6737.51,3961.18 L 6744.19,3949.15 L 6753.15,3938.72 L 6764.03,3930.29 L 6776.38,3924.23 L 6789.7,3920.79 L 6803.44,3920.09 L 6817.04,3922.17 L 6829.95,3926.95 L 6841.62,3934.23 L 6851.59,3943.71 L 6859.45,3955 L 6864.88,3967.64 L 6867.65,3981.12 L 6868,4012 z " style="fill-opacity:1.000000;fill:rgb(229,202,11);stroke:rgb(0,0,0);stroke-width:2"/></g>
<g fill-rule="evenodd"><path d="M 7068,4012 L 7066.61,4025.69 L 7062.49,4038.82 L 7055.81,4050.85 L 7046.85,4061.28 L 7035.97,4069.71 L 7023.62,4075.77 L 7010.3,4079.21 L 6996.56,4079.91 L 6982.96,4077.83 L 6970.05,4073.05 L 6958.38,4065.77 L 6948.41,4056.29 L 6940.55,4045 L 6935.12,4032.36 L 6932.35,4018.88 L 6932,3988 L 6933.39,3974.31 L 6937.51,3961.18 L 6944.19,3949.15 L 6953.15,3938.72 L 6964.03,3930.29 L 6976.38,3924.23 L 6989.7,3920.79 L 7003.44,3920.09 L 7017.04,3922.17 L 7029.95,3926.95 L 7041.62,3934.23 L 7051.59,3943.71 L 7059.45,3955 L 7064.88,3967.64 L 7067.65,3981.12 L 7068,4012 z " style="fill-opacity:1.000000;fill:rgb(203,208,72);stroke:rgb(0,0,0);stroke-width:2"/></g>
<g fill-rule="evenodd"><path d="M 7268,4012 L 7266.61,4025.69 L 7262.49,4038.82 L 7255.81,4050.85 L 7246.85,4061.28 L 7235.97,4069.71 L 7223.62,4075.77 L 7210.3,4079.21 L 7196.56,4079.91 L 7182.96,4077.83 L 7170.05,4073.05 L 7158.38,4065.77 L 7148.41,4056.29 L 7140.55,4045 L 7135.12,4032.36 L 7132.35,4018.88 L 7132,3988 L 7133.39,3974.31 L 7137.51,3961.18 L 7144.19,3949.15 L 7153.15,3938.72 L 7164.03,3930.29 L 7176.38,3924.23 L 7189.7,3920.79 L 7203.44,3920.09 L 7217.04,3922.17 L 7229.95,3926.95 L 7241.62,3934.23 L 7251.59,3943.71 L 7259.45,3955 L 7264.88,3967.64 L 7267.65,3981.12 L 7268,4012 z " style="fill-opacity:1.000000;fill:rgb(71,100,189);stroke:rgb(0,0,0);stroke-width:2"/></g>
<g fill-rule="evenodd"><path d="M 1548,212 L 1546.61,225.688 L 1542.49,238.816 L 1535.81,250.846 L 1526.85,261.284 L 1515.97,269.706 L 1503.62,275.766 L 1490.3,279.214 L 1476.56,279.912 L 1462.96,277.828 L 1450.05,273.05 L 1438.38,265.772 L 1428.41,256.292 L 1420.55,245 L 1415.12,232.356 L 1412.35,218.878 L 1412,188 L 1413.39,174.312 L 1417.51,161.184 L 1424.19,149.154 L 1433.15,138.716 L 1444.03,130.294 L 1456.38,124.234 L 1469.7,120.786 L 1483.44,120.088 L 1497.04,122.172 L 1509.95,126.95 L 1521.62,134.228 L 1531.59,143.708 L 1539.45,155 L 1544.88,167.644 L 1547.65,181.122 L 1548,212 z " style="fill-opacity:1.000000;fill:rgb(31,35,30);stroke:rgb(0,0,0);stroke-width:2"/></g>
<g fill-rule="evenodd"><path d="M 1748,212 L 1746.61,225.688 L 1742.49,238.816 L 1735.81,250.846 L 1726.85,261.284 L 1715.97,269.706 L 1703.62,275.766 L 1690.3,279.214 L 1676.56,279.912 L 1662.96,277.828 L 1650.05,273.05 L 1638.38,265.772 L 1628.41,256.292 L 1620.55,245 L 1615.12,232.356 L 1612.35,218.878 L 1612,188 L 1613.39,174.312 L 1617.51,161.184 L 1624.19,149.154 L 1633.15,138.716 L 1644.03,130.294 L 1656.38,124.234 L 1669.7,120.786 L 1683.44,120.088 L 1697.04,122.172 L 1709.95,126.95 L 1721.62,134.228 L 1731.59,143.708 L 1739.45,155 L 1744.88,167.644 L 1747.65,181.122 L 1748,212 z " style="fill-opacity:1.000000;fill:rgb(168,28,123);stroke:rgb(0,0,0);stroke-width:2"/></g>
<g fill-rule="evenodd"><path d="M 1948,212 L 1946.61,225.688 L 1942.49,238.816 L 1935.81,250.846 L 1926.85,261.284 L 1915.97,269.706 L 1903.62,275.766 L 1890.3,279.214 L 1876.56,279.912 L 1862.96,277.828 L 1850.05,273.05 L 1838.38,265.772 L 1828.41,256.292 L 1820.55,245 L 1815.12,232.356 L 1812.35,218.878 L 1812,188 L 1813.39,174.312 L 1817.51,161.184 L 1824.19,149.154 L 1833.15,138.716 L 1844.03,130.294 L 1856.38,124.234 L 1869.7,120.786 L 1883.44,120.088 L 1897.04,122.172 L 1909.95,126.95 L 1921.62,134.228 L 1931.59,143.708 L 1939.45,155 L 1944.88,167.644 L 1947.65,181.122 L 1948,212 z " style="fill-opacity:1.000000;fill:rgb(100,197,20);stroke:rgb(0,0,0);stroke-width:2"/></g>
<g fill-rule="evenodd"><path d="M 2348,212 L 2346.61,225.688 L 2342.49,238.816 L 2335.81,250.846 L 2326.85,261.284 L 2315.97,269.706 L 2303.62,275.766 L 2290.3,279.214 L 2276.56,279.912 L 2262.96,277.828 L 2250.05,273.05 L 2238.38,265.772 L 2228.41,256.292 L 2220.55,245 L 2215.12,232.356 L 2212.35,218.878 L 2212,188 L 2213.39,174.312 L 2217.51,161.184 L 2224.19,149.154 L 2233.15,138.716 L 2244.03,130.294 L 2256.38,124.234 L 2269.7,120.786 L 2283.44,120.088 L 2297.04,122.172 L 2309.95,126.95 L 2321.62,134.228 L 2331.59,143.708 L 2339.45,155 L 2344.88,167.644 L 2347.65,181.122 L 2348,212 z " style="fill-opacity:1.000000;fill:rgb(115,90,197);stroke:rgb(0,0,0);stroke-width:2"/></g>
<g fill-rule="evenodd"><path d="M 2548,212 L 2546.61,225.688 L 2542.49,238.816 L 2535.81,250.846 L 2526.85,261.284 L 2515.97,269.706 L 2503.62,275.766 L 2490.3,279.214 L 2476.56,279.912 L 2462.96,277.828 L 2450.05,273.05 L 2438.38,265.772 L 2428.41,256.292 L 2420.55,245 L 2415.12,232.356 L 2412.35,218.878 L 2412,188 L 2413.39,174.312 L 2417.51,161.184 L 2424.19,149.154 L 2433.15,138.716 L 2444.03,130.294 L 2456.38,124.234 L 2469.7,120.786 L 2483.44,120.088 L 2497.04,122.172 L 2509.95,126.95 L 2521.62,134.228 L 2531.59,143.708 L 2539.45,155 L 2544.88,167.644 L 2547.65,181.122 L 2548,212 z " style="fill-opacity:1.000000;fill:rgb(94,75,121);stroke:rgb(0,0,0);stroke-width:2"/></g>
<g fill-rule="evenodd"><path d="M 2748,212 L 2746.61,225.688 L 2742.49,238.816 L 2735.81,250.846 L 2726.85,261.284 L 2715.97,269.706 L 2703.62,275.766 L 2690.3,279.214 L 2676.56,279.912 L 2662.96,277.828 L 2650.05,273.05 L 2638.38,265.772 L 2628.41,256.292 L 2620.55,245 L 2615.12,232.356 L 2612.35,218.878 L 2612,188 L 2613.39,174.312 L 2617.51,161.184 L 2624.19,149.154 L 2633.15,138.716 L 2644.03,130.294 L 2656.38,124.234 L 2669.7,120.786 L 2683.44,120.088 L 2697.04,122.172 L 2709.95,126.95 L 2721.62,134.228 L 2731.59,143.708 L 2739.45,155 L 2744.88,167.644 L 2747.65,181.122 L 2748,212 z " style="fill-opacity:1.000000;fill:rgb(99,59,112);stroke:rgb(0,0,0);stroke-width:2"/></g>
<g fill-rule="evenodd"><path d="M 2948,212 L 2946.61,225.688 L 2942.49,238.816 L 2935.81,250.846 L 2926.85,261.284 L 2915.97,269.706 L 2903.62,275.766 L 2890.3,279.214 L 2876.56,279.912 L 2862.96,277.828 L 2850.05,273.05 L 2838.38,265.772 L 2828.41,256.292 L 2820.55,245 L 2815.12,232.356 L 2812.35,218.878 L 2812,188 L 2813.39,174.312 L 2817.51,161.184 L 2824.19,149.154 L 2833.15,138.716 L 2844.03,130.294 L 2856.38,124.234 L 2869.7,120.786 L 2883.44,120.088 L 2897.04,122.172 L 2909.95,126.95 L 2921.62,134.228 L 2931.59,143.708 L 2939.45,155 L 2944.88,167.644 L 2947.65,181.122 L 2948,212 z " style="fill-opacity:1.000000;fill:rgb(100,36,17);stroke:rgb(0,0,0);stroke-width:2"/></g>
<g fill-rule="evenodd"><path d="M 3668,212 L 3666.61,225.688 L 3662.49,238.816 L 3655.81,250.846 L 3646.85,261.284 L 3635.97,269.706 L 3623.62,275.766 L 3610.3,279.214 L 3596.56,279.912 L 3582.96,277.828 L 3570.05,273.05 L 3558.38,265.772 L 3548.41,256.292 L 3540.55,245 L 3535.12,232.356 L 3532.35,218.878 L 3532,188 L 3533.39,174.312 L 3537.51,161.184 L 3544.19,149.154 L 3553.15,138.716 L 3564.03,130.294 L 3576.38,124.234 L 3589.7,120.786 L 3603.44,120.088 L 3617.04,122.172 L 3629.95,126.95 L 3641.62,134.228 L 3651.59,143.708 L 3659.45,155 L 3664.88,167.644 L 3667.65,181.122 L 3668,212 z " style="fill-opacity:1.000000;fill:rgb(158,9,220);stroke:rgb(0,0,0);stroke-width:2"/></g>
<g fill-rule="evenodd"><path d="M 3868,212 L 3866.61,225.688 L 3862.49,238.816 L 3855.81,250.846 L 3846.85,261.284 L 3835.97,269.706 L 3823.62,275.766 L 3810.3,279.214 L 3796.56,279.912 L 3782.96,277.828 L 3770.05,273.05 L 3758.38,265.772 L 3748.41,256.292 L 3740.55,245 L 3735.12,232.356 L 3732.35,218.878 L 3732,188 L 3733.39,174.312 L 3737.51,161.184 L 3744.19,149.154 L 3753.15,138.716 L 3764.03,130.294 L 3776.38,124.234 L 3789.7,120.786 L 3803.44,120.088 L 3817.04,122.172 L 3829.95,126.95 L 3841.62,134.228 L 3851.59,143.708 L 3859.45,155 L 3864.88,167.644 L 3867.65,181.122 L 3868,212 z " style="fill-opacity:1.000000;fill:rgb(170,212,172);stroke:rgb(0,0,0);stroke-width:2"/></g>
<g fill-rule="evenodd"><path d="M 4068,212 L 4066.61,225.688 L 4062.49,238.816 L 4055.81,250.846 L 4046.85,261.284 L 4035.97,269.706 L 4023.62,275.766 L 4010.3,279.214 L 3996.56,279.912 L 3982.96,277.828 L 3970.05,273.05 L 3958.38,265.772 L 3948.41,256.292 L 3940.55,245 L 3935.12,232.356 L 3932.35,218.878 L 3932,188 L 3933.39,174.312 L 3937.51,161.184 L 3944.19,149.154 L 3953.15,138.716 L 3964.03,130.294 L 3976.38,124.234 L 3989.7,120.786 L 4003.44,120.088 L 4017.04,122.172 L 4029.95,126.95 L 4041.62,134.228 L 4051.59,143.708 L 4059.45,155 L 4064.88,167.644 L 4067.65,181.122 L 4068,212 z " style="fill-opacity:1.000000;fill:rgb(242,27,16);stroke:rgb(0,0,0);stroke-width:2"/></g>
<g fill-rule="evenodd"><path d="M 4268,212 L 4266.61,225.688 L 4262.49,238.816 L 4255.81,250.846 L 4246.85,261.284 L 4235.97,269.706 L 4223.62,275.766 L 4210.3,279.214 L 4196.56,279.912 L 4182.96,277.828 L 4170.05,273.05 L 4158.38,265.772 L 4148.41,256.292 L 4140.55,245 L 4135.12,232.356 L 4132.35,218.878 L 4132,188 L 4133.39,174.312 L 4137.51,161.184 L 4144.19,149.154 L 4153.15,138.716 L 4164.03,130.294 L 4176.38,124.234 L 4189.7,120.786 L 4203.44,120.088 L 4217.04,122.172 L 4229.95,126.95 L 4241.62,134.228 L 4251.59,143.708 L 4259.45,155 L 4264.88,167.644 L 4267.65,181.122 L 4268,212 z " style="fill-opacity:1.000000;fill:rgb(175,59,51);stroke:rgb(0,0,0);stroke-width:2"/></g>
<g fill-rule="evenodd"><path d="M 4868,212 L 4866.61,225.688 L 4862.49,238.816 L 4855.81,250.846 L 4846.85,261.284 L 4835.97,269.706 L 4823.62,275.766 L 4810.3,279.214 L 4796.56,279.912 L 4782.96,277.828 L 4770.05,273.05 L 4758.38,265.772 L 4748.41,256.292 L 4740.55,245 L 4735.12,232.356 L 4732.35,218.878 L 4732,188 L 4733.39,174.312 L 4737.51,161.184 L 4744.19,149.154 L 4753.15,138.716 L 4764.03,130.294 L 4776.38,124.234 L 4789.7,120.786 L 4803.44,120.088 L 4817.04,122.172 L 4829.95,126.95 L 4841.62,134.228 L 4851.59,143.708 L 4859.45,155 L 4864.88,167.644 L 4867.65,181.122 L 4868,212 z " style="fill-opacity:1.000000;fill:rgb(205,227,80);stroke:rgb(0,0,0);stroke-width:2"/></g>
<g fill-rule="evenodd"><path d="M 5068,212 L 5066.61,225.688 L 5062.49,238.816 L 5055.81,250.846 L 5046.85,261.284 L 5035.97,269.706 L 5023.62,275.766 L 5010.3,279.214 L 4996.56,279.912 L 4982.96,277.828 L 4970.05,273.05 L 4958.38,265.772 L 4948.41,256.292 L 4940.55,245 L 4935.12,232.356 L 4932.35,218.878 L 4932,188 L 4933.39,174.312 L 4937.51,161.184 L 4944.19,149.154 L 4953.15,138.716 L 4964.03,130.294 L 4976.38,124.234 L 4989.7,120.786 L 5003.44,120.088 L 5017.04,122.172 L 5029.95,126.95 L 5041.62,134.228 L 5051.59,143.708 L 5059.45,155 L 5064.88,167.644 L 5067.65,181.122 L 5068,212 z " style="fill-opacity:1.000000;fill:rgb(72,71,21);stroke:rgb(0,0,0);stroke-width:2"/></g>
<g fill-rule="evenodd"><path d="M 5468,212 L 5466.61,225.688 L 5462.49,238.816 L 5455.81,250.846 L 5446.85,261.284 L 5435.97,269.706 L 5423.62,275.766 L 5410.3,279.214 L 5396.56,279.912 L 5382.96,277.828 L 5370.05,273.05 L 5358.38,265.772 L 5348.41,256.292 L 5340.55,245 L 5335.12,232.356 L 5332.35,218.878 L 5332,188 L 5333.39,174.312 L 5337.51,161.184 L 5344.19,149.154 L 5353.15,138.716 L 5364.03,130.294 L 5376.38,124.234 L 5389.7,120.786 L 5403.44,120.088 L 5417.04,122.172 L 5429.95,126.95 L 5441.62,134.228 L 5451.59,143.708 L 5459.45,155 L 5464.88,167.644 L 5467.65,181.122 L 5468,212 z " style="fill-opacity:1.000000;fill:rgb(92,187,111);stroke:rgb(0,0,0);stroke-width:2"/></g>
<g fill-rule="evenodd"><path d="M 5668,212 L 5666.61,225.688 L 5662.49,238.816 L 5655.81,250.846 L 5646.85,261.284 L 5635.97,269.706 L 5623.62,275.766 L 5610.3,279.214 L 5596.56,279.912 L 5582.96,277.828 L 5570.05,273.05 L 5558.38,265.772 L 5548.41,256.292 L 5540.55,245 L 5535.12,232.356 L 5532.35,218.878 L 5532,188 L 5533.39,174.312 L 5537.51,161.184 L 5544.19,149.154 L 5553.15,138.716 L 5564.03,130.294 L 5576.38,124.234 L 5589.7,120.786 L 5603.44,120.088 L 5617.04,122.172 L 5629.95,126.95 L 5641.62,134.228 L 5651.59,143.708 L 5659.45,155 L 5664.88,167.644 L 5667.65,181.122 L 5668,212 z " style="fill-opacity:1.000000;fill:rgb(34,25,186);stroke:rgb(0,0,0);stroke-width:2"/></g>
<g fill-rule="evenodd"><path d="M 5868,212 L 5866.61,225.688 L 5862.49,238.816 L 5855.81,250.846 L 5846.85,261.284 L 5835.97,269.706 L 5823.62,275.766 L 5810.3,279.214 L 5796.56,279.912 L 5782.96,277.828 L 5770.05,273.05 L 5758.38,265.772 L 5748.41,256.292 L 5740.55,245 L 5735.12,232.356 L 5732.35,218.878 L 5732,188 L 5733.39,174.312 L 5737.51,161.184 L 5744.19,149.154 L 5753.15,138.716 L 5764.03,130.294 L 5776.38,124.234 L 5789.7,120.786 L 5803.44,120.088 L 5817.04,122.172 L 5829.95,126.95 L 5841.62,134.228 L 5851.59,143.708 L 5859.45,155 L 5864.88,167.644 L 5867.65,181.122 L 5868,212 z " style="fill-opacity:1.000000;fill:rgb(155,125,245);stroke:rgb(0,0,0);stroke-width:2"/></g>
<g fill-rule="evenodd"><path d="M 6068,212 L 6066.61,225.688 L 6062.49,238.816 L 6055.81,250.846 L 6046.85,261.284 L 6035.97,269.706 L 6023.62,275.766 L 6010.3,279.214 L 5996.56,279.912 L 5982.96,277.828 L 5970.05,273.05 L 5958.38,265.772 L 5948.41,256.292 L 5940.55,245 L 5935.12,232.356 L 5932.35,218.878 L 5932,188 L 5933.39,174.312 L 5937.51,161.184 L 5944.19,149.154 L 5953.15,138.716 L 5964.03,130.294 L 5976.38,124.234 L 5989.7,120.786 L 6003.44,120.088 L 6017.04,122.172 L 6029.95,126.95 L 6041.62,134.228 L 6051.59,143.708 L 6059.45,155 L 6064.88,167.644 L 6067.65,181.122 L 6068,212 z " style="fill-opacity:1.000000;fill:rgb(11,225,26);stroke:rgb(0,0,0);stroke-width:2"/></g>
<g fill-rule="evenodd"><path d="M 6668,212 L 6666.61,225.688 L 6662.49,238.816 L 6655.81,250.846 L 6646.85,261.284 L 6635.97,269.706 L 6623.62,275.766 L 6610.3,279.214 L 6596.56,279.912 L 6582.96,277.828 L 6570.05,273.05 L 6558.38,265.772 L 6548.41,256.292 L 6540.55,245 L 6535.12,232.356 L 6532.35,218.878 L 6532,188 L 6533.39,174.312 L 6537.51,161.184 L 6544.19,149.154 L 6553.15,138.716 L 6564.03,130.294 L 6576.38,124.234 L 6589.7,120.786 L 6603.44,120.088 L 6617.04,122.172 L 6629.95,126.95 L 6641.62,134.228 L 6651.59,143.708 L 6659.45,155 L 6664.88,167.644 L 6667.65,181.122 L 6668,212 z " style="fill-opacity:1.000000;fill:rgb(28,127,35);stroke:rgb(0,0,0);stroke-width:2"/></g>
<g fill-rule="evenodd"><path d="M 6868,212 L 6866.61,225.688 L 6862.49,238.816 L 6855.81,250.846 L 6846.85,261.284 L 6835.97,269.706 L 6823.62,275.766 L 6810.3,279.214 L 6796.56,279.912 L 6782.96,277.828 L 6770.05,273.05 L 6758.38,265.772 L 6748.41,256.292 L 6740.55,245 L 6735.12,232.356 L 6732.35,218.878 L 6732,188 L 6733.39,174.312 L 6737.51,161.184 L 6744.19,149.154 L 6753.15,138.716 L 6764.03,130.294 L 6776.38,124.234 L 6789.7,120.786 L 6803.44,120.088 L 6817.04,122.172 L 6829.95,126.95 L 6841.62,134.228 L 6851.59,143.708 L 6859.45,155 L 6864.88,167.644 L 6867.65,181.122 L 6868,212 z " style="fill-opacity:1.000000;fill:rgb(248,41,248);stroke:rgb(0,0,0);stroke-width:2"/></g>
<g fill-rule="evenodd"><path d="M 2906.52,1782.99 L 2899.37,1788.19 L 2884.33,1794.89 L 2868.23,1798.31 L 2851.77,1798.31 L 2835.67,1794.89 L 2820.63,1788.19 L 2807.31,1778.51 L 2796.3,1766.28 L 2788.07,1752.03 L 2782.98,1736.37 L 2781.26,1720 L 2782.98,1703.63 L 2788.07,1687.97 L 2796.3,1673.72 L 2807.31,1661.49 L 2820.63,1651.81 L 2835.67,1645.11 L 2851.77,1641.69 L 2868.23,1641.69 L 2884.33,1645.11 L 2899.37,1651.81 L 2906.52,1657.01 L 3713.48,1657.01 L 3720.63,1651.81 L 3735.67,1645.11 L 3751.77,1641.69 L 3768.23,1641.69 L 3784.33,1645.11 L 3799.37,1651.81 L 3806.52,1657.01 L 5313.48,1657.01 L 5320.63,1651.81 L 5335.67,1645.11 L 5351.77,1641.69 L 5368.23,1641.69 L 5384.33,1645.11 L 5399.37,1651.81 L 5406.52,1657.01 L 5797.01,1657.01 L 5797.01,1182.99 L 5606.52,1182.99 L 5599.37,1188.19 L 5584.33,1194.89 L 5568.23,1198.31 L 5551.77,1198.31 L 5535.67,1194.89 L 5520.63,1188.19 L 5507.31,1178.51 L 5496.3,1166.28 L 5488.07,1152.03 L 5482.98,1136.37 L 5481.26,1120 L 5482.98,1103.63 L 5488.07,1087.97 L 5496.3,1073.72 L 5507.31,1061.49 L 5520.63,1051.81 L 5535.67,1045.11 L 5551.77,1041.69 L 5568.23,1041.69 L 5584.33,1045.11 L 5599.37,1051.81 L 5606.52,1057.01 L 5837.95,1057.01 L 5839.97,1056.14 L 5853.23,1053.42 L 5860,1053.07 L 5873.47,1054.44 L 5886.39,1058.5 L 5898.23,1065.07 L 5908.51,1073.89 L 5916.8,1084.6 L 5922.76,1096.76 L 5926.16,1109.87 L 5926.84,1123.39 L 5924.79,1136.77 L 5922.99,1141.63 L 5922.99,1720 L 5921.78,1732.29 L 5918.2,1744.1 L 5912.37,1755 L 5904.54,1764.54 L 5895,1772.37 L 5884.1,1778.2 L 5872.29,1781.78 L 5860,1782.99 L 5406.52,1782.99 L 5399.37,1788.19 L 5384.33,1794.89 L 5368.23,1798.31 L 5351.77,1798.31 L 5335.67,1794.89 L 5320.63,1788.19 L 5313.48,1782.99 L 3806.52,1782.99 L 3799.37,1788.19 L 3784.33,1794.89 L 3768.23,1798.31 L 3751.77,1798.31 L 3735.67,1794.89 L 3720.63,1788.19 L 3713.48,1782.99 L 2906.52,1782.99 z " style="fill-opacity:1.000000;fill:rgb(164,27,19);stroke:rgb(0,0,0);stroke-width:2"/></g>
<g fill-rule="evenodd"><path d="M 4113.48,1857.01 L 4120.63,1851.81 L 4135.67,1845.11 L 4151.77,1841.69 L 4168.23,1841.69 L 4184.33,1845.11 L 4199.37,1851.81 L 4206.52,1857.01 L 6397.01,1857.01 L 6397.01,1186.93 L 6393.07,1186.93 L 6393.07,1053.07 L 6437.84,1053.07 L 6597.01,893.906 L 6597.01,586.928 L 6593.07,586.928 L 6593.07,453.072 L 6726.93,453.072 L 6726.93,586.928 L 6722.99,586.928 L 6722.99,920 L 6721.78,932.288 L 6718.2,944.104 L 6712.37,954.996 L 6704.54,964.542 L 6526.93,1142.16 L 6526.93,1186.93 L 6522.99,1186.93 L 6522.99,1920 L 6521.78,1932.29 L 6518.2,1944.1 L 6512.37,1955 L 6504.54,1964.54 L 6495,1972.37 L 6484.1,1978.2 L 6472.29,1981.78 L 6460,1982.99 L 4206.52,1982.99 L 4199.37,1988.19 L 4184.33,1994.89 L 4168.23,1998.31 L 4151.77,1998.31 L 4135.67,1994.89 L 4120.63,1988.19 L 4113.48,1982.99 L 2122.99,1982.99 L 2122.99,3757.01 L 2760,3757.01 L 2772.09,3758.18 L 2783.73,3761.65 L 2794.49,3767.29 L 2803.97,3774.89 L 2811.81,3784.17 L 2817.72,3794.78 L 2821.49,3806.33 L 2852.22,3944.6 L 2859.45,3955 L 2864.88,3967.64 L 2867.65,3981.12 L 2868,4012 L 2866.61,4025.69 L 2862.49,4038.82 L 2855.81,4050.85 L 2846.85,4061.28 L 2835.97,4069.71 L 2823.62,4075.77 L 2810.3,4079.21 L 2796.56,4079.91 L 2782.96,4077.83 L 2770.05,4073.05 L 2758.38,4065.77 L 2748.41,4056.29 L 2740.55,4045 L 2735.12,4032.36 L 2732.35,4018.88 L 2732,3988 L 2732.25,3985.52 L 2709.47,3882.99 L 2060,3882.99 L 2047.71,3881.78 L 2035.89,3878.2 L 2025,3872.37 L 2015.46,3864.54 L 2007.62,3855 L 2001.8,3844.1 L 1998.22,3832.29 L 1997.01,3820 L 1997.01,1920 L 1998.22,1907.71 L 2001.8,1895.89 L 2007.62,1885 L 2015.46,1875.46 L 2025,1867.62 L 2035.89,1861.8 L 2047.71,1858.22 L 2060,1857.01 L 4113.48,1857.01 z " style="fill-opacity:1.000000;fill:rgb(181,202,78);stroke:rgb(0,0,0);stroke-width:2"/></g>
<g fill-rule="evenodd"><path d="M 1722.99,2372.93 L 1723.7,2373.72 L 1731.93,2387.97 L 1737.02,2403.63 L 1738.74,2420 L 1737.02,2436.37 L 1731.93,2452.03 L 1723.7,2466.28 L 1712.69,2478.51 L 1699.37,2488.19 L 1684.33,2494.89 L 1668.23,2498.31 L 1651.77,2498.31 L 1635.67,2494.89 L 1620.63,2488.19 L 1607.31,2478.51 L 1596.3,2466.28 L 1588.07,2452.03 L 1582.98,2436.37 L 1581.26,2420 L 1582.98,2403.63 L 1588.07,2387.97 L 1596.3,2373.72 L 1597.01,2372.93 L 1597.01,2067.07 L 1596.3,2066.28 L 1588.07,2052.03 L 1582.98,2036.37 L 1581.26,2020 L 1582.98,2003.63 L 1588.07,1987.97 L 1596.3,1973.72 L 1597.01,1972.93 L 1597.01,1882.99 L 482.054,1882.99 L 480.034,1883.86 L 466.77,1886.58 L 460,1886.93 L 446.528,1885.56 L 433.608,1881.5 L 421.768,1874.93 L 411.492,1866.11 L 403.202,1855.4 L 397.24,1843.24 L 393.844,1830.13 L 393.158,1816.61 L 395.21,1803.23 L 399.912,1790.53 L 407.076,1779.03 L 416.406,1769.22 L 427.52,1761.48 L 439.966,1756.14 L 453.23,1753.42 L 460,1753.07 L 473.472,1754.44 L 481.646,1757.01 L 1660,1757.01 L 1672.29,1758.22 L 1684.1,1761.8 L 1695,1767.62 L 1704.54,1775.46 L 1712.37,1785 L 1718.2,1795.89 L 1721.78,1807.71 L 1722.99,1820 L 1722.99,1972.93 L 1723.7,1973.72 L 1731.93,1987.97 L 1737.02,2003.63 L 1738.74,2020 L 1737.02,2036.37 L 1731.93,2052.03 L 1723.7,2066.28 L 1722.99,2067.07 L 1722.99,2372.93 z " style="fill-opacity:1.000000;fill:rgb(232,152,50);stroke:rgb(0,0,0);stroke-width:2"/></g>
<g fill-rule="evenodd"><path d="M 1813.48,2982.99 L 560,2982.99 L 547.71,2981.78 L 535.894,2978.2 L 525.002,2972.37 L 515.456,2964.54 L 115.456,2564.54 L 107.624,2555 L 101.802,2544.1 L 98.218,2532.29 L 97.008,2520 L 97.008,420 L 98.218,407.71 L 101.802,395.894 L 107.624,385.002 L 115.456,375.456 L 125.002,367.624 L 135.894,361.802 L 147.71,358.218 L 160,357.008 L 860,357.008 L 872.288,358.218 L 884.104,361.802 L 894.996,367.624 L 904.542,375.456 L 912.374,385.002 L 918.196,395.894 L 921.78,407.71 L 922.992,420 L 922.992,772.93 L 923.7,773.718 L 931.932,787.974 L 937.018,803.63 L 938.74,820 L 937.018,836.37 L 931.932,852.026 L 923.7,866.282 L 912.686,878.514 L 899.37,888.19 L 884.33,894.886 L 868.23,898.308 L 851.77,898.308 L 835.67,894.886 L 820.632,888.19 L 807.314,878.514 L 796.3,866.282 L 788.068,852.026 L 782.982,836.37 L 781.26,820 L 782.982,803.63 L 788.068,787.974 L 796.3,773.718 L 797.008,772.932 L 797.008,482.992 L 222.992,482.992 L 222.992,1157.01 L 437.946,1157.01 L 439.966,1156.14 L 453.23,1153.42 L 460,1153.07 L 473.472,1154.44 L 486.392,1158.5 L 498.232,1165.07 L 508.508,1173.89 L 516.798,1184.6 L 522.76,1196.76 L 526.156,1209.87 L 526.842,1223.39 L 524.79,1236.77 L 520.088,1249.47 L 512.924,1260.97 L 503.594,1270.78 L 492.48,1278.52 L 480.034,1283.86 L 466.77,1286.58 L 460,1286.93 L 446.528,1285.56 L 438.354,1282.99 L 222.992,1282.99 L 222.992,2493.91 L 586.092,2857.01 L 997.008,2857.01 L 997.008,2467.07 L 996.3,2466.28 L 988.068,2452.03 L 982.982,2436.37 L 981.26,2420 L 982.982,2403.63 L 988.068,2387.97 L 996.3,2373.72 L 1007.31,2361.49 L 1020.63,2351.81 L 1035.67,2345.11 L 1051.77,2341.69 L 1068.23,2341.69 L 1084.33,2345.11 L 1099.37,2351.81 L 1112.69,2361.49 L 1123.7,2373.72 L 1131.93,2387.97 L 1137.02,2403.63 L 1138.74,2420 L 1137.02,2436.37 L 1131.93,2452.03 L 1123.7,2466.28 L 1122.99,2467.07 L 1122.99,2857.01 L 1813.48,2857.01 L 1820.63,2851.81 L 1835.67,2845.11 L 1851.77,2841.69 L 1868.23,2841.69 L 1884.33,2845.11 L 1899.37,2851.81 L 1912.69,2861.49 L 1923.7,2873.72 L 1931.93,2887.97 L 1937.02,2903.63 L 1938.74,2920 L 1937.02,2936.37 L 1931.93,2952.03 L 1923.7,2966.28 L 1912.69,2978.51 L 1899.37,2988.19 L 1884.33,2994.89 L 1868.23,2998.31 L 1851.77,2998.31 L 1835.67,2994.89 L 1820.63,2988.19 L 1813.48,2982.99 z " style="fill-opacity:1.000000;fill:rgb(56,224,121);stroke:rgb(0,0,0);stroke-width:2"/></g>
<g fill-rule="evenodd"><path d="M 2322.99,2967.07 L 2322.99,3557.01 L 2960,3557.01 L 2973.09,3558.38 L 2985.62,3562.45 L 2997.02,3569.03 L 3006.81,3577.84 L 3014.55,3588.5 L 3019.91,3600.53 L 3022.64,3613.4 L 3058.45,3953.56 L 3059.45,3955 L 3064.88,3967.64 L 3067.65,3981.12 L 3068,4012 L 3066.61,4025.69 L 3062.49,4038.82 L 3055.81,4050.85 L 3046.85,4061.28 L 3035.97,4069.71 L 3023.62,4075.77 L 3010.3,4079.21 L 2996.56,4079.91 L 2982.96,4077.83 L 2970.05,4073.05 L 2958.38,4065.77 L 2948.41,4056.29 L 2940.55,4045 L 2935.12,4032.36 L 2932.35,4018.88 L 2932,3988 L 2933.39,3974.31 L 2933.81,3972.97 L 2903.29,3682.99 L 2260,3682.99 L 2247.71,3681.78 L 2235.89,3678.2 L 2225,3672.37 L 2215.46,3664.54 L 2207.62,3655 L 2201.8,3644.1 L 2198.22,3632.29 L 2197.01,3620 L 2197.01,2967.07 L 2196.3,2966.28 L 2188.07,2952.03 L 2182.98,2936.37 L 2181.26,2920 L 2182.98,2903.63 L 2188.07,2887.97 L 2196.3,2873.72 L 2197.01,2872.93 L 2197.01,2120 L 2198.22,2107.71 L 2201.8,2095.89 L 2207.62,2085 L 2215.46,2075.46 L 2225,2067.62 L 2235.89,2061.8 L 2247.71,2058.22 L 2260,2057.01 L 7097.01,2057.01 L 7097.01,220 L 7098.22,207.71 L 7101.8,195.894 L 7107.62,185.002 L 7115.46,175.456 L 7135.46,155.456 L 7145,147.624 L 7155.89,141.802 L 7167.71,138.218 L 7180,137.008 L 7375.24,137.008 L 7379.64,135.12 L 7393.12,132.35 L 7400,132 L 7413.69,133.392 L 7425.21,137.008 L 7575.24,137.008 L 7579.64,135.12 L 7593.12,132.35 L 7600,132 L 7613.69,133.392 L 7626.82,137.512 L 7638.85,144.19 L 7649.28,153.152 L 7657.71,164.032 L 7663.77,176.384 L 7667.21,189.704 L 7667.91,203.444 L 7665.83,217.044 L 7661.05,229.946 L 7653.77,241.622 L 7644.29,251.594 L 7633,259.454 L 7620.36,264.88 L 7606.88,267.65 L 7600,268 L 7586.31,266.608 L 7574.79,262.992 L 7424.76,262.992 L 7420.36,264.88 L 7406.88,267.65 L 7400,268 L 7386.31,266.608 L 7374.79,262.992 L 7222.99,262.992 L 7222.99,2120 L 7221.78,2132.29 L 7218.2,2144.1 L 7212.37,2155 L 7204.54,2164.54 L 7195,2172.37 L 7184.1,2178.2 L 7172.29,2181.78 L 7160,2182.99 L 2322.99,2182.99 L 2322.99,2872.93 L 2323.7,2873.72 L 2331.93,2887.97 L 2337.02,2903.63 L 2338.74,2920 L 2337.02,2936.37 L 2331.93,2952.03 L 2323.7,2966.28 L 2322.99,2967.07 z " style="fill-opacity:1.000000;fill:rgb(77,61,52);stroke:rgb(0,0,0);stroke-width:2"/></g>
<g fill-rule="evenodd"><path d="M 3697.01,2367.07 L 3696.3,2366.28 L 3688.07,2352.03 L 3682.98,2336.37 L 3681.26,2320 L 3682.98,2303.63 L 3688.07,2287.97 L 3696.3,2273.72 L 3707.31,2261.49 L 3720.63,2251.81 L 3735.67,2245.11 L 3751.77,2241.69 L 3768.23,2241.69 L 3784.33,2245.11 L 3799.37,2251.81 L 3812.69,2261.49 L 3823.7,2273.72 L 3831.93,2287.97 L 3837.02,2303.63 L 3838.74,2320 L 3837.02,2336.37 L 3831.93,2352.03 L 3823.7,2366.28 L 3822.99,2367.07 L 3822.99,3320 L 3822.91,3323.19 L 3821.78,3332.29 L 3820.98,3335.79 L 3818.2,3344.1 L 3816.55,3347.74 L 3812.37,3355 L 3809.81,3358.56 L 3804.54,3364.54 L 3426.81,3742.27 L 3456.62,3950.93 L 3459.45,3955 L 3464.88,3967.64 L 3467.65,3981.12 L 3468,4012 L 3466.61,4025.69 L 3462.49,4038.82 L 3455.81,4050.85 L 3446.85,4061.28 L 3435.97,4069.71 L 3423.62,4075.77 L 3410.3,4079.21 L 3396.56,4079.91 L 3382.96,4077.83 L 3370.05,4073.05 L 3358.38,4065.77 L 3355.45,4062.99 L 3244.64,4062.99 L 3235.97,4069.71 L 3223.62,4075.77 L 3210.3,4079.21 L 3196.56,4079.91 L 3182.96,4077.83 L 3170.05,4073.05 L 3158.38,4065.77 L 3148.41,4056.29 L 3140.55,4045 L 3135.12,4032.36 L 3132.35,4018.88 L 3132,3988 L 3133.39,3974.31 L 3137.51,3961.18 L 3144.19,3949.15 L 3153.15,3938.72 L 3164.03,3930.29 L 3176.38,3924.23 L 3189.7,3920.79 L 3203.44,3920.09 L 3217.04,3922.17 L 3229.95,3926.95 L 3241.62,3934.23 L 3244.55,3937.01 L 3327.37,3937.01 L 3297.64,3728.91 L 3297.07,3717.26 L 3298.65,3705.7 L 3302.34,3694.63 L 3308.01,3684.43 L 3310.19,3681.44 L 3315.46,3675.46 L 3697.01,3293.91 L 3697.01,2367.07 z " style="fill-opacity:1.000000;fill:rgb(188,95,78);stroke:rgb(0,0,0);stroke-width:2"/></g>
<g fill-rule="evenodd"><path d="M 2393.07,1657.01 L 2393.07,1653.07 L 2526.93,1653.07 L 2526.93,1786.93 L 2393.07,1786.93 L 2393.07,1782.99 L 1922.99,1782.99 L 1922.99,2620 L 1921.78,2632.29 L 1918.2,2644.1 L 1912.37,2655 L 1904.54,2664.54 L 1895,2672.37 L 1884.1,2678.2 L 1872.29,2681.78 L 1860,2682.99 L 1360,2682.99 L 1347.71,2681.78 L 1335.89,2678.2 L 1325,2672.37 L 1315.46,2664.54 L 1307.62,2655 L 1301.8,2644.1 L 1298.22,2632.29 L 1297.01,2620 L 1297.01,2082.99 L 1106.52,2082.99 L 1099.37,2088.19 L 1084.33,2094.89 L 1068.23,2098.31 L 1051.77,2098.31 L 1035.67,2094.89 L 1020.63,2088.19 L 1007.31,2078.51 L 996.3,2066.28 L 988.068,2052.03 L 982.982,2036.37 L 981.26,2020 L 982.982,2003.63 L 988.068,1987.97 L 996.3,1973.72 L 1007.31,1961.49 L 1020.63,1951.81 L 1035.67,1945.11 L 1051.77,1941.69 L 1068.23,1941.69 L 1084.33,1945.11 L 1099.37,1951.81 L 1106.52,1957.01 L 1360,1957.01 L 1372.29,1958.22 L 1384.1,1961.8 L 1395,1967.62 L 1404.54,1975.46 L 1412.37,1985 L 1418.2,1995.89 L 1421.78,2007.71 L 1422.99,2020 L 1422.99,2557.01 L 1797.01,2557.01 L 1797.01,1720 L 1798.22,1707.71 L 1801.8,1695.89 L 1807.62,1685 L 1815.46,1675.46 L 1825,1667.62 L 1835.89,1661.8 L 1847.71,1658.22 L 1860,1657.01 L 2393.07,1657.01 z " style="fill-opacity:1.000000;fill:rgb(119,250,203);stroke:rgb(0,0,0);stroke-width:2"/></g>
<g fill-rule="evenodd"><path d="M 2393.07,857.008 L 2393.07,853.072 L 2526.93,853.072 L 2526.93,986.928 L 2393.07,986.928 L 2393.07,982.992 L 1860,982.992 L 1847.71,981.78 L 1835.89,978.196 L 1825,972.374 L 1815.46,964.542 L 1807.62,954.996 L 1801.8,944.104 L 1798.22,932.288 L 1797.01,920 L 1797.01,682.992 L 1122.99,682.992 L 1122.99,972.93 L 1123.7,973.718 L 1131.93,987.974 L 1137.02,1003.63 L 1138.74,1020 L 1137.02,1036.37 L 1131.93,1052.03 L 1123.7,1066.28 L 1112.69,1078.51 L 1099.37,1088.19 L 1084.33,1094.89 L 1068.23,1098.31 L 1051.77,1098.31 L 1035.67,1094.89 L 1020.63,1088.19 L 1007.31,1078.51 L 996.3,1066.28 L 988.068,1052.03 L 982.982,1036.37 L 981.26,1020 L 982.982,1003.63 L 988.068,987.974 L 996.3,973.718 L 997.008,972.932 L 997.008,620 L 998.218,607.71 L 1001.8,595.894 L 1007.62,585.002 L 1015.46,575.456 L 1025,567.624 L 1035.89,561.802 L 1047.71,558.218 L 1060,557.008 L 1860,557.008 L 1872.29,558.218 L 1884.1,561.802 L 1895,567.624 L 1904.54,575.456 L 1912.37,585.002 L 1918.2,595.894 L 1921.78,607.71 L 1922.99,620 L 1922.99,857.008 L 2393.07,857.008 z " style="fill-opacity:1.000000;fill:rgb(108,5,172);stroke:rgb(0,0,0);stroke-width:2"/></g>
<g fill-rule="evenodd"><path d="M 1597.01,1467.07 L 1596.3,1466.28 L 1588.07,1452.03 L 1582.98,1436.37 L 1581.26,1420 L 1582.98,1403.63 L 1588.07,1387.97 L 1596.3,1373.72 L 1597.01,1372.93 L 1597.01,1067.07 L 1596.3,1066.28 L 1588.07,1052.03 L 1582.98,1036.37 L 1581.26,1020 L 1582.98,1003.63 L 1588.07,987.974 L 1596.3,973.718 L 1607.31,961.486 L 1620.63,951.81 L 1635.67,945.114 L 1651.77,941.692 L 1668.23,941.692 L 1684.33,945.114 L 1699.37,951.81 L 1712.69,961.486 L 1723.7,973.718 L 1731.93,987.974 L 1737.02,1003.63 L 1738.74,1020 L 1737.02,1036.37 L 1731.93,1052.03 L 1723.7,1066.28 L 1722.99,1067.07 L 1722.99,1372.93 L 1723.7,1373.72 L 1731.93,1387.97 L 1737.02,1403.63 L 1738.74,1420 L 1737.02,1436.37 L 1731.93,1452.03 L 1723.7,1466.28 L 1722.99,1467.07 L 1722.99,1620 L 1721.78,1632.29 L 1718.2,1644.1 L 1712.37,1655 L 1704.54,1664.54 L 1695,1672.37 L 1684.1,1678.2 L 1672.29,1681.78 L 1660,1682.99 L 482.054,1682.99 L 480.034,1683.86 L 466.77,1686.58 L 460,1686.93 L 446.528,1685.56 L 433.608,1681.5 L 421.768,1674.93 L 411.492,1666.11 L 403.202,1655.4 L 397.24,1643.24 L 393.844,1630.13 L 393.158,1616.61 L 395.21,1603.23 L 399.912,1590.53 L 407.076,1579.03 L 416.406,1569.22 L 427.52,1561.48 L 439.966,1556.14 L 453.23,1553.42 L 460,1553.07 L 473.472,1554.44 L 481.646,1557.01 L 1597.01,1557.01 L 1597.01,1467.07 z " style="fill-opacity:1.000000;fill:rgb(134,33,43);stroke:rgb(0,0,0);stroke-width:2"/></g>
<g fill-rule="evenodd"><path d="M 922.992,1067.07 L 922.992,1120 L 921.78,1132.29 L 918.196,1144.1 L 912.374,1155 L 904.542,1164.54 L 604.542,1464.54 L 594.996,1472.37 L 584.104,1478.2 L 572.288,1481.78 L 560,1482.99 L 482.054,1482.99 L 480.034,1483.86 L 466.77,1486.58 L 460,1486.93 L 446.528,1485.56 L 433.608,1481.5 L 421.768,1474.93 L 411.492,1466.11 L 403.202,1455.4 L 397.24,1443.24 L 393.844,1430.13 L 393.158,1416.61 L 395.21,1403.23 L 399.912,1390.53 L 407.076,1379.03 L 416.406,1369.22 L 427.52,1361.48 L 439.966,1356.14 L 453.23,1353.42 L 460,1353.07 L 473.472,1354.44 L 481.646,1357.01 L 533.908,1357.01 L 797.008,1093.91 L 797.008,1067.07 L 796.3,1066.28 L 788.068,1052.03 L 782.982,1036.37 L 781.26,1020 L 782.982,1003.63 L 788.068,987.974 L 796.3,973.718 L 807.314,961.486 L 820.63,951.81 L 835.67,945.114 L 851.77,941.692 L 868.23,941.692 L 884.33,945.114 L 899.368,951.81 L 912.686,961.486 L 923.7,973.718 L 931.932,987.974 L 937.018,1003.63 L 938.74,1020 L 937.018,1036.37 L 931.932,1052.03 L 923.7,1066.28 L 922.992,1067.07 z " style="fill-opacity:1.000000;fill:rgb(170,26,85);stroke:rgb(0,0,0);stroke-width:2"/></g>
<g fill-rule="evenodd"><path d="M 1197.01,867.07 L 1196.3,866.282 L 1188.07,852.026 L 1182.98,836.37 L 1181.26,820 L 1182.98,803.63 L 1188.07,787.974 L 1196.3,773.718 L 1207.31,761.486 L 1220.63,751.81 L 1235.67,745.114 L 1251.77,741.692 L 1268.23,741.692 L 1284.33,745.114 L 1299.37,751.81 L 1312.69,761.486 L 1323.7,773.718 L 1331.93,787.974 L 1337.02,803.63 L 1338.74,820 L 1337.02,836.37 L 1331.93,852.026 L 1323.7,866.282 L 1322.99,867.068 L 1322.99,1420 L 1321.78,1432.29 L 1318.2,1444.1 L 1312.37,1455 L 1304.54,1464.54 L 1295,1472.37 L 1284.1,1478.2 L 1272.29,1481.78 L 1260,1482.99 L 1106.52,1482.99 L 1099.37,1488.19 L 1084.33,1494.89 L 1068.23,1498.31 L 1051.77,1498.31 L 1035.67,1494.89 L 1020.63,1488.19 L 1007.31,1478.51 L 996.3,1466.28 L 988.068,1452.03 L 982.982,1436.37 L 981.26,1420 L 982.982,1403.63 L 988.068,1387.97 L 996.3,1373.72 L 1007.31,1361.49 L 1020.63,1351.81 L 1035.67,1345.11 L 1051.77,1341.69 L 1068.23,1341.69 L 1084.33,1345.11 L 1099.37,1351.81 L 1106.52,1357.01 L 1197.01,1357.01 L 1197.01,867.07 z " style="fill-opacity:1.000000;fill:rgb(162,190,112);stroke:rgb(0,0,0);stroke-width:2"/></g>
<g fill-rule="evenodd"><path d="M 526.928,2082.99 L 526.928,2086.93 L 393.072,2086.93 L 393.072,1953.07 L 526.928,1953.07 L 526.928,1957.01 L 813.476,1957.01 L 820.63,1951.81 L 835.67,1945.11 L 851.77,1941.69 L 868.23,1941.69 L 884.33,1945.11 L 899.368,1951.81 L 912.686,1961.49 L 923.7,1973.72 L 931.932,1987.97 L 937.018,2003.63 L 938.74,2020 L 937.018,2036.37 L 931.932,2052.03 L 923.7,2066.28 L 912.686,2078.51 L 899.37,2088.19 L 884.33,2094.89 L 868.23,2098.31 L 851.77,2098.31 L 835.67,2094.89 L 820.632,2088.19 L 813.478,2082.99 L 526.928,2082.99 z " style="fill-opacity:1.000000;fill:rgb(181,115,59);stroke:rgb(0,0,0);stroke-width:2"/></g>
<g fill-rule="evenodd"><path d="M 606.522,157.008 L 1060,157.008 L 1072.29,158.218 L 1084.1,161.802 L 1095,167.624 L 1104.54,175.456 L 1112.37,185.002 L 1118.2,195.894 L 1121.78,207.71 L 1122.99,220 L 1122.99,357.008 L 1834.87,357.006 L 1839.01,353.608 L 1849.9,347.786 L 1861.72,344.202 L 1874.01,342.992 L 2017.01,342.992 L 2017.01,236.756 L 2015.12,232.356 L 2012.35,218.878 L 2012,188 L 2013.39,174.312 L 2017.51,161.184 L 2024.19,149.154 L 2033.15,138.716 L 2044.03,130.294 L 2056.38,124.234 L 2069.7,120.786 L 2083.44,120.088 L 2097.04,122.172 L 2109.95,126.95 L 2121.62,134.228 L 2131.59,143.708 L 2139.45,155 L 2144.88,167.644 L 2147.65,181.122 L 2148,212 L 2146.61,225.688 L 2142.99,237.21 L 2142.99,379.89 L 2220.11,457.008 L 2437.95,457.008 L 2439.97,456.142 L 2453.23,453.416 L 2460,453.072 L 2473.47,454.444 L 2486.39,458.496 L 2498.23,465.068 L 2508.51,473.89 L 2516.8,484.598 L 2522.76,496.756 L 2526.16,509.866 L 2526.84,523.388 L 2524.79,536.774 L 2520.09,549.474 L 2512.92,560.966 L 2503.59,570.782 L 2492.48,578.518 L 2480.03,583.858 L 2466.77,586.584 L 2460,586.928 L 2446.53,585.556 L 2438.35,582.992 L 2257.01,582.992 L 2257.01,685.984 L 2255.79,698.272 L 2252.21,710.088 L 2246.39,720.978 L 2237.53,731.554 L 2237.02,736.37 L 2231.93,752.026 L 2223.7,766.282 L 2212.69,778.514 L 2199.37,788.19 L 2184.33,794.886 L 2168.23,798.308 L 2151.77,798.308 L 2135.67,794.886 L 2120.63,788.19 L 2107.31,778.514 L 2096.3,766.282 L 2088.07,752.026 L 2082.98,736.37 L 2081.26,720 L 2082.98,703.63 L 2088.07,687.974 L 2096.3,673.718 L 2107.31,661.486 L 2120.63,651.81 L 2131.02,647.186 L 2131.02,546.092 L 2053.91,468.974 L 1899.14,468.976 L 1895,472.374 L 1884.11,478.196 L 1872.29,481.78 L 1860,482.992 L 1060.44,482.992 L 1048.11,481.774 L 1036.27,478.168 L 1025.35,472.316 L 1015.8,464.44 L 1007.56,454.464 L 1001.77,443.596 L 998.21,431.812 L 997.008,419.558 L 997.008,282.992 L 606.524,282.992 L 599.37,288.19 L 584.33,294.886 L 568.23,298.308 L 551.77,298.308 L 535.67,294.886 L 520.632,288.19 L 507.314,278.514 L 496.3,266.282 L 488.068,252.026 L 482.982,236.37 L 481.26,220 L 482.982,203.63 L 488.068,187.974 L 496.3,173.718 L 507.314,161.486 L 520.63,151.81 L 535.67,145.114 L 551.77,141.692 L 568.23,141.692 L 584.33,145.114 L 599.368,151.81 L 606.522,157.008 z " style="fill-opacity:1.000000;fill:rgb(4,92,211);stroke:rgb(0,0,0);stroke-width:2"/></g>
<g fill-rule="evenodd"><path d="M 482.476,608.436 L 482.982,603.63 L 488.068,587.974 L 496.3,573.718 L 507.314,561.486 L 520.63,551.81 L 535.67,545.114 L 551.77,541.692 L 568.23,541.692 L 584.33,545.114 L 599.368,551.81 L 612.686,561.486 L 623.7,573.718 L 631.932,587.974 L 637.018,603.63 L 638.74,620 L 637.018,636.37 L 631.932,652.026 L 623.7,666.282 L 612.686,678.514 L 599.37,688.19 L 584.33,694.886 L 571.464,697.62 L 522.992,746.092 L 522.992,997.65 L 526.156,1009.87 L 526.842,1023.39 L 524.79,1036.77 L 520.088,1049.47 L 512.924,1060.97 L 503.594,1070.78 L 492.48,1078.52 L 480.034,1083.86 L 466.77,1086.58 L 460,1086.93 L 446.528,1085.56 L 433.608,1081.5 L 421.768,1074.93 L 411.492,1066.11 L 403.202,1055.4 L 397.24,1043.24 L 393.844,1030.13 L 393.158,1016.61 L 395.21,1003.23 L 397.008,998.37 L 397.008,720 L 398.218,707.71 L 401.802,695.894 L 407.624,685.002 L 415.456,675.456 L 482.476,608.436 z " style="fill-opacity:1.000000;fill:rgb(54,148,179);stroke:rgb(0,0,0);stroke-width:2"/></g>
<g fill-rule="evenodd"><path d="M 2237.52,1108.44 L 2386.09,1257.01 L 2437.95,1257.01 L 2439.97,1256.14 L 2453.23,1253.42 L 2460,1253.07 L 2473.47,1254.44 L 2481.64,1257.01 L 2813.48,1257.01 L 2820.63,1251.81 L 2835.67,1245.11 L 2851.77,1241.69 L 2868.23,1241.69 L 2884.33,1245.11 L 2899.37,1251.81 L 2912.69,1261.49 L 2923.7,1273.72 L 2931.93,1287.97 L 2937.02,1303.63 L 2938.74,1320 L 2937.02,1336.37 L 2931.93,1352.03 L 2923.7,1366.28 L 2912.69,1378.51 L 2899.37,1388.19 L 2884.33,1394.89 L 2868.23,1398.31 L 2851.77,1398.31 L 2835.67,1394.89 L 2820.63,1388.19 L 2813.48,1382.99 L 2482.05,1382.99 L 2480.03,1383.86 L 2466.77,1386.58 L 2460,1386.93 L 2446.53,1385.56 L 2438.35,1382.99 L 2360,1382.99 L 2347.71,1381.78 L 2335.89,1378.2 L 2325,1372.37 L 2315.46,1364.54 L 2148.54,1197.62 L 2135.67,1194.89 L 2120.63,1188.19 L 2107.31,1178.51 L 2096.3,1166.28 L 2088.07,1152.03 L 2082.98,1136.37 L 2081.26,1120 L 2082.98,1103.63 L 2088.07,1087.97 L 2096.3,1073.72 L 2107.31,1061.49 L 2120.63,1051.81 L 2135.67,1045.11 L 2151.77,1041.69 L 2168.23,1041.69 L 2184.33,1045.11 L 2199.37,1051.81 L 2212.69,1061.49 L 2223.7,1073.72 L 2231.93,1087.97 L 2237.02,1103.63 L 2237.52,1108.44 z " style="fill-opacity:1.000000;fill:rgb(175,226,240);stroke:rgb(0,0,0);stroke-width:2"/></g>
<g fill-rule="evenodd"><path d="M 3107.68,1079.33 L 3110.96,1082.98 L 3112.83,1085.69 L 3117.55,1094.38 L 3118.81,1097.42 L 3121.61,1106.9 L 3122.22,1110.14 L 3122.99,1120 L 3122.9,1123.3 L 3121.61,1133.1 L 3120.84,1136.3 L 3117.55,1145.62 L 3116.13,1148.6 L 3110.96,1157.02 L 3108.95,1159.64 L 3102.15,1166.81 L 3099.64,1168.95 L 3091.5,1174.55 L 3088.6,1176.13 L 3079.46,1179.91 L 3076.3,1180.84 L 3066.58,1182.65 L 3063.3,1182.9 L 3053.42,1182.65 L 3050.14,1182.22 L 3040.54,1179.91 L 3037.42,1178.81 L 3028.51,1174.55 L 3025.69,1172.83 L 3017.85,1166.81 L 3015.46,1164.54 L 2633.91,782.992 L 2482.05,782.992 L 2480.03,783.858 L 2466.77,786.584 L 2460,786.928 L 2446.53,785.556 L 2433.61,781.504 L 2421.77,774.932 L 2411.49,766.11 L 2403.2,755.402 L 2397.24,743.244 L 2393.84,730.134 L 2393.16,716.612 L 2395.21,703.226 L 2399.91,690.526 L 2407.08,679.034 L 2416.41,669.218 L 2427.52,661.482 L 2439.97,656.142 L 2453.23,653.416 L 2460,653.072 L 2473.47,654.444 L 2481.65,657.008 L 2660,657.008 L 2672.29,658.218 L 2684.1,661.802 L 2695,667.624 L 2704.54,675.456 L 3104.54,1075.46 L 3107.68,1079.33 z " style="fill-opacity:1.000000;fill:rgb(228,158,79);stroke:rgb(0,0,0);stroke-width:2"/></g>
<g fill-rule="evenodd"><path d="M 3322.99,1120 L 3322.99,1420 L 3321.78,1432.29 L 3318.2,1444.1 L 3312.37,1455 L 3304.54,1464.54 L 3204.54,1564.54 L 3195,1572.37 L 3184.1,1578.2 L 3172.29,1581.78 L 3160,1582.99 L 2482.05,1582.99 L 2480.03,1583.86 L 2466.77,1586.58 L 2460,1586.93 L 2446.53,1585.56 L 2433.61,1581.5 L 2421.77,1574.93 L 2411.49,1566.11 L 2403.2,1555.4 L 2397.24,1543.24 L 2393.84,1530.13 L 2393.16,1516.61 L 2395.21,1503.23 L 2399.91,1490.53 L 2407.08,1479.03 L 2416.41,1469.22 L 2427.52,1461.48 L 2439.97,1456.14 L 2453.23,1453.42 L 2460,1453.07 L 2473.47,1454.44 L 2481.65,1457.01 L 3133.91,1457.01 L 3197.01,1393.91 L 3197.01,1120 L 3198.38,1106.9 L 3202.45,1094.38 L 3209.04,1082.97 L 3217.85,1073.19 L 3228.5,1065.45 L 3240.53,1060.09 L 3253.41,1057.35 L 3266.58,1057.35 L 3279.46,1060.09 L 3291.5,1065.45 L 3302.15,1073.19 L 3310.96,1082.97 L 3317.55,1094.38 L 3321.61,1106.9 L 3322.99,1120 z " style="fill-opacity:1.000000;fill:rgb(50,21,73);stroke:rgb(0,0,0);stroke-width:2"/></g>
<g fill-rule="evenodd"><path d="M 3322.09,528.528 L 3320.68,536.914 L 3315.83,549.16 L 3309.81,558.556 L 3301.03,567.794 L 3299.15,569.35 L 3290.57,575.076 L 3288.03,576.41 L 3278.86,580.102 L 3275.69,581.006 L 3266.37,582.668 L 3260,582.992 L 3247.32,581.702 L 3235.16,577.886 L 3224.02,571.7 L 3215.01,564.09 L 3206.54,553.32 L 3200.97,541.98 L 3197.69,529.226 L 3197.13,516.07 L 3214.92,231.394 L 3212.35,218.878 L 3212,188 L 3213.39,174.312 L 3217.51,161.184 L 3224.19,149.154 L 3233.15,138.716 L 3244.03,130.294 L 3256.38,124.234 L 3269.7,120.786 L 3283.44,120.088 L 3297.04,122.172 L 3309.95,126.95 L 3321.62,134.228 L 3331.59,143.708 L 3339.45,155 L 3344.88,167.644 L 3347.65,181.122 L 3348,212 L 3346.61,225.688 L 3342.49,238.816 L 3340.46,242.47 L 3322.87,523.928 L 3322.09,528.528 z " style="fill-opacity:1.000000;fill:rgb(253,130,78);stroke:rgb(0,0,0);stroke-width:2"/></g>
<g fill-rule="evenodd"><path d="M 3122.09,528.528 L 3120.68,536.914 L 3115.83,549.16 L 3109.81,558.556 L 3101.03,567.794 L 3099.15,569.35 L 3090.57,575.076 L 3088.03,576.41 L 3078.86,580.102 L 3075.69,581.006 L 3066.37,582.668 L 3060,582.992 L 3047.32,581.702 L 3035.16,577.886 L 3024.02,571.7 L 3015.01,564.09 L 3006.54,553.32 L 3000.97,541.98 L 2997.69,529.226 L 2997.13,516.07 L 3014.92,231.394 L 3012.35,218.878 L 3012,188 L 3013.39,174.312 L 3017.51,161.184 L 3024.19,149.154 L 3033.15,138.716 L 3044.03,130.294 L 3056.38,124.234 L 3069.7,120.786 L 3083.44,120.088 L 3097.04,122.172 L 3109.95,126.95 L 3121.62,134.228 L 3131.59,143.708 L 3139.45,155 L 3144.88,167.644 L 3147.65,181.122 L 3148,212 L 3146.61,225.688 L 3142.49,238.816 L 3140.46,242.47 L 3122.87,523.928 L 3122.09,528.528 z " style="fill-opacity:1.000000;fill:rgb(169,8,112);stroke:rgb(0,0,0);stroke-width:2"/></g>
<g fill-rule="evenodd"><path d="M 5406.52,2257.01 L 7160,2257.01 L 7172.29,2258.22 L 7184.1,2261.8 L 7195,2267.62 L 7204.54,2275.46 L 7212.37,2285 L 7218.2,2295.89 L 7221.78,2307.71 L 7222.99,2320 L 7222.99,3493.91 L 7266.09,3537.01 L 7375.22,3537.01 L 7378.99,3535.33 L 7392.89,3532.37 L 7407.11,3532.37 L 7421.01,3535.33 L 7424.78,3537.01 L 7575.24,3537.01 L 7579.64,3535.12 L 7593.12,3532.35 L 7600,3532 L 7613.69,3533.39 L 7626.82,3537.51 L 7638.85,3544.19 L 7649.28,3553.15 L 7657.71,3564.03 L 7663.77,3576.38 L 7667.21,3589.7 L 7667.91,3603.44 L 7665.83,3617.04 L 7661.05,3629.95 L 7653.77,3641.62 L 7644.29,3651.59 L 7633,3659.45 L 7620.36,3664.88 L 7606.88,3667.65 L 7600,3668 L 7586.31,3666.61 L 7574.79,3662.99 L 7424.78,3662.99 L 7421.01,3664.67 L 7407.11,3667.63 L 7392.89,3667.63 L 7378.99,3664.67 L 7375.22,3662.99 L 7240,3662.99 L 7227.71,3661.78 L 7215.89,3658.2 L 7205,3652.37 L 7195.46,3644.54 L 7115.46,3564.54 L 7107.62,3555 L 7101.8,3544.1 L 7098.22,3532.29 L 7097.01,3520 L 7097.01,2382.99 L 5422.99,2382.99 L 5422.99,3520 L 5422.91,3523.19 L 5421.78,3532.29 L 5420.98,3535.79 L 5418.2,3544.1 L 5416.55,3547.74 L 5412.37,3555 L 5409.81,3558.56 L 5404.54,3564.54 L 5201.03,3767.79 L 5194.31,3772.83 L 5190.57,3775.08 L 5182.57,3778.81 L 5178.86,3780.1 L 5169.85,3782.22 L 5160,3782.99 L 5156.7,3782.9 L 5147.32,3781.7 L 5143.7,3780.84 L 5135.16,3777.89 L 5131.4,3776.13 L 5124.02,3771.7 L 5120.36,3768.95 L 5114.34,3763.4 L 5111.05,3759.64 L 5106.54,3753.32 L 5103.87,3748.6 L 5100.93,3741.88 L 5099.15,3736.3 L 5097.74,3729.54 L 5097.09,3723.3 L 5097.09,3716.81 L 5097.78,3710.14 L 5099.02,3704.21 L 5101.19,3697.42 L 5103.45,3692.26 L 5107.17,3685.69 L 5110.19,3681.44 L 5115.46,3675.46 L 5297.01,3493.91 L 5297.01,2782.99 L 5160,2782.99 L 5147.32,2781.7 L 5135.16,2777.89 L 5124.02,2771.7 L 5114.34,2763.4 L 5106.54,2753.32 L 5105.45,2751.5 L 5100.93,2741.88 L 5100.09,2739.46 L 5097.74,2729.54 L 5097.35,2726.58 L 5097.09,2716.81 L 5097.35,2713.41 L 5099.02,2704.21 L 5100.09,2700.53 L 5103.45,2692.26 L 5105.45,2688.5 L 5110.19,2681.44 L 5113.19,2677.85 L 5118.97,2672.21 L 5122.97,2669.04 L 5129.43,2664.92 L 5134.38,2662.45 L 5141.14,2659.9 L 5146.9,2658.38 L 5153.63,2657.33 L 5160,2657.01 L 5297.01,2657.01 L 5297.01,2367.07 L 5296.3,2366.28 L 5288.07,2352.03 L 5282.98,2336.37 L 5281.26,2320 L 5282.98,2303.63 L 5288.07,2287.97 L 5296.3,2273.72 L 5307.31,2261.49 L 5320.63,2251.81 L 5335.67,2245.11 L 5351.77,2241.69 L 5368.23,2241.69 L 5384.33,2245.11 L 5399.37,2251.81 L 5406.52,2257.01 z " style="fill-opacity:1.000000;fill:rgb(212,178,138);stroke:rgb(0,0,0);stroke-width:2"/></g>
<g fill-rule="evenodd"><path d="M 4822.99,3520 L 4822.99,3813.08 L 4852.22,3944.6 L 4859.45,3955 L 4864.88,3967.64 L 4867.65,3981.12 L 4868,4012 L 4866.61,4025.69 L 4862.49,4038.82 L 4855.81,4050.85 L 4846.85,4061.28 L 4835.97,4069.71 L 4823.62,4075.77 L 4810.3,4079.21 L 4796.56,4079.91 L 4782.96,4077.83 L 4770.05,4073.05 L 4758.38,4065.77 L 4748.41,4056.29 L 4740.55,4045 L 4735.12,4032.36 L 4732.35,4018.88 L 4732,3988 L 4732.25,3985.52 L 4698.51,3833.66 L 4697.38,3826.87 L 4697.01,3820 L 4697.01,3042.35 L 4693.84,3030.13 L 4693.16,3016.61 L 4695.21,3003.23 L 4699.91,2990.53 L 4707.08,2979.03 L 4716.41,2969.22 L 4727.52,2961.48 L 4739.97,2956.14 L 4753.23,2953.42 L 4760,2953.07 L 4773.47,2954.44 L 4786.39,2958.5 L 4798.23,2965.07 L 4808.51,2973.89 L 4816.8,2984.6 L 4822.76,2996.76 L 4826.16,3009.87 L 4826.84,3023.39 L 4824.79,3036.77 L 4822.99,3041.63 L 4822.99,3520 z " style="fill-opacity:1.000000;fill:rgb(41,84,72);stroke:rgb(0,0,0);stroke-width:2"/></g>
<g fill-rule="evenodd"><path d="M 4497.01,3720 L 4497.01,3042.35 L 4493.84,3030.13 L 4493.16,3016.61 L 4495.21,3003.23 L 4499.91,2990.53 L 4507.08,2979.03 L 4516.41,2969.22 L 4527.52,2961.48 L 4539.97,2956.14 L 4553.23,2953.42 L 4560,2953.07 L 4573.47,2954.44 L 4586.39,2958.5 L 4598.23,2965.07 L 4608.51,2973.89 L 4616.8,2984.6 L 4622.76,2996.76 L 4626.16,3009.87 L 4626.84,3023.39 L 4624.79,3036.77 L 4622.99,3041.63 L 4622.99,3813.08 L 4652.22,3944.6 L 4659.45,3955 L 4664.88,3967.64 L 4667.65,3981.12 L 4668,4012 L 4666.61,4025.69 L 4662.49,4038.82 L 4655.81,4050.85 L 4646.85,4061.28 L 4635.97,4069.71 L 4623.62,4075.77 L 4610.3,4079.21 L 4596.56,4079.91 L 4582.96,4077.83 L 4570.05,4073.05 L 4558.38,4065.77 L 4548.41,4056.29 L 4540.55,4045 L 4535.12,4032.36 L 4532.35,4018.88 L 4532,3988 L 4532.25,3985.52 L 4498.51,3833.66 L 4497.38,3826.87 L 4497.01,3820 L 4497.01,3720 z " style="fill-opacity:1.000000;fill:rgb(154,10,188);stroke:rgb(0,0,0);stroke-width:2"/></g>
<g fill-rule="evenodd"><path d="M 4297.01,3320 L 4297.01,3042.35 L 4293.84,3030.13 L 4293.16,3016.61 L 4295.21,3003.23 L 4299.91,2990.53 L 4307.08,2979.03 L 4316.41,2969.22 L 4327.52,2961.48 L 4339.97,2956.14 L 4353.23,2953.42 L 4360,2953.07 L 4373.47,2954.44 L 4386.39,2958.5 L 4398.23,2965.07 L 4408.51,2973.89 L 4416.8,2984.6 L 4422.76,2996.76 L 4426.16,3009.87 L 4426.84,3023.39 L 4424.79,3036.77 L 4422.99,3041.63 L 4422.99,3813.08 L 4452.22,3944.6 L 4459.45,3955 L 4464.88,3967.64 L 4467.65,3981.12 L 4468,4012 L 4466.61,4025.69 L 4462.49,4038.82 L 4455.81,4050.85 L 4446.85,4061.28 L 4435.97,4069.71 L 4423.62,4075.77 L 4410.3,4079.21 L 4396.56,4079.91 L 4382.96,4077.83 L 4370.05,4073.05 L 4358.38,4065.77 L 4348.41,4056.29 L 4340.55,4045 L 4335.12,4032.36 L 4332.35,4018.88 L 4332,3988 L 4332.25,3985.52 L 4298.51,3833.66 L 4297.38,3826.87 L 4297.01,3820 L 4297.01,3320 z " style="fill-opacity:1.000000;fill:rgb(213,14,24);stroke:rgb(0,0,0);stroke-width:2"/></g>
<g fill-rule="evenodd"><path d="M 4097.01,3520 L 4097.01,3042.35 L 4093.84,3030.13 L 4093.16,3016.61 L 4095.21,3003.23 L 4099.91,2990.53 L 4107.08,2979.03 L 4116.41,2969.22 L 4127.52,2961.48 L 4139.97,2956.14 L 4153.23,2953.42 L 4160,2953.07 L 4173.47,2954.44 L 4186.39,2958.5 L 4198.23,2965.07 L 4208.51,2973.89 L 4216.8,2984.6 L 4222.76,2996.76 L 4226.16,3009.87 L 4226.84,3023.39 L 4224.79,3036.77 L 4222.99,3041.63 L 4222.99,3813.08 L 4252.22,3944.6 L 4259.45,3955 L 4264.88,3967.64 L 4267.65,3981.12 L 4268,4012 L 4266.61,4025.69 L 4262.49,4038.82 L 4255.81,4050.85 L 4246.85,4061.28 L 4235.97,4069.71 L 4223.62,4075.77 L 4210.3,4079.21 L 4196.56,4079.91 L 4182.96,4077.83 L 4170.05,4073.05 L 4158.38,4065.77 L 4148.41,4056.29 L 4140.55,4045 L 4135.12,4032.36 L 4132.35,4018.88 L 4132,3988 L 4132.25,3985.52 L 4098.51,3833.66 L 4097.38,3826.87 L 4097.01,3820 L 4097.01,3520 z " style="fill-opacity:1.000000;fill:rgb(168,68,172);stroke:rgb(0,0,0);stroke-width:2"/></g>
<g fill-rule="evenodd"><path d="M 3897.01,3720 L 3897.01,3086.93 L 3893.07,3086.93 L 3893.07,2953.07 L 4026.93,2953.07 L 4026.93,3086.93 L 4022.99,3086.93 L 4022.99,3813.08 L 4052.22,3944.6 L 4059.45,3955 L 4064.88,3967.64 L 4067.65,3981.12 L 4068,4012 L 4066.61,4025.69 L 4062.49,4038.82 L 4055.81,4050.85 L 4046.85,4061.28 L 4035.97,4069.71 L 4023.62,4075.77 L 4010.3,4079.21 L 3996.56,4079.91 L 3982.96,4077.83 L 3970.05,4073.05 L 3958.38,4065.77 L 3948.41,4056.29 L 3940.55,4045 L 3935.12,4032.36 L 3932.35,4018.88 L 3932,3988 L 3932.25,3985.52 L 3898.51,3833.66 L 3897.38,3826.87 L 3897.01,3820 L 3897.01,3720 z " style="fill-opacity:1.000000;fill:rgb(91,243,142);stroke:rgb(0,0,0);stroke-width:2"/></g>
<g fill-rule="evenodd"><path d="M 5597.01,3186.93 L 5593.07,3186.93 L 5593.07,3053.07 L 5726.93,3053.07 L 5726.93,3186.93 L 5722.99,3186.93 L 5722.99,3553.07 L 5726.93,3553.07 L 5726.93,3686.93 L 5593.07,3686.93 L 5593.07,3553.07 L 5597.01,3553.07 L 5597.01,3186.93 z " style="fill-opacity:1.000000;fill:rgb(76,215,45);stroke:rgb(0,0,0);stroke-width:2"/></g>
<g fill-rule="evenodd"><path d="M 5052.22,3944.6 L 5059.45,3955 L 5064.88,3967.64 L 5067.65,3981.12 L 5068,4012 L 5066.61,4025.69 L 5062.49,4038.82 L 5055.81,4050.85 L 5046.85,4061.28 L 5035.97,4069.71 L 5023.62,4075.77 L 5010.3,4079.21 L 4996.56,4079.91 L 4982.96,4077.83 L 4970.05,4073.05 L 4958.38,4065.77 L 4948.41,4056.29 L 4940.55,4045 L 4935.12,4032.36 L 4932.35,4018.88 L 4932,3988 L 4932.25,3985.52 L 4898.51,3833.66 L 4897.38,3826.87 L 4897.01,3820 L 4897.01,2382.99 L 4022.99,2382.99 L 4022.99,2797.65 L 4026.16,2809.86 L 4026.84,2823.39 L 4024.79,2836.77 L 4020.09,2849.47 L 4012.92,2860.96 L 4003.59,2870.78 L 3992.48,2878.52 L 3980.03,2883.86 L 3966.77,2886.58 L 3960,2886.93 L 3946.53,2885.55 L 3933.61,2881.5 L 3921.77,2874.93 L 3911.49,2866.11 L 3903.2,2855.4 L 3897.24,2843.24 L 3893.84,2830.13 L 3893.16,2816.61 L 3895.21,2803.22 L 3897.01,2798.37 L 3897.01,2320 L 3898.22,2307.71 L 3901.8,2295.89 L 3907.62,2285 L 3915.46,2275.46 L 3925,2267.62 L 3935.89,2261.8 L 3947.71,2258.22 L 3960,2257.01 L 4960,2257.01 L 4972.29,2258.22 L 4984.1,2261.8 L 4995,2267.62 L 5004.54,2275.46 L 5012.37,2285 L 5018.2,2295.89 L 5021.78,2307.71 L 5022.99,2320 L 5022.99,3257.01 L 5160,3257.01 L 5166.58,3257.35 L 5173.1,3258.38 L 5179.46,3260.09 L 5185.62,3262.45 L 5191.49,3265.45 L 5197.02,3269.04 L 5202.15,3273.19 L 5206.81,3277.85 L 5210.96,3282.98 L 5214.55,3288.5 L 5217.55,3294.38 L 5219.91,3300.53 L 5221.61,3306.9 L 5222.65,3313.41 L 5222.99,3320 L 5222.65,3326.58 L 5221.61,3333.1 L 5219.91,3339.46 L 5217.55,3345.62 L 5214.55,3351.5 L 5210.96,3357.02 L 5206.81,3362.15 L 5202.15,3366.81 L 5197.02,3370.96 L 5191.5,3374.55 L 5185.62,3377.55 L 5179.46,3379.91 L 5173.1,3381.61 L 5166.58,3382.65 L 5160,3382.99 L 5022.99,3382.99 L 5022.99,3813.08 L 5052.22,3944.6 z " style="fill-opacity:1.000000;fill:rgb(155,9,66);stroke:rgb(0,0,0);stroke-width:2"/></g>
<g fill-rule="evenodd"><path d="M 4097.01,2567.07 L 4096.3,2566.28 L 4088.07,2552.03 L 4082.98,2536.37 L 4081.26,2520 L 4082.98,2503.63 L 4088.07,2487.97 L 4096.3,2473.72 L 4107.31,2461.49 L 4120.63,2451.81 L 4135.67,2445.11 L 4151.77,2441.69 L 4168.23,2441.69 L 4184.33,2445.11 L 4199.37,2451.81 L 4212.69,2461.49 L 4223.7,2473.72 L 4231.93,2487.97 L 4237.02,2503.63 L 4238.74,2520 L 4237.02,2536.37 L 4231.93,2552.03 L 4223.7,2566.28 L 4222.99,2567.07 L 4222.99,2757.01 L 4337.95,2757.01 L 4339.97,2756.14 L 4353.23,2753.41 L 4360,2753.07 L 4373.47,2754.44 L 4381.65,2757.01 L 4537.95,2757.01 L 4539.97,2756.14 L 4553.23,2753.41 L 4560,2753.07 L 4573.47,2754.44 L 4581.65,2757.01 L 4737.95,2757.01 L 4739.97,2756.14 L 4753.23,2753.41 L 4760,2753.07 L 4773.47,2754.44 L 4786.39,2758.49 L 4798.23,2765.07 L 4808.51,2773.89 L 4816.8,2784.6 L 4822.76,2796.75 L 4826.16,2809.86 L 4826.84,2823.39 L 4824.79,2836.77 L 4820.09,2849.47 L 4812.92,2860.96 L 4803.59,2870.78 L 4792.48,2878.52 L 4780.03,2883.86 L 4766.77,2886.58 L 4760,2886.93 L 4746.53,2885.55 L 4738.35,2882.99 L 4582.05,2882.99 L 4580.03,2883.86 L 4566.77,2886.58 L 4560,2886.93 L 4546.53,2885.55 L 4538.35,2882.99 L 4382.05,2882.99 L 4380.03,2883.86 L 4366.77,2886.58 L 4360,2886.93 L 4346.53,2885.55 L 4338.35,2882.99 L 4182.05,2882.99 L 4180.03,2883.86 L 4166.77,2886.58 L 4160,2886.93 L 4146.53,2885.55 L 4133.61,2881.5 L 4121.77,2874.93 L 4111.49,2866.11 L 4103.2,2855.4 L 4097.24,2843.24 L 4093.84,2830.13 L 4093.16,2816.61 L 4095.21,2803.22 L 4097.01,2798.37 L 4097.01,2567.07 z " style="fill-opacity:1.000000;fill:rgb(229,6,196);stroke:rgb(0,0,0);stroke-width:2"/></g>
<g fill-rule="evenodd"><path d="M 6722.99,3141.63 L 6722.99,3597.65 L 6726.16,3609.87 L 6726.84,3623.39 L 6724.79,3636.77 L 6720.09,3649.47 L 6712.92,3660.97 L 6703.59,3670.78 L 6692.48,3678.52 L 6680.03,3683.86 L 6666.77,3686.58 L 6660,3686.93 L 6646.53,3685.56 L 6633.61,3681.5 L 6621.77,3674.93 L 6611.49,3666.11 L 6603.2,3655.4 L 6597.24,3643.24 L 6593.84,3630.13 L 6593.16,3616.61 L 6595.21,3603.23 L 6597.01,3598.37 L 6597.01,3142.35 L 6593.84,3130.13 L 6593.16,3116.61 L 6595.21,3103.23 L 6599.91,3090.53 L 6607.08,3079.03 L 6616.41,3069.22 L 6627.52,3061.48 L 6639.97,3056.14 L 6653.23,3053.42 L 6660,3053.07 L 6673.47,3054.44 L 6686.39,3058.5 L 6698.23,3065.07 L 6708.51,3073.89 L 6716.8,3084.6 L 6722.76,3096.76 L 6726.16,3109.87 L 6726.84,3123.39 L 6724.79,3136.77 L 6722.99,3141.63 z " style="fill-opacity:1.000000;fill:rgb(51,175,205);stroke:rgb(0,0,0);stroke-width:2"/></g>
<g fill-rule="evenodd"><path d="M 5797.01,3598.37 L 5797.01,3142.35 L 5793.84,3130.13 L 5793.16,3116.61 L 5795.21,3103.23 L 5799.91,3090.53 L 5807.08,3079.03 L 5816.41,3069.22 L 5827.52,3061.48 L 5839.97,3056.14 L 5853.23,3053.42 L 5860,3053.07 L 5873.47,3054.44 L 5886.39,3058.5 L 5898.23,3065.07 L 5908.51,3073.89 L 5916.8,3084.6 L 5922.76,3096.76 L 5926.16,3109.87 L 5926.84,3123.39 L 5924.79,3136.77 L 5922.99,3141.63 L 5922.99,3597.65 L 5926.16,3609.87 L 5926.84,3623.39 L 5924.79,3636.77 L 5920.09,3649.47 L 5912.92,3660.97 L 5903.59,3670.78 L 5892.48,3678.52 L 5880.03,3683.86 L 5866.77,3686.58 L 5860,3686.93 L 5846.53,3685.56 L 5833.61,3681.5 L 5821.77,3674.93 L 5811.49,3666.11 L 5803.2,3655.4 L 5797.24,3643.24 L 5793.84,3630.13 L 5793.16,3616.61 L 5795.21,3603.23 L 5797.01,3598.37 z " style="fill-opacity:1.000000;fill:rgb(163,132,127);stroke:rgb(0,0,0);stroke-width:2"/></g>
<g fill-rule="evenodd"><path d="M 5997.01,3598.37 L 5997.01,3142.35 L 5993.84,3130.13 L 5993.16,3116.61 L 5995.21,3103.23 L 5999.91,3090.53 L 6007.08,3079.03 L 6016.41,3069.22 L 6027.52,3061.48 L 6039.97,3056.14 L 6053.23,3053.42 L 6060,3053.07 L 6073.47,3054.44 L 6086.39,3058.5 L 6098.23,3065.07 L 6108.51,3073.89 L 6116.8,3084.6 L 6122.76,3096.76 L 6126.16,3109.87 L 6126.84,3123.39 L 6124.79,3136.77 L 6122.99,3141.63 L 6122.99,3597.65 L 6126.16,3609.87 L 6126.84,3623.39 L 6124.79,3636.77 L 6120.09,3649.47 L 6112.92,3660.97 L 6103.59,3670.78 L 6092.48,3678.52 L 6080.03,3683.86 L 6066.77,3686.58 L 6060,3686.93 L 6046.53,3685.56 L 6033.61,3681.5 L 6021.77,3674.93 L 6011.49,3666.11 L 6003.2,3655.4 L 5997.24,3643.24 L 5993.84,3630.13 L 5993.16,3616.61 L 5995.21,3603.23 L 5997.01,3598.37 z " style="fill-opacity:1.000000;fill:rgb(45,173,212);stroke:rgb(0,0,0);stroke-width:2"/></g>
<g fill-rule="evenodd"><path d="M 6197.01,3598.37 L 6197.01,3142.35 L 6193.84,3130.13 L 6193.16,3116.61 L 6195.21,3103.23 L 6199.91,3090.53 L 6207.08,3079.03 L 6216.41,3069.22 L 6227.52,3061.48 L 6239.97,3056.14 L 6253.23,3053.42 L 6260,3053.07 L 6273.47,3054.44 L 6286.39,3058.5 L 6298.23,3065.07 L 6308.51,3073.89 L 6316.8,3084.6 L 6322.76,3096.76 L 6326.16,3109.87 L 6326.84,3123.39 L 6324.79,3136.77 L 6322.99,3141.63 L 6322.99,3597.65 L 6326.16,3609.87 L 6326.84,3623.39 L 6324.79,3636.77 L 6320.09,3649.47 L 6312.92,3660.97 L 6303.59,3670.78 L 6292.48,3678.52 L 6280.03,3683.86 L 6266.77,3686.58 L 6260,3686.93 L 6246.53,3685.56 L 6233.61,3681.5 L 6221.77,3674.93 L 6211.49,3666.11 L 6203.2,3655.4 L 6197.24,3643.24 L 6193.84,3630.13 L 6193.16,3616.61 L 6195.21,3603.23 L 6197.01,3598.37 z " style="fill-opacity:1.000000;fill:rgb(118,71,222);stroke:rgb(0,0,0);stroke-width:2"/></g>
<g fill-rule="evenodd"><path d="M 6397.01,3598.37 L 6397.01,3142.35 L 6393.84,3130.13 L 6393.16,3116.61 L 6395.21,3103.23 L 6399.91,3090.53 L 6407.08,3079.03 L 6416.41,3069.22 L 6427.52,3061.48 L 6439.97,3056.14 L 6453.23,3053.42 L 6460,3053.07 L 6473.47,3054.44 L 6486.39,3058.5 L 6498.23,3065.07 L 6508.51,3073.89 L 6516.8,3084.6 L 6522.76,3096.76 L 6526.16,3109.87 L 6526.84,3123.39 L 6524.79,3136.77 L 6522.99,3141.63 L 6522.99,3597.65 L 6526.16,3609.87 L 6526.84,3623.39 L 6524.79,3636.77 L 6520.09,3649.47 L 6512.92,3660.97 L 6503.59,3670.78 L 6492.48,3678.52 L 6480.03,3683.86 L 6466.77,3686.58 L 6460,3686.93 L 6446.53,3685.56 L 6433.61,3681.5 L 6421.77,3674.93 L 6411.49,3666.11 L 6403.2,3655.4 L 6397.24,3643.24 L 6393.84,3630.13 L 6393.16,3616.61 L 6395.21,3603.23 L 6397.01,3598.37 z " style="fill-opacity:1.000000;fill:rgb(50,28,236);stroke:rgb(0,0,0);stroke-width:2"/></g>
<g fill-rule="evenodd"><path d="M 5606.52,457.008 L 6037.95,457.008 L 6039.97,456.142 L 6053.23,453.416 L 6060,453.072 L 6073.47,454.444 L 6086.39,458.496 L 6098.23,465.068 L 6108.51,473.89 L 6116.8,484.598 L 6122.76,496.756 L 6126.16,509.866 L 6126.84,523.388 L 6124.79,536.774 L 6120.09,549.474 L 6112.92,560.966 L 6103.59,570.782 L 6092.48,578.518 L 6080.03,583.858 L 6066.77,586.584 L 6060,586.928 L 6046.53,585.556 L 6038.35,582.992 L 5606.52,582.992 L 5599.37,588.19 L 5584.33,594.886 L 5568.23,598.308 L 5551.77,598.308 L 5535.67,594.886 L 5520.63,588.19 L 5507.31,578.514 L 5496.3,566.282 L 5488.07,552.026 L 5482.98,536.37 L 5481.26,520 L 5482.98,503.63 L 5488.07,487.974 L 5496.3,473.718 L 5507.31,461.486 L 5520.63,451.81 L 5535.67,445.114 L 5551.77,441.692 L 5568.23,441.692 L 5584.33,445.114 L 5599.37,451.81 L 5606.52,457.008 z " style="fill-opacity:1.000000;fill:rgb(74,196,48);stroke:rgb(0,0,0);stroke-width:2"/></g>
<g fill-rule="evenodd"><path d="M 4537.01,236.756 L 4535.12,232.356 L 4532.35,218.878 L 4532,188 L 4533.39,174.312 L 4537.51,161.184 L 4544.19,149.154 L 4553.15,138.716 L 4564.03,130.294 L 4576.38,124.234 L 4589.7,120.786 L 4603.44,120.088 L 4617.04,122.172 L 4629.95,126.95 L 4641.62,134.228 L 4651.59,143.708 L 4659.45,155 L 4664.88,167.644 L 4667.65,181.122 L 4668,212 L 4666.61,225.688 L 4662.99,237.21 L 4662.99,533.906 L 4786.09,657.006 L 6060,657.008 L 6072.29,658.218 L 6084.1,661.802 L 6095,667.624 L 6104.54,675.456 L 6304.54,875.456 L 6312.37,885.002 L 6318.2,895.894 L 6321.78,907.71 L 6322.99,920 L 6322.99,1097.65 L 6326.16,1109.87 L 6326.84,1123.39 L 6324.79,1136.77 L 6320.09,1149.47 L 6312.92,1160.97 L 6303.59,1170.78 L 6292.48,1178.52 L 6280.03,1183.86 L 6266.77,1186.58 L 6260,1186.93 L 6246.53,1185.56 L 6233.61,1181.5 L 6221.77,1174.93 L 6211.49,1166.11 L 6203.2,1155.4 L 6197.24,1143.24 L 6193.84,1130.13 L 6193.16,1116.61 L 6195.21,1103.23 L 6197.01,1098.37 L 6197.01,946.092 L 6033.91,782.992 L 4760,782.992 L 4747.71,781.78 L 4735.89,778.196 L 4725,772.374 L 4715.46,764.542 L 4555.46,604.542 L 4547.62,594.996 L 4541.8,584.104 L 4538.22,572.288 L 4537.01,560 L 4537.01,236.756 z " style="fill-opacity:1.000000;fill:rgb(246,32,35);stroke:rgb(0,0,0);stroke-width:2"/></g>
<g fill-rule="evenodd"><path d="M 4337.01,236.756 L 4335.12,232.356 L 4332.35,218.878 L 4332,188 L 4333.39,174.312 L 4337.51,161.184 L 4344.19,149.154 L 4353.15,138.716 L 4364.03,130.294 L 4376.38,124.234 L 4389.7,120.786 L 4403.44,120.088 L 4417.04,122.172 L 4429.95,126.95 L 4441.62,134.228 L 4451.59,143.708 L 4459.45,155 L 4464.88,167.644 L 4467.65,181.122 L 4468,212 L 4466.61,225.688 L 4462.99,237.21 L 4462.99,833.906 L 4486.09,857.006 L 5960,857.008 L 5972.29,858.218 L 5984.1,861.802 L 5995,867.624 L 6004.54,875.456 L 6104.54,975.456 L 6112.37,985.002 L 6118.2,995.894 L 6121.78,1007.71 L 6122.99,1020 L 6122.99,1097.65 L 6126.16,1109.87 L 6126.84,1123.39 L 6124.79,1136.77 L 6120.09,1149.47 L 6112.92,1160.97 L 6103.59,1170.78 L 6092.48,1178.52 L 6080.03,1183.86 L 6066.77,1186.58 L 6060,1186.93 L 6046.53,1185.56 L 6033.61,1181.5 L 6021.77,1174.93 L 6011.49,1166.11 L 6003.2,1155.4 L 5997.24,1143.24 L 5993.84,1130.13 L 5993.16,1116.61 L 5995.21,1103.23 L 5997.01,1098.37 L 5997.01,1046.09 L 5933.91,982.992 L 4460,982.992 L 4447.71,981.78 L 4435.89,978.196 L 4425,972.374 L 4415.46,964.542 L 4355.46,904.542 L 4347.62,894.996 L 4341.8,884.104 L 4338.22,872.288 L 4337.01,860 L 4337.01,236.756 z " style="fill-opacity:1.000000;fill:rgb(133,108,251);stroke:rgb(0,0,0);stroke-width:2"/></g>
<g fill-rule="evenodd"><path d="M 6267.42,217.742 L 6317.85,486.752 L 6322.76,496.756 L 6326.16,509.866 L 6326.84,523.388 L 6324.79,536.774 L 6320.09,549.474 L 6312.92,560.966 L 6303.59,570.782 L 6292.48,578.518 L 6280.03,583.858 L 6266.77,586.584 L 6260,586.928 L 6246.53,585.556 L 6233.61,581.504 L 6221.77,574.932 L 6211.49,566.11 L 6203.2,555.402 L 6197.24,543.244 L 6193.84,530.134 L 6193.16,516.612 L 6194.11,510.404 L 6145.75,252.472 L 6140.55,245 L 6135.12,232.356 L 6132.35,218.878 L 6132,188 L 6133.39,174.312 L 6137.51,161.184 L 6144.19,149.154 L 6153.15,138.716 L 6164.03,130.294 L 6176.38,124.234 L 6189.7,120.786 L 6203.44,120.088 L 6217.04,122.172 L 6229.95,126.95 L 6241.62,134.228 L 6251.59,143.708 L 6259.45,155 L 6264.88,167.644 L 6267.65,181.122 L 6268,212 L 6267.42,217.742 z " style="fill-opacity:1.000000;fill:rgb(178,7,4);stroke:rgb(0,0,0);stroke-width:2"/></g>
<g fill-rule="evenodd"><path d="M 6517.85,486.752 L 6522.76,496.756 L 6526.16,509.866 L 6526.84,523.388 L 6524.79,536.774 L 6520.09,549.474 L 6512.92,560.966 L 6503.59,570.782 L 6492.48,578.518 L 6480.03,583.858 L 6466.77,586.584 L 6460,586.928 L 6446.53,585.556 L 6433.61,581.504 L 6421.77,574.932 L 6411.49,566.11 L 6403.2,555.402 L 6397.24,543.244 L 6393.84,530.134 L 6393.16,516.612 L 6394.11,510.404 L 6345.75,252.476 L 6340.55,245 L 6335.12,232.356 L 6332.35,218.878 L 6332,188 L 6333.39,174.312 L 6337.51,161.184 L 6344.19,149.154 L 6353.15,138.716 L 6364.03,130.294 L 6376.38,124.234 L 6389.7,120.786 L 6403.44,120.088 L 6417.04,122.172 L 6429.95,126.95 L 6441.62,134.228 L 6451.59,143.708 L 6459.45,155 L 6464.88,167.644 L 6467.65,181.122 L 6468,212 L 6467.42,217.742 L 6517.85,486.752 z " style="fill-opacity:1.000000;fill:rgb(244,236,11);stroke:rgb(0,0,0);stroke-width:2"/></g>
</svg>
