<?xml version="1.0" standalone="no"?>
<!DOCTYPE svg PUBLIC "-//W3C//DTD SVG 1.1//EN"
"http://www.w3.org/Graphics/SVG/1.1/DTD/svg11.dtd">
<svg width="7570.9" height="3959.82" viewBox="0 0 7570.9 3959.82" version="1.1"
xmlns="http://www.w3.org/2000/svg"
xmlns:xlink="http://www.w3.org/1999/xlink">
<g fill-rule="evenodd"><path d="M 684.252,1378.65 L 684.252,1221.17 L 841.732,1221.17 L 841.732,1378.65 L 684.252,1378.65 z " style="fill-opacity:1.000000;fill:rgb(103,198,105);stroke:rgb(0,0,0);stroke-width:2"/></g>
<g fill-rule="evenodd"><path d="M 684.252,2378.65 L 684.252,2221.17 L 841.732,2221.17 L 841.732,2378.65 L 684.252,2378.65 z " style="fill-opacity:1.000000;fill:rgb(115,81,255);stroke:rgb(0,0,0);stroke-width:2"/></g>
<g fill-rule="evenodd"><path d="M 7302.99,3347.91 L 7289.3,3346.52 L 7276.18,3342.4 L 7264.15,3335.72 L 7253.71,3326.76 L 7245.29,3315.88 L 7239.23,3303.53 L 7235.78,3290.21 L 7235.08,3276.47 L 7237.16,3262.87 L 7241.94,3249.97 L 7249.22,3238.29 L 7258.7,3228.32 L 7269.99,3220.46 L 7282.64,3215.03 L 7296.11,3212.26 L 7302.99,3211.91 L 7316.68,3213.3 L 7329.81,3217.42 L 7341.84,3224.1 L 7352.28,3233.06 L 7360.7,3243.94 L 7366.76,3256.3 L 7370.21,3269.62 L 7370.9,3283.36 L 7368.82,3296.96 L 7364.04,3309.86 L 7356.76,3321.53 L 7347.28,3331.51 L 7335.99,3339.37 L 7323.35,3344.79 L 7309.87,3347.56 L 7302.99,3347.91 z " style="fill-opacity:1.000000;fill:rgb(74,236,41);stroke:rgb(0,0,0);stroke-width:2"/></g>
<g fill-rule="evenodd"><path d="M 7570.9,3283.36 L 7568.82,3296.96 L 7564.04,3309.86 L 7556.76,3321.53 L 7547.28,3331.51 L 7535.99,3339.37 L 7523.35,3344.79 L 7509.87,3347.56 L 7502.99,3347.91 L 7489.3,3346.52 L 7476.18,3342.4 L 7464.15,3335.72 L 7453.71,3326.76 L 7445.29,3315.88 L 7439.23,3303.53 L 7435.78,3290.21 L 7435.08,3276.47 L 7437.16,3262.87 L 7441.94,3249.97 L 7449.22,3238.29 L 7458.7,3228.32 L 7469.99,3220.46 L 7482.64,3215.03 L 7496.11,3212.26 L 7502.99,3211.91 L 7516.68,3213.3 L 7529.81,3217.42 L 7541.84,3224.1 L 7552.28,3233.06 L 7560.7,3243.94 L 7566.76,3256.3 L 7570.21,3269.62 L 7570.9,3283.36 z " style="fill-opacity:1.000000;fill:rgb(205,186,171);stroke:rgb(0,0,0);stroke-width:2"/></g>
<g fill-rule="evenodd"><path d="M 7302.99,3147.91 L 7289.3,3146.52 L 7276.18,3142.4 L 7264.15,3135.72 L 7253.71,3126.76 L 7245.29,3115.88 L 7239.23,3103.53 L 7235.78,3090.21 L 7235.08,3076.47 L 7237.16,3062.87 L 7241.94,3049.97 L 7249.22,3038.29 L 7258.7,3028.32 L 7269.99,3020.46 L 7282.64,3015.03 L 7296.11,3012.26 L 7302.99,3011.91 L 7316.68,3013.3 L 7329.81,3017.42 L 7341.84,3024.1 L 7352.28,3033.06 L 7360.7,3043.94 L 7366.76,3056.3 L 7370.21,3069.62 L 7370.9,3083.36 L 7368.82,3096.96 L 7364.04,3109.86 L 7356.76,3121.53 L 7347.28,3131.51 L 7335.99,3139.37 L 7323.35,3144.79 L 7309.87,3147.56 L 7302.99,3147.91 z " style="fill-opacity:1.000000;fill:rgb(242,251,227);stroke:rgb(0,0,0);stroke-width:2"/></g>
<g fill-rule="evenodd"><path d="M 7570.9,3083.36 L 7568.82,3096.96 L 7564.04,3109.86 L 7556.76,3121.53 L 7547.28,3131.51 L 7535.99,3139.37 L 7523.35,3144.79 L 7509.87,3147.56 L 7502.99,3147.91 L 7489.3,3146.52 L 7476.18,3142.4 L 7464.15,3135.72 L 7453.71,3126.76 L 7445.29,3115.88 L 7439.23,3103.53 L 7435.78,3090.21 L 7435.08,3076.47 L 7437.16,3062.87 L 7441.94,3049.97 L 7449.22,3038.29 L 7458.7,3028.32 L 7469.99,3020.46 L 7482.64,3015.03 L 7496.11,3012.26 L 7502.99,3011.91 L 7516.68,3013.3 L 7529.81,3017.42 L 7541.84,3024.1 L 7552.28,3033.06 L 7560.7,3043.94 L 7566.76,3056.3 L 7570.21,3069.62 L 7570.9,3083.36 z " style="fill-opacity:1.000000;fill:rgb(70,124,194);stroke:rgb(0,0,0);stroke-width:2"/></g>
<g fill-rule="evenodd"><path d="M 7302.99,2947.91 L 7289.3,2946.52 L 7276.18,2942.4 L 7264.15,2935.72 L 7253.71,2926.76 L 7245.29,2915.88 L 7239.23,2903.53 L 7235.78,2890.21 L 7235.08,2876.47 L 7237.16,2862.87 L 7241.94,2849.97 L 7249.22,2838.29 L 7258.7,2828.32 L 7269.99,2820.46 L 7282.64,2815.03 L 7296.11,2812.26 L 7302.99,2811.91 L 7316.68,2813.3 L 7329.81,2817.42 L 7341.84,2824.1 L 7352.28,2833.06 L 7360.7,2843.94 L 7366.76,2856.3 L 7370.21,2869.62 L 7370.9,2883.36 L 7368.82,2896.96 L 7364.04,2909.86 L 7356.76,2921.53 L 7347.28,2931.51 L 7335.99,2939.37 L 7323.35,2944.79 L 7309.87,2947.56 L 7302.99,2947.91 z " style="fill-opacity:1.000000;fill:rgb(84,248,27);stroke:rgb(0,0,0);stroke-width:2"/></g>
<g fill-rule="evenodd"><path d="M 7570.9,2883.36 L 7568.82,2896.96 L 7564.04,2909.86 L 7556.76,2921.53 L 7547.28,2931.51 L 7535.99,2939.37 L 7523.35,2944.79 L 7509.87,2947.56 L 7502.99,2947.91 L 7489.3,2946.52 L 7476.18,2942.4 L 7464.15,2935.72 L 7453.71,2926.76 L 7445.29,2915.88 L 7439.23,2903.53 L 7435.78,2890.21 L 7435.08,2876.47 L 7437.16,2862.87 L 7441.94,2849.97 L 7449.22,2838.29 L 7458.7,2828.32 L 7469.99,2820.46 L 7482.64,2815.03 L 7496.11,2812.26 L 7502.99,2811.91 L 7516.68,2813.3 L 7529.81,2817.42 L 7541.84,2824.1 L 7552.28,2833.06 L 7560.7,2843.94 L 7566.76,2856.3 L 7570.21,2869.62 L 7570.9,2883.36 z " style="fill-opacity:1.000000;fill:rgb(232,231,141);stroke:rgb(0,0,0);stroke-width:2"/></g>
<g fill-rule="evenodd"><path d="M 7302.99,2747.91 L 7289.3,2746.52 L 7276.18,2742.4 L 7264.15,2735.72 L 7253.71,2726.76 L 7245.29,2715.88 L 7239.23,2703.53 L 7235.78,2690.21 L 7235.08,2676.47 L 7237.16,2662.87 L 7241.94,2649.97 L 7249.22,2638.29 L 7258.7,2628.32 L 7269.99,2620.46 L 7282.64,2615.03 L 7296.11,2612.26 L 7302.99,2611.91 L 7316.68,2613.3 L 7329.81,2617.42 L 7341.84,2624.1 L 7352.28,2633.06 L 7360.7,2643.94 L 7366.76,2656.3 L 7370.21,2669.62 L 7370.9,2683.36 L 7368.82,2696.96 L 7364.04,2709.86 L 7356.76,2721.53 L 7347.28,2731.51 L 7335.99,2739.37 L 7323.35,2744.79 L 7309.87,2747.56 L 7302.99,2747.91 z " style="fill-opacity:1.000000;fill:rgb(118,90,46);stroke:rgb(0,0,0);stroke-width:2"/></g>
<g fill-rule="evenodd"><path d="M 7570.9,2683.36 L 7568.82,2696.96 L 7564.04,2709.86 L 7556.76,2721.53 L 7547.28,2731.51 L 7535.99,2739.37 L 7523.35,2744.79 L 7509.87,2747.56 L 7502.99,2747.91 L 7489.3,2746.52 L 7476.18,2742.4 L 7464.15,2735.72 L 7453.71,2726.76 L 7445.29,2715.88 L 7439.23,2703.53 L 7435.78,2690.21 L 7435.08,2676.47 L 7437.16,2662.87 L 7441.94,2649.97 L 7449.22,2638.29 L 7458.7,2628.32 L 7469.99,2620.46 L 7482.64,2615.03 L 7496.11,2612.26 L 7502.99,2611.91 L 7516.68,2613.3 L 7529.81,2617.42 L 7541.84,2624.1 L 7552.28,2633.06 L 7560.7,2643.94 L 7566.76,2656.3 L 7570.21,2669.62 L 7570.9,2683.36 z " style="fill-opacity:1.000000;fill:rgb(99,51,159);stroke:rgb(0,0,0);stroke-width:2"/></g>
<g fill-rule="evenodd"><path d="M 7302.99,2547.91 L 7289.3,2546.52 L 7276.18,2542.4 L 7264.15,2535.72 L 7253.71,2526.76 L 7245.29,2515.88 L 7239.23,2503.53 L 7235.78,2490.21 L 7235.08,2476.47 L 7237.16,2462.87 L 7241.94,2449.97 L 7249.22,2438.29 L 7258.7,2428.32 L 7269.99,2420.46 L 7282.64,2415.03 L 7296.11,2412.26 L 7302.99,2411.91 L 7316.68,2413.3 L 7329.81,2417.42 L 7341.84,2424.1 L 7352.28,2433.06 L 7360.7,2443.94 L 7366.76,2456.3 L 7370.21,2469.62 L 7370.9,2483.36 L 7368.82,2496.96 L 7364.04,2509.86 L 7356.76,2521.53 L 7347.28,2531.51 L 7335.99,2539.37 L 7323.35,2544.79 L 7309.87,2547.56 L 7302.99,2547.91 z " style="fill-opacity:1.000000;fill:rgb(201,154,102);stroke:rgb(0,0,0);stroke-width:2"/></g>
<g fill-rule="evenodd"><path d="M 7570.9,2483.36 L 7568.82,2496.96 L 7564.04,2509.86 L 7556.76,2521.53 L 7547.28,2531.51 L 7535.99,2539.37 L 7523.35,2544.79 L 7509.87,2547.56 L 7502.99,2547.91 L 7489.3,2546.52 L 7476.18,2542.4 L 7464.15,2535.72 L 7453.71,2526.76 L 7445.29,2515.88 L 7439.23,2503.53 L 7435.78,2490.21 L 7435.08,2476.47 L 7437.16,2462.87 L 7441.94,2449.97 L 7449.22,2438.29 L 7458.7,2428.32 L 7469.99,2420.46 L 7482.64,2415.03 L 7496.11,2412.26 L 7502.99,2411.91 L 7516.68,2413.3 L 7529.81,2417.42 L 7541.84,2424.1 L 7552.28,2433.06 L 7560.7,2443.94 L 7566.76,2456.3 L 7570.21,2469.62 L 7570.9,2483.36 z " style="fill-opacity:1.000000;fill:rgb(50,13,183);stroke:rgb(0,0,0);stroke-width:2"/></g>
<g fill-rule="evenodd"><path d="M 7302.99,2347.91 L 7289.3,2346.52 L 7276.18,2342.4 L 7264.15,2335.72 L 7253.71,2326.76 L 7245.29,2315.88 L 7239.23,2303.53 L 7235.78,2290.21 L 7235.08,2276.47 L 7237.16,2262.87 L 7241.94,2249.97 L 7249.22,2238.29 L 7258.7,2228.32 L 7269.99,2220.46 L 7282.64,2215.03 L 7296.11,2212.26 L 7302.99,2211.91 L 7316.68,2213.3 L 7329.81,2217.42 L 7341.84,2224.1 L 7352.28,2233.06 L 7360.7,2243.94 L 7366.76,2256.3 L 7370.21,2269.62 L 7370.9,2283.36 L 7368.82,2296.96 L 7364.04,2309.86 L 7356.76,2321.53 L 7347.28,2331.51 L 7335.99,2339.37 L 7323.35,2344.79 L 7309.87,2347.56 L 7302.99,2347.91 z " style="fill-opacity:1.000000;fill:rgb(49,88,163);stroke:rgb(0,0,0);stroke-width:2"/></g>
<g fill-rule="evenodd"><path d="M 7570.9,2283.36 L 7568.82,2296.96 L 7564.04,2309.86 L 7556.76,2321.53 L 7547.28,2331.51 L 7535.99,2339.37 L 7523.35,2344.79 L 7509.87,2347.56 L 7502.99,2347.91 L 7489.3,2346.52 L 7476.18,2342.4 L 7464.15,2335.72 L 7453.71,2326.76 L 7445.29,2315.88 L 7439.23,2303.53 L 7435.78,2290.21 L 7435.08,2276.47 L 7437.16,2262.87 L 7441.94,2249.97 L 7449.22,2238.29 L 7458.7,2228.32 L 7469.99,2220.46 L 7482.64,2215.03 L 7496.11,2212.26 L 7502.99,2211.91 L 7516.68,2213.3 L 7529.81,2217.42 L 7541.84,2224.1 L 7552.28,2233.06 L 7560.7,2243.94 L 7566.76,2256.3 L 7570.21,2269.62 L 7570.9,2283.36 z " style="fill-opacity:1.000000;fill:rgb(90,37,93);stroke:rgb(0,0,0);stroke-width:2"/></g>
<g fill-rule="evenodd"><path d="M 7302.99,2147.91 L 7289.3,2146.52 L 7276.18,2142.4 L 7264.15,2135.72 L 7253.71,2126.76 L 7245.29,2115.88 L 7239.23,2103.53 L 7235.78,2090.21 L 7235.08,2076.47 L 7237.16,2062.87 L 7241.94,2049.97 L 7249.22,2038.29 L 7258.7,2028.32 L 7269.99,2020.46 L 7282.64,2015.03 L 7296.11,2012.26 L 7302.99,2011.91 L 7316.68,2013.3 L 7329.81,2017.42 L 7341.84,2024.1 L 7352.28,2033.06 L 7360.7,2043.94 L 7366.76,2056.3 L 7370.21,2069.62 L 7370.9,2083.36 L 7368.82,2096.96 L 7364.04,2109.86 L 7356.76,2121.53 L 7347.28,2131.51 L 7335.99,2139.37 L 7323.35,2144.79 L 7309.87,2147.56 L 7302.99,2147.91 z " style="fill-opacity:1.000000;fill:rgb(5,23,88);stroke:rgb(0,0,0);stroke-width:2"/></g>
<g fill-rule="evenodd"><path d="M 7570.9,2083.36 L 7568.82,2096.96 L 7564.04,2109.86 L 7556.76,2121.53 L 7547.28,2131.51 L 7535.99,2139.37 L 7523.35,2144.79 L 7509.87,2147.56 L 7502.99,2147.91 L 7489.3,2146.52 L 7476.18,2142.4 L 7464.15,2135.72 L 7453.71,2126.76 L 7445.29,2115.88 L 7439.23,2103.53 L 7435.78,2090.21 L 7435.08,2076.47 L 7437.16,2062.87 L 7441.94,2049.97 L 7449.22,2038.29 L 7458.7,2028.32 L 7469.99,2020.46 L 7482.64,2015.03 L 7496.11,2012.26 L 7502.99,2011.91 L 7516.68,2013.3 L 7529.81,2017.42 L 7541.84,2024.1 L 7552.28,2033.06 L 7560.7,2043.94 L 7566.76,2056.3 L 7570.21,2069.62 L 7570.9,2083.36 z " style="fill-opacity:1.000000;fill:rgb(233,94,212);stroke:rgb(0,0,0);stroke-width:2"/></g>
<g fill-rule="evenodd"><path d="M 7302.99,1947.91 L 7289.3,1946.52 L 7276.18,1942.4 L 7264.15,1935.72 L 7253.71,1926.76 L 7245.29,1915.88 L 7239.23,1903.53 L 7235.78,1890.21 L 7235.08,1876.47 L 7237.16,1862.87 L 7241.94,1849.97 L 7249.22,1838.29 L 7258.7,1828.32 L 7269.99,1820.46 L 7282.64,1815.03 L 7296.11,1812.26 L 7302.99,1811.91 L 7316.68,1813.3 L 7329.81,1817.42 L 7341.84,1824.1 L 7352.28,1833.06 L 7360.7,1843.94 L 7366.76,1856.3 L 7370.21,1869.62 L 7370.9,1883.36 L 7368.82,1896.96 L 7364.04,1909.86 L 7356.76,1921.53 L 7347.28,1931.51 L 7335.99,1939.37 L 7323.35,1944.79 L 7309.87,1947.56 L 7302.99,1947.91 z " style="fill-opacity:1.000000;fill:rgb(171,178,205);stroke:rgb(0,0,0);stroke-width:2"/></g>
<g fill-rule="evenodd"><path d="M 7570.9,1883.36 L 7568.82,1896.96 L 7564.04,1909.86 L 7556.76,1921.53 L 7547.28,1931.51 L 7535.99,1939.37 L 7523.35,1944.79 L 7509.87,1947.56 L 7502.99,1947.91 L 7489.3,1946.52 L 7476.18,1942.4 L 7464.15,1935.72 L 7453.71,1926.76 L 7445.29,1915.88 L 7439.23,1903.53 L 7435.78,1890.21 L 7435.08,1876.47 L 7437.16,1862.87 L 7441.94,1849.97 L 7449.22,1838.29 L 7458.7,1828.32 L 7469.99,1820.46 L 7482.64,1815.03 L 7496.11,1812.26 L 7502.99,1811.91 L 7516.68,1813.3 L 7529.81,1817.42 L 7541.84,1824.1 L 7552.28,1833.06 L 7560.7,1843.94 L 7566.76,1856.3 L 7570.21,1869.62 L 7570.9,1883.36 z " style="fill-opacity:1.000000;fill:rgb(198,155,180);stroke:rgb(0,0,0);stroke-width:2"/></g>
<g fill-rule="evenodd"><path d="M 7302.99,1747.91 L 7289.3,1746.52 L 7276.18,1742.4 L 7264.15,1735.72 L 7253.71,1726.76 L 7245.29,1715.88 L 7239.23,1703.53 L 7235.78,1690.21 L 7235.08,1676.47 L 7237.16,1662.87 L 7241.94,1649.97 L 7249.22,1638.29 L 7258.7,1628.32 L 7269.99,1620.46 L 7282.64,1615.03 L 7296.11,1612.26 L 7302.99,1611.91 L 7316.68,1613.3 L 7329.81,1617.42 L 7341.84,1624.1 L 7352.28,1633.06 L 7360.7,1643.94 L 7366.76,1656.3 L 7370.21,1669.62 L 7370.9,1683.36 L 7368.82,1696.96 L 7364.04,1709.86 L 7356.76,1721.53 L 7347.28,1731.51 L 7335.99,1739.37 L 7323.35,1744.79 L 7309.87,1747.56 L 7302.99,1747.91 z " style="fill-opacity:1.000000;fill:rgb(84,17,14);stroke:rgb(0,0,0);stroke-width:2"/></g>
<g fill-rule="evenodd"><path d="M 7570.9,1683.36 L 7568.82,1696.96 L 7564.04,1709.86 L 7556.76,1721.53 L 7547.28,1731.51 L 7535.99,1739.37 L 7523.35,1744.79 L 7509.87,1747.56 L 7502.99,1747.91 L 7489.3,1746.52 L 7476.18,1742.4 L 7464.15,1735.72 L 7453.71,1726.76 L 7445.29,1715.88 L 7439.23,1703.53 L 7435.78,1690.21 L 7435.08,1676.47 L 7437.16,1662.87 L 7441.94,1649.97 L 7449.22,1638.29 L 7458.7,1628.32 L 7469.99,1620.46 L 7482.64,1615.03 L 7496.11,1612.26 L 7502.99,1611.91 L 7516.68,1613.3 L 7529.81,1617.42 L 7541.84,1624.1 L 7552.28,1633.06 L 7560.7,1643.94 L 7566.76,1656.3 L 7570.21,1669.62 L 7570.9,1683.36 z " style="fill-opacity:1.000000;fill:rgb(130,116,65);stroke:rgb(0,0,0);stroke-width:2"/></g>
<g fill-rule="evenodd"><path d="M 7302.99,1547.91 L 7289.3,1546.52 L 7276.18,1542.4 L 7264.15,1535.72 L 7253.71,1526.76 L 7245.29,1515.88 L 7239.23,1503.53 L 7235.78,1490.21 L 7235.08,1476.47 L 7237.16,1462.87 L 7241.94,1449.97 L 7249.22,1438.29 L 7258.7,1428.32 L 7269.99,1420.46 L 7282.64,1415.03 L 7296.11,1412.26 L 7302.99,1411.91 L 7316.68,1413.3 L 7329.81,1417.42 L 7341.84,1424.1 L 7352.28,1433.06 L 7360.7,1443.94 L 7366.76,1456.3 L 7370.21,1469.62 L 7370.9,1483.36 L 7368.82,1496.96 L 7364.04,1509.86 L 7356.76,1521.53 L 7347.28,1531.51 L 7335.99,1539.37 L 7323.35,1544.79 L 7309.87,1547.56 L 7302.99,1547.91 z " style="fill-opacity:1.000000;fill:rgb(33,61,220);stroke:rgb(0,0,0);stroke-width:2"/></g>
<g fill-rule="evenodd"><path d="M 7570.9,1483.36 L 7568.82,1496.96 L 7564.04,1509.86 L 7556.76,1521.53 L 7547.28,1531.51 L 7535.99,1539.37 L 7523.35,1544.79 L 7509.87,1547.56 L 7502.99,1547.91 L 7489.3,1546.52 L 7476.18,1542.4 L 7464.15,1535.72 L 7453.71,1526.76 L 7445.29,1515.88 L 7439.23,1503.53 L 7435.78,1490.21 L 7435.08,1476.47 L 7437.16,1462.87 L 7441.94,1449.97 L 7449.22,1438.29 L 7458.7,1428.32 L 7469.99,1420.46 L 7482.64,1415.03 L 7496.11,1412.26 L 7502.99,1411.91 L 7516.68,1413.3 L 7529.81,1417.42 L 7541.84,1424.1 L 7552.28,1433.06 L 7560.7,1443.94 L 7566.76,1456.3 L 7570.21,1469.62 L 7570.9,1483.36 z " style="fill-opacity:1.000000;fill:rgb(135,112,233);stroke:rgb(0,0,0);stroke-width:2"/></g>
<g fill-rule="evenodd"><path d="M 7302.99,1347.91 L 7289.3,1346.52 L 7276.18,1342.4 L 7264.15,1335.72 L 7253.71,1326.76 L 7245.29,1315.88 L 7239.23,1303.53 L 7235.78,1290.21 L 7235.08,1276.47 L 7237.16,1262.87 L 7241.94,1249.97 L 7249.22,1238.29 L 7258.7,1228.32 L 7269.99,1220.46 L 7282.64,1215.03 L 7296.11,1212.26 L 7302.99,1211.91 L 7316.68,1213.3 L 7329.81,1217.42 L 7341.84,1224.1 L 7352.28,1233.06 L 7360.7,1243.94 L 7366.76,1256.3 L 7370.21,1269.62 L 7370.9,1283.36 L 7368.82,1296.96 L 7364.04,1309.86 L 7356.76,1321.53 L 7347.28,1331.51 L 7335.99,1339.37 L 7323.35,1344.79 L 7309.87,1347.56 L 7302.99,1347.91 z " style="fill-opacity:1.000000;fill:rgb(62,161,65);stroke:rgb(0,0,0);stroke-width:2"/></g>
<g fill-rule="evenodd"><path d="M 7570.9,1283.36 L 7568.82,1296.96 L 7564.04,1309.86 L 7556.76,1321.53 L 7547.28,1331.51 L 7535.99,1339.37 L 7523.35,1344.79 L 7509.87,1347.56 L 7502.99,1347.91 L 7489.3,1346.52 L 7476.18,1342.4 L 7464.15,1335.72 L 7453.71,1326.76 L 7445.29,1315.88 L 7439.23,1303.53 L 7435.78,1290.21 L 7435.08,1276.47 L 7437.16,1262.87 L 7441.94,1249.97 L 7449.22,1238.29 L 7458.7,1228.32 L 7469.99,1220.46 L 7482.64,1215.03 L 7496.11,1212.26 L 7502.99,1211.91 L 7516.68,1213.3 L 7529.81,1217.42 L 7541.84,1224.1 L 7552.28,1233.06 L 7560.7,1243.94 L 7566.76,1256.3 L 7570.21,1269.62 L 7570.9,1283.36 z " style="fill-opacity:1.000000;fill:rgb(225,252,103);stroke:rgb(0,0,0);stroke-width:2"/></g>
<g fill-rule="evenodd"><path d="M 7302.99,1147.91 L 7289.3,1146.52 L 7276.18,1142.4 L 7264.15,1135.72 L 7253.71,1126.76 L 7245.29,1115.88 L 7239.23,1103.53 L 7235.78,1090.21 L 7235.08,1076.47 L 7237.16,1062.87 L 7241.94,1049.97 L 7249.22,1038.29 L 7258.7,1028.32 L 7269.99,1020.46 L 7282.64,1015.03 L 7296.11,1012.26 L 7302.99,1011.91 L 7316.68,1013.3 L 7329.81,1017.42 L 7341.84,1024.1 L 7352.28,1033.06 L 7360.7,1043.94 L 7366.76,1056.3 L 7370.21,1069.62 L 7370.9,1083.36 L 7368.82,1096.96 L 7364.04,1109.86 L 7356.76,1121.53 L 7347.28,1131.51 L 7335.99,1139.37 L 7323.35,1144.79 L 7309.87,1147.56 L 7302.99,1147.91 z " style="fill-opacity:1.000000;fill:rgb(62,1,126);stroke:rgb(0,0,0);stroke-width:2"/></g>
<g fill-rule="evenodd"><path d="M 7570.9,1083.36 L 7568.82,1096.96 L 7564.04,1109.86 L 7556.76,1121.53 L 7547.28,1131.51 L 7535.99,1139.37 L 7523.35,1144.79 L 7509.87,1147.56 L 7502.99,1147.91 L 7489.3,1146.52 L 7476.18,1142.4 L 7464.15,1135.72 L 7453.71,1126.76 L 7445.29,1115.88 L 7439.23,1103.53 L 7435.78,1090.21 L 7435.08,1076.47 L 7437.16,1062.87 L 7441.94,1049.97 L 7449.22,1038.29 L 7458.7,1028.32 L 7469.99,1020.46 L 7482.64,1015.03 L 7496.11,1012.26 L 7502.99,1011.91 L 7516.68,1013.3 L 7529.81,1017.42 L 7541.84,1024.1 L 7552.28,1033.06 L 7560.7,1043.94 L 7566.76,1056.3 L 7570.21,1069.62 L 7570.9,1083.36 z " style="fill-opacity:1.000000;fill:rgb(151,234,220);stroke:rgb(0,0,0);stroke-width:2"/></g>
<g fill-rule="evenodd"><path d="M 7302.99,947.912 L 7289.3,946.52 L 7276.18,942.4 L 7264.15,935.722 L 7253.71,926.76 L 7245.29,915.88 L 7239.23,903.528 L 7235.78,890.208 L 7235.08,876.468 L 7237.16,862.868 L 7241.94,849.966 L 7249.22,838.29 L 7258.7,828.318 L 7269.99,820.458 L 7282.64,815.032 L 7296.11,812.262 L 7302.99,811.912 L 7316.68,813.304 L 7329.81,817.424 L 7341.84,824.102 L 7352.28,833.064 L 7360.7,843.944 L 7366.76,856.296 L 7370.21,869.616 L 7370.9,883.356 L 7368.82,896.956 L 7364.04,909.858 L 7356.76,921.534 L 7347.28,931.506 L 7335.99,939.366 L 7323.35,944.792 L 7309.87,947.562 L 7302.99,947.912 z " style="fill-opacity:1.000000;fill:rgb(107,150,143);stroke:rgb(0,0,0);stroke-width:2"/></g>
<g fill-rule="evenodd"><path d="M 7570.9,883.356 L 7568.82,896.956 L 7564.04,909.858 L 7556.76,921.534 L 7547.28,931.506 L 7535.99,939.366 L 7523.35,944.792 L 7509.87,947.562 L 7502.99,947.912 L 7489.3,946.52 L 7476.18,942.4 L 7464.15,935.722 L 7453.71,926.76 L 7445.29,915.88 L 7439.23,903.528 L 7435.78,890.208 L 7435.08,876.468 L 7437.16,862.868 L 7441.94,849.966 L 7449.22,838.29 L 7458.7,828.318 L 7469.99,820.458 L 7482.64,815.032 L 7496.11,812.262 L 7502.99,811.912 L 7516.68,813.304 L 7529.81,817.424 L 7541.84,824.102 L 7552.28,833.064 L 7560.7,843.944 L 7566.76,856.296 L 7570.21,869.616 L 7570.9,883.356 z " style="fill-opacity:1.000000;fill:rgb(56,92,42);stroke:rgb(0,0,0);stroke-width:2"/></g>
<g fill-rule="evenodd"><path d="M 7302.99,747.912 L 7289.3,746.52 L 7276.18,742.4 L 7264.15,735.722 L 7253.71,726.76 L 7245.29,715.88 L 7239.23,703.528 L 7235.78,690.208 L 7235.08,676.468 L 7237.16,662.868 L 7241.94,649.966 L 7249.22,638.29 L 7258.7,628.318 L 7269.99,620.458 L 7282.64,615.032 L 7296.11,612.262 L 7302.99,611.912 L 7316.68,613.304 L 7329.81,617.424 L 7341.84,624.102 L 7352.28,633.064 L 7360.7,643.944 L 7366.76,656.296 L 7370.21,669.616 L 7370.9,683.356 L 7368.82,696.956 L 7364.04,709.858 L 7356.76,721.534 L 7347.28,731.506 L 7335.99,739.366 L 7323.35,744.792 L 7309.87,747.562 L 7302.99,747.912 z " style="fill-opacity:1.000000;fill:rgb(236,176,59);stroke:rgb(0,0,0);stroke-width:2"/></g>
<g fill-rule="evenodd"><path d="M 7570.9,683.356 L 7568.82,696.956 L 7564.04,709.858 L 7556.76,721.534 L 7547.28,731.506 L 7535.99,739.366 L 7523.35,744.792 L 7509.87,747.562 L 7502.99,747.912 L 7489.3,746.52 L 7476.18,742.4 L 7464.15,735.722 L 7453.71,726.76 L 7445.29,715.88 L 7439.23,703.528 L 7435.78,690.208 L 7435.08,676.468 L 7437.16,662.868 L 7441.94,649.966 L 7449.22,638.29 L 7458.7,628.318 L 7469.99,620.458 L 7482.64,615.032 L 7496.11,612.262 L 7502.99,611.912 L 7516.68,613.304 L 7529.81,617.424 L 7541.84,624.102 L 7552.28,633.064 L 7560.7,643.944 L 7566.76,656.296 L 7570.21,669.616 L 7570.9,683.356 z " style="fill-opacity:1.000000;fill:rgb(251,50,175);stroke:rgb(0,0,0);stroke-width:2"/></g>
<g fill-rule="evenodd"><path d="M 7302.99,547.912 L 7289.3,546.52 L 7276.18,542.4 L 7264.15,535.722 L 7253.71,526.76 L 7245.29,515.88 L 7239.23,503.528 L 7235.78,490.208 L 7235.08,476.468 L 7237.16,462.868 L 7241.94,449.966 L 7249.22,438.29 L 7258.7,428.318 L 7269.99,420.458 L 7282.64,415.032 L 7296.11,412.262 L 7302.99,411.912 L 7316.68,413.304 L 7329.81,417.424 L 7341.84,424.102 L 7352.28,433.064 L 7360.7,443.944 L 7366.76,456.296 L 7370.21,469.616 L 7370.9,483.356 L 7368.82,496.956 L 7364.04,509.858 L 7356.76,521.534 L 7347.28,531.506 L 7335.99,539.366 L 7323.35,544.792 L 7309.87,547.562 L 7302.99,547.912 z " style="fill-opacity:1.000000;fill:rgb(60,84,236);stroke:rgb(0,0,0);stroke-width:2"/></g>
<g fill-rule="evenodd"><path d="M 7570.9,483.356 L 7568.82,496.956 L 7564.04,509.858 L 7556.76,521.534 L 7547.28,531.506 L 7535.99,539.366 L 7523.35,544.792 L 7509.87,547.562 L 7502.99,547.912 L 7489.3,546.52 L 7476.18,542.4 L 7464.15,535.722 L 7453.71,526.76 L 7445.29,515.88 L 7439.23,503.528 L 7435.78,490.208 L 7435.08,476.468 L 7437.16,462.868 L 7441.94,449.966 L 7449.22,438.29 L 7458.7,428.318 L 7469.99,420.458 L 7482.64,415.032 L 7496.11,412.262 L 7502.99,411.912 L 7516.68,413.304 L 7529.81,417.424 L 7541.84,424.102 L 7552.28,433.064 L 7560.7,443.944 L 7566.76,456.296 L 7570.21,469.616 L 7570.9,483.356 z " style="fill-opacity:1.000000;fill:rgb(24,219,92);stroke:rgb(0,0,0);stroke-width:2"/></g>
<g fill-rule="evenodd"><path d="M 7302.99,347.912 L 7289.3,346.52 L 7276.18,342.4 L 7264.15,335.722 L 7253.71,326.76 L 7245.29,315.88 L 7239.23,303.528 L 7235.78,290.208 L 7235.08,276.468 L 7237.16,262.868 L 7241.94,249.966 L 7249.22,238.29 L 7258.7,228.318 L 7269.99,220.458 L 7282.64,215.032 L 7296.11,212.262 L 7302.99,211.912 L 7316.68,213.304 L 7329.81,217.424 L 7341.84,224.102 L 7352.28,233.064 L 7360.7,243.944 L 7366.76,256.296 L 7370.21,269.616 L 7370.9,283.356 L 7368.82,296.956 L 7364.04,309.858 L 7356.76,321.534 L 7347.28,331.506 L 7335.99,339.366 L 7323.35,344.792 L 7309.87,347.562 L 7302.99,347.912 z " style="fill-opacity:1.000000;fill:rgb(2,26,254);stroke:rgb(0,0,0);stroke-width:2"/></g>
<g fill-rule="evenodd"><path d="M 7570.9,283.356 L 7568.82,296.956 L 7564.04,309.858 L 7556.76,321.534 L 7547.28,331.506 L 7535.99,339.366 L 7523.35,344.792 L 7509.87,347.562 L 7502.99,347.912 L 7489.3,346.52 L 7476.18,342.4 L 7464.15,335.722 L 7453.71,326.76 L 7445.29,315.88 L 7439.23,303.528 L 7435.78,290.208 L 7435.08,276.468 L 7437.16,262.868 L 7441.94,249.966 L 7449.22,238.29 L 7458.7,228.318 L 7469.99,220.458 L 7482.64,215.032 L 7496.11,212.262 L 7502.99,211.912 L 7516.68,213.304 L 7529.81,217.424 L 7541.84,224.102 L 7552.28,233.064 L 7560.7,243.944 L 7566.76,256.296 L 7570.21,269.616 L 7570.9,283.356 z " style="fill-opacity:1.000000;fill:rgb(67,251,250);stroke:rgb(0,0,0);stroke-width:2"/></g>
<g fill-rule="evenodd"><path d="M 2099.55,3959.82 L 2085.95,3957.74 L 2073.05,3952.96 L 2061.37,3945.68 L 2051.4,3936.2 L 2043.54,3924.91 L 2038.11,3912.27 L 2035.34,3898.79 L 2034.99,3867.91 L 2036.38,3854.22 L 2040.5,3841.1 L 2047.18,3829.07 L 2056.14,3818.63 L 2067.02,3810.21 L 2079.38,3804.15 L 2092.7,3800.7 L 2106.44,3800 L 2120.04,3802.08 L 2132.94,3806.86 L 2144.61,3814.14 L 2154.59,3823.62 L 2162.45,3834.91 L 2167.87,3847.56 L 2170.64,3861.03 L 2170.99,3891.91 L 2169.6,3905.6 L 2165.48,3918.73 L 2158.8,3930.76 L 2149.84,3941.2 L 2138.96,3949.62 L 2126.61,3955.68 L 2113.29,3959.13 L 2099.55,3959.82 z " style="fill-opacity:1.000000;fill:rgb(170,58,251);stroke:rgb(0,0,0);stroke-width:2"/></g>
<g fill-rule="evenodd"><path d="M 2299.55,3959.82 L 2285.95,3957.74 L 2273.05,3952.96 L 2261.37,3945.68 L 2251.4,3936.2 L 2243.54,3924.91 L 2238.11,3912.27 L 2235.34,3898.79 L 2234.99,3867.91 L 2236.38,3854.22 L 2240.5,3841.1 L 2247.18,3829.07 L 2256.14,3818.63 L 2267.02,3810.21 L 2279.38,3804.15 L 2292.7,3800.7 L 2306.44,3800 L 2320.04,3802.08 L 2332.94,3806.86 L 2344.61,3814.14 L 2354.59,3823.62 L 2362.45,3834.91 L 2367.87,3847.56 L 2370.64,3861.03 L 2370.99,3891.91 L 2369.6,3905.6 L 2365.48,3918.73 L 2358.8,3930.76 L 2349.84,3941.2 L 2338.96,3949.62 L 2326.61,3955.68 L 2313.29,3959.13 L 2299.55,3959.82 z " style="fill-opacity:1.000000;fill:rgb(41,209,230);stroke:rgb(0,0,0);stroke-width:2"/></g>
<g fill-rule="evenodd"><path d="M 2499.55,3959.82 L 2485.95,3957.74 L 2473.05,3952.96 L 2461.37,3945.68 L 2451.4,3936.2 L 2443.54,3924.91 L 2438.11,3912.27 L 2435.34,3898.79 L 2434.99,3867.91 L 2436.38,3854.22 L 2440.5,3841.1 L 2447.18,3829.07 L 2456.14,3818.63 L 2467.02,3810.21 L 2479.38,3804.15 L 2492.7,3800.7 L 2506.44,3800 L 2520.04,3802.08 L 2532.94,3806.86 L 2544.61,3814.14 L 2554.59,3823.62 L 2562.45,3834.91 L 2567.87,3847.56 L 2570.64,3861.03 L 2570.99,3891.91 L 2569.6,3905.6 L 2565.48,3918.73 L 2558.8,3930.76 L 2549.84,3941.2 L 2538.96,3949.62 L 2526.61,3955.68 L 2513.29,3959.13 L 2499.55,3959.82 z " style="fill-opacity:1.000000;fill:rgb(5,60,124);stroke:rgb(0,0,0);stroke-width:2"/></g>
<g fill-rule="evenodd"><path d="M 3499.55,3959.82 L 3485.95,3957.74 L 3473.05,3952.96 L 3461.37,3945.68 L 3451.4,3936.2 L 3443.54,3924.91 L 3438.11,3912.27 L 3435.34,3898.79 L 3434.99,3867.91 L 3436.38,3854.22 L 3440.5,3841.1 L 3447.18,3829.07 L 3456.14,3818.63 L 3467.02,3810.21 L 3479.38,3804.15 L 3492.7,3800.7 L 3506.44,3800 L 3520.04,3802.08 L 3532.94,3806.86 L 3544.61,3814.14 L 3554.59,3823.62 L 3562.45,3834.91 L 3567.87,3847.56 L 3570.64,3861.03 L 3570.99,3891.91 L 3569.6,3905.6 L 3565.48,3918.73 L 3558.8,3930.76 L 3549.84,3941.2 L 3538.96,3949.62 L 3526.61,3955.68 L 3513.29,3959.13 L 3499.55,3959.82 z " style="fill-opacity:1.000000;fill:rgb(148,117,216);stroke:rgb(0,0,0);stroke-width:2"/></g>
<g fill-rule="evenodd"><path d="M 5099.55,3959.82 L 5085.95,3957.74 L 5073.05,3952.96 L 5061.37,3945.68 L 5051.4,3936.2 L 5043.54,3924.91 L 5038.11,3912.27 L 5035.34,3898.79 L 5034.99,3867.91 L 5036.38,3854.22 L 5040.5,3841.1 L 5047.18,3829.07 L 5056.14,3818.63 L 5067.02,3810.21 L 5079.38,3804.15 L 5092.7,3800.7 L 5106.44,3800 L 5120.04,3802.08 L 5132.94,3806.86 L 5144.61,3814.14 L 5154.59,3823.62 L 5162.45,3834.91 L 5167.87,3847.56 L 5170.64,3861.03 L 5170.99,3891.91 L 5169.6,3905.6 L 5165.48,3918.73 L 5158.8,3930.76 L 5149.84,3941.2 L 5138.96,3949.62 L 5126.61,3955.68 L 5113.29,3959.13 L 5099.55,3959.82 z " style="fill-opacity:1.000000;fill:rgb(190,97,137);stroke:rgb(0,0,0);stroke-width:2"/></g>
<g fill-rule="evenodd"><path d="M 5299.55,3959.82 L 5285.95,3957.74 L 5273.05,3952.96 L 5261.37,3945.68 L 5251.4,3936.2 L 5243.54,3924.91 L 5238.11,3912.27 L 5235.34,3898.79 L 5234.99,3867.91 L 5236.38,3854.22 L 5240.5,3841.1 L 5247.18,3829.07 L 5256.14,3818.63 L 5267.02,3810.21 L 5279.38,3804.15 L 5292.7,3800.7 L 5306.44,3800 L 5320.04,3802.08 L 5332.94,3806.86 L 5344.61,3814.14 L 5354.59,3823.62 L 5362.45,3834.91 L 5367.87,3847.56 L 5370.64,3861.03 L 5370.99,3891.91 L 5369.6,3905.6 L 5365.48,3918.73 L 5358.8,3930.76 L 5349.84,3941.2 L 5338.96,3949.62 L 5326.61,3955.68 L 5313.29,3959.13 L 5299.55,3959.82 z " style="fill-opacity:1.000000;fill:rgb(249,92,187);stroke:rgb(0,0,0);stroke-width:2"/></g>
<g fill-rule="evenodd"><path d="M 5699.55,3959.82 L 5685.95,3957.74 L 5673.05,3952.96 L 5661.37,3945.68 L 5651.4,3936.2 L 5643.54,3924.91 L 5638.11,3912.27 L 5635.34,3898.79 L 5634.99,3867.91 L 5636.38,3854.22 L 5640.5,3841.1 L 5647.18,3829.07 L 5656.14,3818.63 L 5667.02,3810.21 L 5679.38,3804.15 L 5692.7,3800.7 L 5706.44,3800 L 5720.04,3802.08 L 5732.94,3806.86 L 5744.61,3814.14 L 5754.59,3823.62 L 5762.45,3834.91 L 5767.87,3847.56 L 5770.64,3861.03 L 5770.99,3891.91 L 5769.6,3905.6 L 5765.48,3918.73 L 5758.8,3930.76 L 5749.84,3941.2 L 5738.96,3949.62 L 5726.61,3955.68 L 5713.29,3959.13 L 5699.55,3959.82 z " style="fill-opacity:1.000000;fill:rgb(168,153,15);stroke:rgb(0,0,0);stroke-width:2"/></g>
<g fill-rule="evenodd"><path d="M 5899.55,3959.82 L 5885.95,3957.74 L 5873.05,3952.96 L 5861.37,3945.68 L 5851.4,3936.2 L 5843.54,3924.91 L 5838.11,3912.27 L 5835.34,3898.79 L 5834.99,3867.91 L 5836.38,3854.22 L 5840.5,3841.1 L 5847.18,3829.07 L 5856.14,3818.63 L 5867.02,3810.21 L 5879.38,3804.15 L 5892.7,3800.7 L 5906.44,3800 L 5920.04,3802.08 L 5932.94,3806.86 L 5944.61,3814.14 L 5954.59,3823.62 L 5962.45,3834.91 L 5967.87,3847.56 L 5970.64,3861.03 L 5970.99,3891.91 L 5969.6,3905.6 L 5965.48,3918.73 L 5958.8,3930.76 L 5949.84,3941.2 L 5938.96,3949.62 L 5926.61,3955.68 L 5913.29,3959.13 L 5899.55,3959.82 z " style="fill-opacity:1.000000;fill:rgb(149,177,235);stroke:rgb(0,0,0);stroke-width:2"/></g>
<g fill-rule="evenodd"><path d="M 6099.55,3959.82 L 6085.95,3957.74 L 6073.05,3952.96 L 6061.37,3945.68 L 6051.4,3936.2 L 6043.54,3924.91 L 6038.11,3912.27 L 6035.34,3898.79 L 6034.99,3867.91 L 6036.38,3854.22 L 6040.5,3841.1 L 6047.18,3829.07 L 6056.14,3818.63 L 6067.02,3810.21 L 6079.38,3804.15 L 6092.7,3800.7 L 6106.44,3800 L 6120.04,3802.08 L 6132.94,3806.86 L 6144.61,3814.14 L 6154.59,3823.62 L 6162.45,3834.91 L 6167.87,3847.56 L 6170.64,3861.03 L 6170.99,3891.91 L 6169.6,3905.6 L 6165.48,3918.73 L 6158.8,3930.76 L 6149.84,3941.2 L 6138.96,3949.62 L 6126.61,3955.68 L 6113.29,3959.13 L 6099.55,3959.82 z " style="fill-opacity:1.000000;fill:rgb(241,179,5);stroke:rgb(0,0,0);stroke-width:2"/></g>
<g fill-rule="evenodd"><path d="M 6299.55,3959.82 L 6285.95,3957.74 L 6273.05,3952.96 L 6261.37,3945.68 L 6251.4,3936.2 L 6243.54,3924.91 L 6238.11,3912.27 L 6235.34,3898.79 L 6234.99,3867.91 L 6236.38,3854.22 L 6240.5,3841.1 L 6247.18,3829.07 L 6256.14,3818.63 L 6267.02,3810.21 L 6279.38,3804.15 L 6292.7,3800.7 L 6306.44,3800 L 6320.04,3802.08 L 6332.94,3806.86 L 6344.61,3814.14 L 6354.59,3823.62 L 6362.45,3834.91 L 6367.87,3847.56 L 6370.64,3861.03 L 6370.99,3891.91 L 6369.6,3905.6 L 6365.48,3918.73 L 6358.8,3930.76 L 6349.84,3941.2 L 6338.96,3949.62 L 6326.61,3955.68 L 6313.29,3959.13 L 6299.55,3959.82 z " style="fill-opacity:1.000000;fill:rgb(239,247,0);stroke:rgb(0,0,0);stroke-width:2"/></g>
<g fill-rule="evenodd"><path d="M 6499.55,3959.82 L 6485.95,3957.74 L 6473.05,3952.96 L 6461.37,3945.68 L 6451.4,3936.2 L 6443.54,3924.91 L 6438.11,3912.27 L 6435.34,3898.79 L 6434.99,3867.91 L 6436.38,3854.22 L 6440.5,3841.1 L 6447.18,3829.07 L 6456.14,3818.63 L 6467.02,3810.21 L 6479.38,3804.15 L 6492.7,3800.7 L 6506.44,3800 L 6520.04,3802.08 L 6532.94,3806.86 L 6544.61,3814.14 L 6554.59,3823.62 L 6562.45,3834.91 L 6567.87,3847.56 L 6570.64,3861.03 L 6570.99,3891.91 L 6569.6,3905.6 L 6565.48,3918.73 L 6558.8,3930.76 L 6549.84,3941.2 L 6538.96,3949.62 L 6526.61,3955.68 L 6513.29,3959.13 L 6499.55,3959.82 z " style="fill-opacity:1.000000;fill:rgb(233,161,58);stroke:rgb(0,0,0);stroke-width:2"/></g>
<g fill-rule="evenodd"><path d="M 6699.55,3959.82 L 6685.95,3957.74 L 6673.05,3952.96 L 6661.37,3945.68 L 6651.4,3936.2 L 6643.54,3924.91 L 6638.11,3912.27 L 6635.34,3898.79 L 6634.99,3867.91 L 6636.38,3854.22 L 6640.5,3841.1 L 6647.18,3829.07 L 6656.14,3818.63 L 6667.02,3810.21 L 6679.38,3804.15 L 6692.7,3800.7 L 6706.44,3800 L 6720.04,3802.08 L 6732.94,3806.86 L 6744.61,3814.14 L 6754.59,3823.62 L 6762.45,3834.91 L 6767.87,3847.56 L 6770.64,3861.03 L 6770.99,3891.91 L 6769.6,3905.6 L 6765.48,3918.73 L 6758.8,3930.76 L 6749.84,3941.2 L 6738.96,3949.62 L 6726.61,3955.68 L 6713.29,3959.13 L 6699.55,3959.82 z " style="fill-opacity:1.000000;fill:rgb(229,202,11);stroke:rgb(0,0,0);stroke-width:2"/></g>
<g fill-rule="evenodd"><path d="M 6899.55,3959.82 L 6885.95,3957.74 L 6873.05,3952.96 L 6861.37,3945.68 L 6851.4,3936.2 L 6843.54,3924.91 L 6838.11,3912.27 L 6835.34,3898.79 L 6834.99,3867.91 L 6836.38,3854.22 L 6840.5,3841.1 L 6847.18,3829.07 L 6856.14,3818.63 L 6867.02,3810.21 L 6879.38,3804.15 L 6892.7,3800.7 L 6906.44,3800 L 6920.04,3802.08 L 6932.94,3806.86 L 6944.61,3814.14 L 6954.59,3823.62 L 6962.45,3834.91 L 6967.87,3847.56 L 6970.64,3861.03 L 6970.99,3891.91 L 6969.6,3905.6 L 6965.48,3918.73 L 6958.8,3930.76 L 6949.84,3941.2 L 6938.96,3949.62 L 6926.61,3955.68 L 6913.29,3959.13 L 6899.55,3959.82 z " style="fill-opacity:1.000000;fill:rgb(203,208,72);stroke:rgb(0,0,0);stroke-width:2"/></g>
<g fill-rule="evenodd"><path d="M 7099.55,3959.82 L 7085.95,3957.74 L 7073.05,3952.96 L 7061.37,3945.68 L 7051.4,3936.2 L 7043.54,3924.91 L 7038.11,3912.27 L 7035.34,3898.79 L 7034.99,3867.91 L 7036.38,3854.22 L 7040.5,3841.1 L 7047.18,3829.07 L 7056.14,3818.63 L 7067.02,3810.21 L 7079.38,3804.15 L 7092.7,3800.7 L 7106.44,3800 L 7120.04,3802.08 L 7132.94,3806.86 L 7144.61,3814.14 L 7154.59,3823.62 L 7162.45,3834.91 L 7167.87,3847.56 L 7170.64,3861.03 L 7170.99,3891.91 L 7169.6,3905.6 L 7165.48,3918.73 L 7158.8,3930.76 L 7149.84,3941.2 L 7138.96,3949.62 L 7126.61,3955.68 L 7113.29,3959.13 L 7099.55,3959.82 z " style="fill-opacity:1.000000;fill:rgb(71,100,189);stroke:rgb(0,0,0);stroke-width:2"/></g>
<g fill-rule="evenodd"><path d="M 1386.44,0 L 1400.04,2.084 L 1412.94,6.862 L 1424.61,14.14 L 1434.59,23.62 L 1442.45,34.912 L 1447.87,47.556 L 1450.64,61.034 L 1450.99,91.912 L 1449.6,105.6 L 1445.48,118.728 L 1438.8,130.758 L 1429.84,141.196 L 1418.96,149.618 L 1406.61,155.678 L 1393.29,159.126 L 1379.55,159.824 L 1365.95,157.74 L 1353.05,152.962 L 1341.37,145.684 L 1331.4,136.204 L 1323.54,124.912 L 1318.11,112.268 L 1315.34,98.79 L 1314.99,67.912 L 1316.38,54.224 L 1320.5,41.096 L 1327.18,29.066 L 1336.14,18.628 L 1347.02,10.206 L 1359.38,4.146 L 1372.7,0.698 L 1386.44,0 z " style="fill-opacity:1.000000;fill:rgb(31,35,30);stroke:rgb(0,0,0);stroke-width:2"/></g>
<g fill-rule="evenodd"><path d="M 1586.44,0 L 1600.04,2.084 L 1612.94,6.862 L 1624.61,14.14 L 1634.59,23.62 L 1642.45,34.912 L 1647.87,47.556 L 1650.64,61.034 L 1650.99,91.912 L 1649.6,105.6 L 1645.48,118.728 L 1638.8,130.758 L 1629.84,141.196 L 1618.96,149.618 L 1606.61,155.678 L 1593.29,159.126 L 1579.55,159.824 L 1565.95,157.74 L 1553.05,152.962 L 1541.37,145.684 L 1531.4,136.204 L 1523.54,124.912 L 1518.11,112.268 L 1515.34,98.79 L 1514.99,67.912 L 1516.38,54.224 L 1520.5,41.096 L 1527.18,29.066 L 1536.14,18.628 L 1547.02,10.206 L 1559.38,4.146 L 1572.7,0.698 L 1586.44,0 z " style="fill-opacity:1.000000;fill:rgb(168,28,123);stroke:rgb(0,0,0);stroke-width:2"/></g>
<g fill-rule="evenodd"><path d="M 1786.44,0 L 1800.04,2.084 L 1812.94,6.862 L 1824.61,14.14 L 1834.59,23.62 L 1842.45,34.912 L 1847.87,47.556 L 1850.64,61.034 L 1850.99,91.912 L 1849.6,105.6 L 1845.48,118.728 L 1838.8,130.758 L 1829.84,141.196 L 1818.96,149.618 L 1806.61,155.678 L 1793.29,159.126 L 1779.55,159.824 L 1765.95,157.74 L 1753.05,152.962 L 1741.37,145.684 L 1731.4,136.204 L 1723.54,124.912 L 1718.11,112.268 L 1715.34,98.79 L 1714.99,67.912 L 1716.38,54.224 L 1720.5,41.096 L 1727.18,29.066 L 1736.14,18.628 L 1747.02,10.206 L 1759.38,4.146 L 1772.7,0.698 L 1786.44,0 z " style="fill-opacity:1.000000;fill:rgb(100,197,20);stroke:rgb(0,0,0);stroke-width:2"/></g>
<g fill-rule="evenodd"><path d="M 2186.44,0 L 2200.04,2.084 L 2212.94,6.862 L 2224.61,14.14 L 2234.59,23.62 L 2242.45,34.912 L 2247.87,47.556 L 2250.64,61.034 L 2250.99,91.912 L 2249.6,105.6 L 2245.48,118.728 L 2238.8,130.758 L 2229.84,141.196 L 2218.96,149.618 L 2206.61,155.678 L 2193.29,159.126 L 2179.55,159.824 L 2165.95,157.74 L 2153.05,152.962 L 2141.37,145.684 L 2131.4,136.204 L 2123.54,124.912 L 2118.11,112.268 L 2115.34,98.79 L 2114.99,67.912 L 2116.38,54.224 L 2120.5,41.096 L 2127.18,29.066 L 2136.14,18.628 L 2147.02,10.206 L 2159.38,4.146 L 2172.7,0.698 L 2186.44,0 z " style="fill-opacity:1.000000;fill:rgb(115,90,197);stroke:rgb(0,0,0);stroke-width:2"/></g>
<g fill-rule="evenodd"><path d="M 2386.44,0 L 2400.04,2.084 L 2412.94,6.862 L 2424.61,14.14 L 2434.59,23.62 L 2442.45,34.912 L 2447.87,47.556 L 2450.64,61.034 L 2450.99,91.912 L 2449.6,105.6 L 2445.48,118.728 L 2438.8,130.758 L 2429.84,141.196 L 2418.96,149.618 L 2406.61,155.678 L 2393.29,159.126 L 2379.55,159.824 L 2365.95,157.74 L 2353.05,152.962 L 2341.37,145.684 L 2331.4,136.204 L 2323.54,124.912 L 2318.11,112.268 L 2315.34,98.79 L 2314.99,67.912 L 2316.38,54.224 L 2320.5,41.096 L 2327.18,29.066 L 2336.14,18.628 L 2347.02,10.206 L 2359.38,4.146 L 2372.7,0.698 L 2386.44,0 z " style="fill-opacity:1.000000;fill:rgb(94,75,121);stroke:rgb(0,0,0);stroke-width:2"/></g>
<g fill-rule="evenodd"><path d="M 2586.44,0 L 2600.04,2.084 L 2612.94,6.862 L 2624.61,14.14 L 2634.59,23.62 L 2642.45,34.912 L 2647.87,47.556 L 2650.64,61.034 L 2650.99,91.912 L 2649.6,105.6 L 2645.48,118.728 L 2638.8,130.758 L 2629.84,141.196 L 2618.96,149.618 L 2606.61,155.678 L 2593.29,159.126 L 2579.55,159.824 L 2565.95,157.74 L 2553.05,152.962 L 2541.37,145.684 L 2531.4,136.204 L 2523.54,124.912 L 2518.11,112.268 L 2515.34,98.79 L 2514.99,67.912 L 2516.38,54.224 L 2520.5,41.096 L 2527.18,29.066 L 2536.14,18.628 L 2547.02,10.206 L 2559.38,4.146 L 2572.7,0.698 L 2586.44,0 z " style="fill-opacity:1.000000;fill:rgb(99,59,112);stroke:rgb(0,0,0);stroke-width:2"/></g>
<g fill-rule="evenodd"><path d="M 2786.44,0 L 2800.04,2.084 L 2812.94,6.862 L 2824.61,14.14 L 2834.59,23.62 L 2842.45,34.912 L 2847.87,47.556 L 2850.64,61.034 L 2850.99,91.912 L 2849.6,105.6 L 2845.48,118.728 L 2838.8,130.758 L 2829.84,141.196 L 2818.96,149.618 L 2806.61,155.678 L 2793.29,159.126 L 2779.55,159.824 L 2765.95,157.74 L 2753.05,152.962 L 2741.37,145.684 L 2731.4,136.204 L 2723.54,124.912 L 2718.11,112.268 L 2715.34,98.79 L 2714.99,67.912 L 2716.38,54.224 L 2720.5,41.096 L 2727.18,29.066 L 2736.14,18.628 L 2747.02,10.206 L 2759.38,4.146 L 2772.7,0.698 L 2786.44,0 z " style="fill-opacity:1.000000;fill:rgb(100,36,17);stroke:rgb(0,0,0);stroke-width:2"/></g>
<g fill-rule="evenodd"><path d="M 3506.44,0 L 3520.04,2.084 L 3532.94,6.862 L 3544.61,14.14 L 3554.59,23.62 L 3562.45,34.912 L 3567.87,47.556 L 3570.64,61.034 L 3570.99,91.912 L 3569.6,105.6 L 3565.48,118.728 L 3558.8,130.758 L 3549.84,141.196 L 3538.96,149.618 L 3526.61,155.678 L 3513.29,159.126 L 3499.55,159.824 L 3485.95,157.74 L 3473.05,152.962 L 3461.37,145.684 L 3451.4,136.204 L 3443.54,124.912 L 3438.11,112.268 L 3435.34,98.79 L 3434.99,67.912 L 3436.38,54.224 L 3440.5,41.096 L 3447.18,29.066 L 3456.14,18.628 L 3467.02,10.206 L 3479.38,4.146 L 3492.7,0.698 L 3506.44,0 z " style="fill-opacity:1.000000;fill:rgb(158,9,220);stroke:rgb(0,0,0);stroke-width:2"/></g>
<g fill-rule="evenodd"><path d="M 3706.44,0 L 3720.04,2.084 L 3732.94,6.862 L 3744.61,14.14 L 3754.59,23.62 L 3762.45,34.912 L 3767.87,47.556 L 3770.64,61.034 L 3770.99,91.912 L 3769.6,105.6 L 3765.48,118.728 L 3758.8,130.758 L 3749.84,141.196 L 3738.96,149.618 L 3726.61,155.678 L 3713.29,159.126 L 3699.55,159.824 L 3685.95,157.74 L 3673.05,152.962 L 3661.37,145.684 L 3651.4,136.204 L 3643.54,124.912 L 3638.11,112.268 L 3635.34,98.79 L 3634.99,67.912 L 3636.38,54.224 L 3640.5,41.096 L 3647.18,29.066 L 3656.14,18.628 L 3667.02,10.206 L 3679.38,4.146 L 3692.7,0.698 L 3706.44,0 z " style="fill-opacity:1.000000;fill:rgb(170,212,172);stroke:rgb(0,0,0);stroke-width:2"/></g>
<g fill-rule="evenodd"><path d="M 3906.44,0 L 3920.04,2.084 L 3932.94,6.862 L 3944.61,14.14 L 3954.59,23.62 L 3962.45,34.912 L 3967.87,47.556 L 3970.64,61.034 L 3970.99,91.912 L 3969.6,105.6 L 3965.48,118.728 L 3958.8,130.758 L 3949.84,141.196 L 3938.96,149.618 L 3926.61,155.678 L 3913.29,159.126 L 3899.55,159.824 L 3885.95,157.74 L 3873.05,152.962 L 3861.37,145.684 L 3851.4,136.204 L 3843.54,124.912 L 3838.11,112.268 L 3835.34,98.79 L 3834.99,67.912 L 3836.38,54.224 L 3840.5,41.096 L 3847.18,29.066 L 3856.14,18.628 L 3867.02,10.206 L 3879.38,4.146 L 3892.7,0.698 L 3906.44,0 z " style="fill-opacity:1.000000;fill:rgb(242,27,16);stroke:rgb(0,0,0);stroke-width:2"/></g>
<g fill-rule="evenodd"><path d="M 4106.44,0 L 4120.04,2.084 L 4132.94,6.862 L 4144.61,14.14 L 4154.59,23.62 L 4162.45,34.912 L 4167.87,47.556 L 4170.64,61.034 L 4170.99,91.912 L 4169.6,105.6 L 4165.48,118.728 L 4158.8,130.758 L 4149.84,141.196 L 4138.96,149.618 L 4126.61,155.678 L 4113.29,159.126 L 4099.55,159.824 L 4085.95,157.74 L 4073.05,152.962 L 4061.37,145.684 L 4051.4,136.204 L 4043.54,124.912 L 4038.11,112.268 L 4035.34,98.79 L 4034.99,67.912 L 4036.38,54.224 L 4040.5,41.096 L 4047.18,29.066 L 4056.14,18.628 L 4067.02,10.206 L 4079.38,4.146 L 4092.7,0.698 L 4106.44,0 z " style="fill-opacity:1.000000;fill:rgb(175,59,51);stroke:rgb(0,0,0);stroke-width:2"/></g>
<g fill-rule="evenodd"><path d="M 4706.44,0 L 4720.04,2.084 L 4732.94,6.862 L 4744.61,14.14 L 4754.59,23.62 L 4762.45,34.912 L 4767.87,47.556 L 4770.64,61.034 L 4770.99,91.912 L 4769.6,105.6 L 4765.48,118.728 L 4758.8,130.758 L 4749.84,141.196 L 4738.96,149.618 L 4726.61,155.678 L 4713.29,159.126 L 4699.55,159.824 L 4685.95,157.74 L 4673.05,152.962 L 4661.37,145.684 L 4651.4,136.204 L 4643.54,124.912 L 4638.11,112.268 L 4635.34,98.79 L 4634.99,67.912 L 4636.38,54.224 L 4640.5,41.096 L 4647.18,29.066 L 4656.14,18.628 L 4667.02,10.206 L 4679.38,4.146 L 4692.7,0.698 L 4706.44,0 z " style="fill-opacity:1.000000;fill:rgb(205,227,80);stroke:rgb(0,0,0);stroke-width:2"/></g>
<g fill-rule="evenodd"><path d="M 4906.44,0 L 4920.04,2.084 L 4932.94,6.862 L 4944.61,14.14 L 4954.59,23.62 L 4962.45,34.912 L 4967.87,47.556 L 4970.64,61.034 L 4970.99,91.912 L 4969.6,105.6 L 4965.48,118.728 L 4958.8,130.758 L 4949.84,141.196 L 4938.96,149.618 L 4926.61,155.678 L 4913.29,159.126 L 4899.55,159.824 L 4885.95,157.74 L 4873.05,152.962 L 4861.37,145.684 L 4851.4,136.204 L 4843.54,124.912 L 4838.11,112.268 L 4835.34,98.79 L 4834.99,67.912 L 4836.38,54.224 L 4840.5,41.096 L 4847.18,29.066 L 4856.14,18.628 L 4867.02,10.206 L 4879.38,4.146 L 4892.7,0.698 L 4906.44,0 z " style="fill-opacity:1.000000;fill:rgb(72,71,21);stroke:rgb(0,0,0);stroke-width:2"/></g>
<g fill-rule="evenodd"><path d="M 5306.44,0 L 5320.04,2.084 L 5332.94,6.862 L 5344.61,14.14 L 5354.59,23.62 L 5362.45,34.912 L 5367.87,47.556 L 5370.64,61.034 L 5370.99,91.912 L 5369.6,105.6 L 5365.48,118.728 L 5358.8,130.758 L 5349.84,141.196 L 5338.96,149.618 L 5326.61,155.678 L 5313.29,159.126 L 5299.55,159.824 L 5285.95,157.74 L 5273.05,152.962 L 5261.37,145.684 L 5251.4,136.204 L 5243.54,124.912 L 5238.11,112.268 L 5235.34,98.79 L 5234.99,67.912 L 5236.38,54.224 L 5240.5,41.096 L 5247.18,29.066 L 5256.14,18.628 L 5267.02,10.206 L 5279.38,4.146 L 5292.7,0.698 L 5306.44,0 z " style="fill-opacity:1.000000;fill:rgb(92,187,111);stroke:rgb(0,0,0);stroke-width:2"/></g>
<g fill-rule="evenodd"><path d="M 5506.44,0 L 5520.04,2.084 L 5532.94,6.862 L 5544.61,14.14 L 5554.59,23.62 L 5562.45,34.912 L 5567.87,47.556 L 5570.64,61.034 L 5570.99,91.912 L 5569.6,105.6 L 5565.48,118.728 L 5558.8,130.758 L 5549.84,141.196 L 5538.96,149.618 L 5526.61,155.678 L 5513.29,159.126 L 5499.55,159.824 L 5485.95,157.74 L 5473.05,152.962 L 5461.37,145.684 L 5451.4,136.204 L 5443.54,124.912 L 5438.11,112.268 L 5435.34,98.79 L 5434.99,67.912 L 5436.38,54.224 L 5440.5,41.096 L 5447.18,29.066 L 5456.14,18.628 L 5467.02,10.206 L 5479.38,4.146 L 5492.7,0.698 L 5506.44,0 z " style="fill-opacity:1.000000;fill:rgb(34,25,186);stroke:rgb(0,0,0);stroke-width:2"/></g>
<g fill-rule="evenodd"><path d="M 5706.44,0 L 5720.04,2.084 L 5732.94,6.862 L 5744.61,14.14 L 5754.59,23.62 L 5762.45,34.912 L 5767.87,47.556 L 5770.64,61.034 L 5770.99,91.912 L 5769.6,105.6 L 5765.48,118.728 L 5758.8,130.758 L 5749.84,141.196 L 5738.96,149.618 L 5726.61,155.678 L 5713.29,159.126 L 5699.55,159.824 L 5685.95,157.74 L 5673.05,152.962 L 5661.37,145.684 L 5651.4,136.204 L 5643.54,124.912 L 5638.11,112.268 L 5635.34,98.79 L 5634.99,67.912 L 5636.38,54.224 L 5640.5,41.096 L 5647.18,29.066 L 5656.14,18.628 L 5667.02,10.206 L 5679.38,4.146 L 5692.7,0.698 L 5706.44,0 z " style="fill-opacity:1.000000;fill:rgb(155,125,245);stroke:rgb(0,0,0);stroke-width:2"/></g>
<g fill-rule="evenodd"><path d="M 5906.44,0 L 5920.04,2.084 L 5932.94,6.862 L 5944.61,14.14 L 5954.59,23.62 L 5962.45,34.912 L 5967.87,47.556 L 5970.64,61.034 L 5970.99,91.912 L 5969.6,105.6 L 5965.48,118.728 L 5958.8,130.758 L 5949.84,141.196 L 5938.96,149.618 L 5926.61,155.678 L 5913.29,159.126 L 5899.55,159.824 L 5885.95,157.74 L 5873.05,152.962 L 5861.37,145.684 L 5851.4,136.204 L 5843.54,124.912 L 5838.11,112.268 L 5835.34,98.79 L 5834.99,67.912 L 5836.38,54.224 L 5840.5,41.096 L 5847.18,29.066 L 5856.14,18.628 L 5867.02,10.206 L 5879.38,4.146 L 5892.7,0.698 L 5906.44,0 z " style="fill-opacity:1.000000;fill:rgb(11,225,26);stroke:rgb(0,0,0);stroke-width:2"/></g>
<g fill-rule="evenodd"><path d="M 6506.44,0 L 6520.04,2.084 L 6532.94,6.862 L 6544.61,14.14 L 6554.59,23.62 L 6562.45,34.912 L 6567.87,47.556 L 6570.64,61.034 L 6570.99,91.912 L 6569.6,105.6 L 6565.48,118.728 L 6558.8,130.758 L 6549.84,141.196 L 6538.96,149.618 L 6526.61,155.678 L 6513.29,159.126 L 6499.55,159.824 L 6485.95,157.74 L 6473.05,152.962 L 6461.37,145.684 L 6451.4,136.204 L 6443.54,124.912 L 6438.11,112.268 L 6435.34,98.79 L 6434.99,67.912 L 6436.38,54.224 L 6440.5,41.096 L 6447.18,29.066 L 6456.14,18.628 L 6467.02,10.206 L 6479.38,4.146 L 6492.7,0.698 L 6506.44,0 z " style="fill-opacity:1.000000;fill:rgb(28,127,35);stroke:rgb(0,0,0);stroke-width:2"/></g>
<g fill-rule="evenodd"><path d="M 6706.44,0 L 6720.04,2.084 L 6732.94,6.862 L 6744.61,14.14 L 6754.59,23.62 L 6762.45,34.912 L 6767.87,47.556 L 6770.64,61.034 L 6770.99,91.912 L 6769.6,105.6 L 6765.48,118.728 L 6758.8,130.758 L 6749.84,141.196 L 6738.96,149.618 L 6726.61,155.678 L 6713.29,159.126 L 6699.55,159.824 L 6685.95,157.74 L 6673.05,152.962 L 6661.37,145.684 L 6651.4,136.204 L 6643.54,124.912 L 6638.11,112.268 L 6635.34,98.79 L 6634.99,67.912 L 6636.38,54.224 L 6640.5,41.096 L 6647.18,29.066 L 6656.14,18.628 L 6667.02,10.206 L 6679.38,4.146 L 6692.7,0.698 L 6706.44,0 z " style="fill-opacity:1.000000;fill:rgb(248,41,248);stroke:rgb(0,0,0);stroke-width:2"/></g>
<g fill-rule="evenodd"><path d="M 2809.52,1662.9 L 2802.36,1668.1 L 2787.32,1674.8 L 2771.22,1678.22 L 2754.76,1678.22 L 2738.66,1674.8 L 2723.62,1668.1 L 2710.31,1658.43 L 2699.29,1646.19 L 2691.06,1631.94 L 2685.97,1616.28 L 2684.25,1599.91 L 2685.97,1583.54 L 2691.06,1567.89 L 2699.29,1553.63 L 2710.31,1541.4 L 2723.62,1531.72 L 2738.66,1525.03 L 2754.76,1521.6 L 2771.22,1521.6 L 2787.32,1525.03 L 2802.36,1531.72 L 2809.51,1536.92 L 3616.47,1536.92 L 3623.62,1531.72 L 3638.66,1525.03 L 3654.76,1521.6 L 3671.22,1521.6 L 3687.32,1525.03 L 3702.36,1531.72 L 3709.51,1536.92 L 5216.47,1536.92 L 5223.62,1531.72 L 5238.66,1525.03 L 5254.76,1521.6 L 5271.22,1521.6 L 5287.32,1525.03 L 5302.36,1531.72 L 5309.51,1536.92 L 5700,1536.92 L 5700,1062.9 L 5509.52,1062.9 L 5502.36,1068.1 L 5487.32,1074.8 L 5471.22,1078.22 L 5454.76,1078.22 L 5438.66,1074.8 L 5423.62,1068.1 L 5410.31,1058.43 L 5399.29,1046.19 L 5391.06,1031.94 L 5385.97,1016.28 L 5384.25,999.912 L 5385.97,983.542 L 5391.06,967.886 L 5399.29,953.63 L 5410.31,941.398 L 5423.62,931.722 L 5438.66,925.026 L 5454.76,921.604 L 5471.22,921.604 L 5487.32,925.026 L 5502.36,931.722 L 5509.51,936.92 L 5740.94,936.92 L 5742.96,936.054 L 5756.22,933.328 L 5762.99,932.984 L 5776.46,934.356 L 5789.38,938.408 L 5801.22,944.98 L 5811.5,953.802 L 5819.79,964.51 L 5825.75,976.668 L 5829.15,989.778 L 5829.83,1003.3 L 5827.78,1016.69 L 5825.98,1021.54 L 5825.98,1599.91 L 5824.77,1612.2 L 5821.19,1624.02 L 5815.37,1634.91 L 5807.53,1644.45 L 5797.99,1652.29 L 5787.1,1658.11 L 5775.28,1661.69 L 5762.99,1662.9 L 5309.52,1662.9 L 5302.36,1668.1 L 5287.32,1674.8 L 5271.22,1678.22 L 5254.76,1678.22 L 5238.66,1674.8 L 5223.62,1668.1 L 5216.47,1662.9 L 3709.52,1662.9 L 3702.36,1668.1 L 3687.32,1674.8 L 3671.22,1678.22 L 3654.76,1678.22 L 3638.66,1674.8 L 3623.62,1668.1 L 3616.47,1662.9 L 2809.52,1662.9 z " style="fill-opacity:1.000000;fill:rgb(164,27,19);stroke:rgb(0,0,0);stroke-width:2"/></g>
<g fill-rule="evenodd"><path d="M 2699.55,3959.82 L 2685.95,3957.74 L 2673.05,3952.96 L 2661.37,3945.68 L 2651.4,3936.2 L 2643.54,3924.91 L 2638.11,3912.27 L 2635.34,3898.79 L 2634.99,3867.91 L 2635.24,3865.43 L 2612.46,3762.9 L 1962.99,3762.9 L 1950.7,3761.69 L 1938.89,3758.11 L 1927.99,3752.29 L 1918.45,3744.45 L 1910.62,3734.91 L 1904.79,3724.02 L 1901.21,3712.2 L 1900,3699.91 L 1900,1799.91 L 1901.21,1787.62 L 1904.79,1775.81 L 1910.62,1764.91 L 1918.45,1755.37 L 1927.99,1747.54 L 1938.89,1741.71 L 1950.7,1738.13 L 1962.99,1736.92 L 4016.47,1736.92 L 4023.62,1731.72 L 4038.66,1725.03 L 4054.76,1721.6 L 4071.22,1721.6 L 4087.32,1725.03 L 4102.36,1731.72 L 4109.51,1736.92 L 6300,1736.92 L 6300,1066.84 L 6296.06,1066.84 L 6296.06,932.984 L 6340.83,932.984 L 6500,773.818 L 6500,466.84 L 6496.06,466.84 L 6496.06,332.984 L 6629.92,332.984 L 6629.92,466.84 L 6625.98,466.84 L 6625.98,799.912 L 6624.77,812.2 L 6621.19,824.016 L 6615.37,834.908 L 6607.53,844.454 L 6429.92,1022.07 L 6429.92,1066.84 L 6425.98,1066.84 L 6425.98,1799.91 L 6424.77,1812.2 L 6421.19,1824.02 L 6415.37,1834.91 L 6407.53,1844.45 L 6397.99,1852.29 L 6387.1,1858.11 L 6375.28,1861.69 L 6362.99,1862.9 L 4109.52,1862.9 L 4102.36,1868.1 L 4087.32,1874.8 L 4071.22,1878.22 L 4054.76,1878.22 L 4038.66,1874.8 L 4023.62,1868.1 L 4016.47,1862.9 L 2025.98,1862.9 L 2025.98,3636.92 L 2662.99,3636.92 L 2675.08,3638.09 L 2686.73,3641.56 L 2697.48,3647.2 L 2706.96,3654.8 L 2714.8,3664.08 L 2720.72,3674.7 L 2724.48,3686.25 L 2755.21,3824.51 L 2762.45,3834.91 L 2767.87,3847.56 L 2770.64,3861.03 L 2770.99,3891.91 L 2769.6,3905.6 L 2765.48,3918.73 L 2758.8,3930.76 L 2749.84,3941.2 L 2738.96,3949.62 L 2726.61,3955.68 L 2713.29,3959.13 L 2699.55,3959.82 z " style="fill-opacity:1.000000;fill:rgb(181,202,78);stroke:rgb(0,0,0);stroke-width:2"/></g>
<g fill-rule="evenodd"><path d="M 1625.98,2252.84 L 1626.69,2253.63 L 1634.92,2267.89 L 1640.01,2283.54 L 1641.73,2299.91 L 1640.01,2316.28 L 1634.92,2331.94 L 1626.69,2346.19 L 1615.68,2358.43 L 1602.36,2368.1 L 1587.32,2374.8 L 1571.22,2378.22 L 1554.76,2378.22 L 1538.66,2374.8 L 1523.62,2368.1 L 1510.31,2358.43 L 1499.29,2346.19 L 1491.06,2331.94 L 1485.97,2316.28 L 1484.25,2299.91 L 1485.97,2283.54 L 1491.06,2267.89 L 1499.29,2253.63 L 1500,2252.84 L 1500,1946.98 L 1499.29,1946.19 L 1491.06,1931.94 L 1485.97,1916.28 L 1484.25,1899.91 L 1485.97,1883.54 L 1491.06,1867.89 L 1499.29,1853.63 L 1500,1852.84 L 1500,1762.9 L 385.046,1762.9 L 383.026,1763.77 L 369.762,1766.5 L 362.992,1766.84 L 349.52,1765.47 L 336.6,1761.42 L 324.76,1754.84 L 314.484,1746.02 L 306.194,1735.31 L 300.232,1723.16 L 296.836,1710.05 L 296.15,1696.52 L 298.202,1683.14 L 302.904,1670.44 L 310.068,1658.95 L 319.398,1649.13 L 330.512,1641.39 L 342.958,1636.05 L 356.222,1633.33 L 362.992,1632.98 L 376.464,1634.36 L 384.638,1636.92 L 1562.99,1636.92 L 1575.28,1638.13 L 1587.1,1641.71 L 1597.99,1647.54 L 1607.53,1655.37 L 1615.37,1664.91 L 1621.19,1675.81 L 1624.77,1687.62 L 1625.98,1699.91 L 1625.98,1852.84 L 1626.69,1853.63 L 1634.92,1867.89 L 1640.01,1883.54 L 1641.73,1899.91 L 1640.01,1916.28 L 1634.92,1931.94 L 1626.69,1946.19 L 1625.98,1946.98 L 1625.98,2252.84 z " style="fill-opacity:1.000000;fill:rgb(232,152,50);stroke:rgb(0,0,0);stroke-width:2"/></g>
<g fill-rule="evenodd"><path d="M -1.81899e-12,2399.91 L -1.81899e-12,299.912 L 1.21,287.622 L 4.794,275.806 L 10.616,264.914 L 18.448,255.368 L 27.994,247.536 L 38.886,241.714 L 50.702,238.13 L 62.992,236.92 L 762.992,236.92 L 775.28,238.13 L 787.096,241.714 L 797.988,247.536 L 807.534,255.368 L 815.366,264.914 L 821.188,275.806 L 824.772,287.622 L 825.984,299.912 L 825.984,652.842 L 826.692,653.63 L 834.924,667.886 L 840.01,683.542 L 841.732,699.912 L 840.01,716.282 L 834.924,731.938 L 826.692,746.194 L 815.678,758.426 L 802.362,768.102 L 787.322,774.798 L 771.222,778.22 L 754.762,778.22 L 738.662,774.798 L 723.624,768.102 L 710.306,758.426 L 699.292,746.194 L 691.06,731.938 L 685.974,716.282 L 684.252,699.912 L 685.974,683.542 L 691.06,667.886 L 699.292,653.63 L 700,652.844 L 700,362.904 L 125.984,362.904 L 125.984,1036.92 L 340.938,1036.92 L 342.958,1036.05 L 356.222,1033.33 L 362.992,1032.98 L 376.464,1034.36 L 389.384,1038.41 L 401.224,1044.98 L 411.5,1053.8 L 419.79,1064.51 L 425.752,1076.67 L 429.148,1089.78 L 429.834,1103.3 L 427.782,1116.69 L 423.08,1129.39 L 415.916,1140.88 L 406.586,1150.69 L 395.472,1158.43 L 383.026,1163.77 L 369.762,1166.5 L 362.992,1166.84 L 349.52,1165.47 L 341.346,1162.9 L 125.984,1162.9 L 125.984,2373.82 L 489.084,2736.92 L 900,2736.92 L 900,2346.98 L 899.292,2346.19 L 891.06,2331.94 L 885.974,2316.28 L 884.252,2299.91 L 885.974,2283.54 L 891.06,2267.89 L 899.292,2253.63 L 910.306,2241.4 L 923.622,2231.72 L 938.662,2225.03 L 954.762,2221.6 L 971.222,2221.6 L 987.322,2225.03 L 1002.36,2231.72 L 1015.68,2241.4 L 1026.69,2253.63 L 1034.92,2267.89 L 1040.01,2283.54 L 1041.73,2299.91 L 1040.01,2316.28 L 1034.92,2331.94 L 1026.69,2346.19 L 1025.98,2346.98 L 1025.98,2736.92 L 1716.47,2736.92 L 1723.62,2731.72 L 1738.66,2725.03 L 1754.76,2721.6 L 1771.22,2721.6 L 1787.32,2725.03 L 1802.36,2731.72 L 1815.68,2741.4 L 1826.69,2753.63 L 1834.92,2767.89 L 1840.01,2783.54 L 1841.73,2799.91 L 1840.01,2816.28 L 1834.92,2831.94 L 1826.69,2846.19 L 1815.68,2858.43 L 1802.36,2868.1 L 1787.32,2874.8 L 1771.22,2878.22 L 1754.76,2878.22 L 1738.66,2874.8 L 1723.62,2868.1 L 1716.47,2862.9 L 462.992,2862.9 L 450.702,2861.69 L 438.886,2858.11 L 427.994,2852.29 L 418.448,2844.45 L 18.448,2444.45 L 10.616,2434.91 L 4.794,2424.02 L 1.21,2412.2 L -1.81899e-12,2399.91 z " style="fill-opacity:1.000000;fill:rgb(56,224,121);stroke:rgb(0,0,0);stroke-width:2"/></g>
<g fill-rule="evenodd"><path d="M 2899.55,3959.82 L 2885.95,3957.74 L 2873.05,3952.96 L 2861.37,3945.68 L 2851.4,3936.2 L 2843.54,3924.91 L 2838.11,3912.27 L 2835.34,3898.79 L 2834.99,3867.91 L 2836.38,3854.22 L 2836.81,3852.88 L 2806.28,3562.9 L 2162.99,3562.9 L 2150.7,3561.69 L 2138.89,3558.11 L 2127.99,3552.29 L 2118.45,3544.45 L 2110.62,3534.91 L 2104.79,3524.02 L 2101.21,3512.2 L 2100,3499.91 L 2100,2846.98 L 2099.29,2846.19 L 2091.06,2831.94 L 2085.97,2816.28 L 2084.25,2799.91 L 2085.97,2783.54 L 2091.06,2767.89 L 2099.29,2753.63 L 2100,2752.84 L 2100,1999.91 L 2101.21,1987.62 L 2104.79,1975.81 L 2110.62,1964.91 L 2118.45,1955.37 L 2127.99,1947.54 L 2138.89,1941.71 L 2150.7,1938.13 L 2162.99,1936.92 L 7000,1936.92 L 7000,99.912 L 7001.21,87.622 L 7004.79,75.806 L 7010.62,64.914 L 7018.45,55.368 L 7038.45,35.368 L 7047.99,27.536 L 7058.89,21.714 L 7070.7,18.13 L 7082.99,16.92 L 7278.24,16.92 L 7282.64,15.032 L 7296.11,12.262 L 7302.99,11.912 L 7316.68,13.304 L 7328.2,16.92 L 7478.24,16.92 L 7482.64,15.032 L 7496.11,12.262 L 7502.99,11.912 L 7516.68,13.304 L 7529.81,17.424 L 7541.84,24.102 L 7552.28,33.064 L 7560.7,43.944 L 7566.76,56.296 L 7570.21,69.616 L 7570.9,83.356 L 7568.82,96.956 L 7564.04,109.858 L 7556.76,121.534 L 7547.28,131.506 L 7535.99,139.366 L 7523.35,144.792 L 7509.87,147.562 L 7502.99,147.912 L 7489.3,146.52 L 7477.78,142.904 L 7327.75,142.904 L 7323.35,144.792 L 7309.87,147.562 L 7302.99,147.912 L 7289.3,146.52 L 7277.78,142.904 L 7125.98,142.904 L 7125.98,1999.91 L 7124.77,2012.2 L 7121.19,2024.02 L 7115.37,2034.91 L 7107.53,2044.45 L 7097.99,2052.29 L 7087.1,2058.11 L 7075.28,2061.69 L 7062.99,2062.9 L 2225.98,2062.9 L 2225.98,2752.84 L 2226.69,2753.63 L 2234.92,2767.89 L 2240.01,2783.54 L 2241.73,2799.91 L 2240.01,2816.28 L 2234.92,2831.94 L 2226.69,2846.19 L 2225.98,2846.98 L 2225.98,3436.92 L 2862.99,3436.92 L 2876.09,3438.3 L 2888.61,3442.36 L 2900.01,3448.95 L 2909.8,3457.76 L 2917.54,3468.41 L 2922.9,3480.44 L 2925.64,3493.32 L 2961.44,3833.47 L 2962.45,3834.91 L 2967.87,3847.56 L 2970.64,3861.03 L 2970.99,3891.91 L 2969.6,3905.6 L 2965.48,3918.73 L 2958.8,3930.76 L 2949.84,3941.2 L 2938.96,3949.62 L 2926.61,3955.68 L 2913.29,3959.13 L 2899.55,3959.82 z " style="fill-opacity:1.000000;fill:rgb(77,61,52);stroke:rgb(0,0,0);stroke-width:2"/></g>
<g fill-rule="evenodd"><path d="M 3299.55,3959.82 L 3285.95,3957.74 L 3273.05,3952.96 L 3261.37,3945.68 L 3258.45,3942.9 L 3147.63,3942.9 L 3138.96,3949.62 L 3126.61,3955.68 L 3113.29,3959.13 L 3099.55,3959.82 L 3085.95,3957.74 L 3073.05,3952.96 L 3061.37,3945.68 L 3051.4,3936.2 L 3043.54,3924.91 L 3038.11,3912.27 L 3035.34,3898.79 L 3034.99,3867.91 L 3036.38,3854.22 L 3040.5,3841.1 L 3047.18,3829.07 L 3056.14,3818.63 L 3067.02,3810.21 L 3079.38,3804.15 L 3092.7,3800.7 L 3106.44,3800 L 3120.04,3802.08 L 3132.94,3806.86 L 3144.61,3814.14 L 3147.54,3816.92 L 3230.36,3816.92 L 3200.63,3608.82 L 3200.06,3597.17 L 3201.64,3585.61 L 3205.33,3574.54 L 3211,3564.35 L 3213.18,3561.36 L 3218.45,3555.37 L 3600,3173.82 L 3600,2246.98 L 3599.29,2246.19 L 3591.06,2231.94 L 3585.97,2216.28 L 3584.25,2199.91 L 3585.97,2183.54 L 3591.06,2167.89 L 3599.29,2153.63 L 3610.31,2141.4 L 3623.62,2131.72 L 3638.66,2125.03 L 3654.76,2121.6 L 3671.22,2121.6 L 3687.32,2125.03 L 3702.36,2131.72 L 3715.68,2141.4 L 3726.69,2153.63 L 3734.92,2167.89 L 3740.01,2183.54 L 3741.73,2199.91 L 3740.01,2216.28 L 3734.92,2231.94 L 3726.69,2246.19 L 3725.98,2246.98 L 3725.98,3199.91 L 3725.9,3203.1 L 3724.77,3212.2 L 3723.97,3215.7 L 3721.19,3224.02 L 3719.55,3227.65 L 3715.37,3234.91 L 3712.8,3238.47 L 3707.53,3244.45 L 3329.8,3622.18 L 3359.61,3830.84 L 3362.45,3834.91 L 3367.87,3847.56 L 3370.64,3861.03 L 3370.99,3891.91 L 3369.6,3905.6 L 3365.48,3918.73 L 3358.8,3930.76 L 3349.84,3941.2 L 3338.96,3949.62 L 3326.61,3955.68 L 3313.29,3959.13 L 3299.55,3959.82 z " style="fill-opacity:1.000000;fill:rgb(188,95,78);stroke:rgb(0,0,0);stroke-width:2"/></g>
<g fill-rule="evenodd"><path d="M 2296.06,1536.92 L 2296.06,1532.98 L 2429.92,1532.98 L 2429.92,1666.84 L 2296.06,1666.84 L 2296.06,1662.9 L 1825.98,1662.9 L 1825.98,2499.91 L 1824.77,2512.2 L 1821.19,2524.02 L 1815.37,2534.91 L 1807.53,2544.45 L 1797.99,2552.29 L 1787.1,2558.11 L 1775.28,2561.69 L 1762.99,2562.9 L 1262.99,2562.9 L 1250.7,2561.69 L 1238.89,2558.11 L 1227.99,2552.29 L 1218.45,2544.45 L 1210.62,2534.91 L 1204.79,2524.02 L 1201.21,2512.2 L 1200,2499.91 L 1200,1962.9 L 1009.52,1962.9 L 1002.36,1968.1 L 987.322,1974.8 L 971.222,1978.22 L 954.762,1978.22 L 938.662,1974.8 L 923.624,1968.1 L 910.306,1958.43 L 899.292,1946.19 L 891.06,1931.94 L 885.974,1916.28 L 884.252,1899.91 L 885.974,1883.54 L 891.06,1867.89 L 899.292,1853.63 L 910.306,1841.4 L 923.622,1831.72 L 938.662,1825.03 L 954.762,1821.6 L 971.222,1821.6 L 987.322,1825.03 L 1002.36,1831.72 L 1009.51,1836.92 L 1262.99,1836.92 L 1275.28,1838.13 L 1287.1,1841.71 L 1297.99,1847.54 L 1307.53,1855.37 L 1315.37,1864.91 L 1321.19,1875.81 L 1324.77,1887.62 L 1325.98,1899.91 L 1325.98,2436.92 L 1700,2436.92 L 1700,1599.91 L 1701.21,1587.62 L 1704.79,1575.81 L 1710.62,1564.91 L 1718.45,1555.37 L 1727.99,1547.54 L 1738.89,1541.71 L 1750.7,1538.13 L 1762.99,1536.92 L 2296.06,1536.92 z " style="fill-opacity:1.000000;fill:rgb(119,250,203);stroke:rgb(0,0,0);stroke-width:2"/></g>
<g fill-rule="evenodd"><path d="M 2296.06,736.92 L 2296.06,732.984 L 2429.92,732.984 L 2429.92,866.84 L 2296.06,866.84 L 2296.06,862.904 L 1762.99,862.904 L 1750.7,861.692 L 1738.89,858.108 L 1727.99,852.286 L 1718.45,844.454 L 1710.62,834.908 L 1704.79,824.016 L 1701.21,812.2 L 1700,799.912 L 1700,562.904 L 1025.98,562.904 L 1025.98,852.842 L 1026.69,853.63 L 1034.92,867.886 L 1040.01,883.542 L 1041.73,899.912 L 1040.01,916.282 L 1034.92,931.938 L 1026.69,946.194 L 1015.68,958.426 L 1002.36,968.102 L 987.322,974.798 L 971.222,978.22 L 954.762,978.22 L 938.662,974.798 L 923.624,968.102 L 910.306,958.426 L 899.292,946.194 L 891.06,931.938 L 885.974,916.282 L 884.252,899.912 L 885.974,883.542 L 891.06,867.886 L 899.292,853.63 L 900,852.844 L 900,499.912 L 901.21,487.622 L 904.794,475.806 L 910.616,464.914 L 918.448,455.368 L 927.994,447.536 L 938.886,441.714 L 950.702,438.13 L 962.992,436.92 L 1762.99,436.92 L 1775.28,438.13 L 1787.1,441.714 L 1797.99,447.536 L 1807.53,455.368 L 1815.37,464.914 L 1821.19,475.806 L 1824.77,487.622 L 1825.98,499.912 L 1825.98,736.92 L 2296.06,736.92 z " style="fill-opacity:1.000000;fill:rgb(108,5,172);stroke:rgb(0,0,0);stroke-width:2"/></g>
<g fill-rule="evenodd"><path d="M 1500,1346.98 L 1499.29,1346.19 L 1491.06,1331.94 L 1485.97,1316.28 L 1484.25,1299.91 L 1485.97,1283.54 L 1491.06,1267.89 L 1499.29,1253.63 L 1500,1252.84 L 1500,946.982 L 1499.29,946.194 L 1491.06,931.938 L 1485.97,916.282 L 1484.25,899.912 L 1485.97,883.542 L 1491.06,867.886 L 1499.29,853.63 L 1510.31,841.398 L 1523.62,831.722 L 1538.66,825.026 L 1554.76,821.604 L 1571.22,821.604 L 1587.32,825.026 L 1602.36,831.722 L 1615.68,841.398 L 1626.69,853.63 L 1634.92,867.886 L 1640.01,883.542 L 1641.73,899.912 L 1640.01,916.282 L 1634.92,931.938 L 1626.69,946.194 L 1625.98,946.98 L 1625.98,1252.84 L 1626.69,1253.63 L 1634.92,1267.89 L 1640.01,1283.54 L 1641.73,1299.91 L 1640.01,1316.28 L 1634.92,1331.94 L 1626.69,1346.19 L 1625.98,1346.98 L 1625.98,1499.91 L 1624.77,1512.2 L 1621.19,1524.02 L 1615.37,1534.91 L 1607.53,1544.45 L 1597.99,1552.29 L 1587.1,1558.11 L 1575.28,1561.69 L 1562.99,1562.9 L 385.046,1562.9 L 383.026,1563.77 L 369.762,1566.5 L 362.992,1566.84 L 349.52,1565.47 L 336.6,1561.42 L 324.76,1554.84 L 314.484,1546.02 L 306.194,1535.31 L 300.232,1523.16 L 296.836,1510.05 L 296.15,1496.52 L 298.202,1483.14 L 302.904,1470.44 L 310.068,1458.95 L 319.398,1449.13 L 330.512,1441.39 L 342.958,1436.05 L 356.222,1433.33 L 362.992,1432.98 L 376.464,1434.36 L 384.638,1436.92 L 1500,1436.92 L 1500,1346.98 z " style="fill-opacity:1.000000;fill:rgb(134,33,43);stroke:rgb(0,0,0);stroke-width:2"/></g>
<g fill-rule="evenodd"><path d="M 825.984,946.98 L 825.984,999.912 L 824.772,1012.2 L 821.188,1024.02 L 815.366,1034.91 L 807.534,1044.45 L 507.534,1344.45 L 497.988,1352.29 L 487.096,1358.11 L 475.28,1361.69 L 462.992,1362.9 L 385.046,1362.9 L 383.026,1363.77 L 369.762,1366.5 L 362.992,1366.84 L 349.52,1365.47 L 336.6,1361.42 L 324.76,1354.84 L 314.484,1346.02 L 306.194,1335.31 L 300.232,1323.16 L 296.836,1310.05 L 296.15,1296.52 L 298.202,1283.14 L 302.904,1270.44 L 310.068,1258.95 L 319.398,1249.13 L 330.512,1241.39 L 342.958,1236.05 L 356.222,1233.33 L 362.992,1232.98 L 376.464,1234.36 L 384.638,1236.92 L 436.9,1236.92 L 700,973.82 L 700,946.982 L 699.292,946.194 L 691.06,931.938 L 685.974,916.282 L 684.252,899.912 L 685.974,883.542 L 691.06,867.886 L 699.292,853.63 L 710.306,841.398 L 723.622,831.722 L 738.662,825.026 L 754.762,821.604 L 771.222,821.604 L 787.322,825.026 L 802.36,831.722 L 815.678,841.398 L 826.692,853.63 L 834.924,867.886 L 840.01,883.542 L 841.732,899.912 L 840.01,916.282 L 834.924,931.938 L 826.692,946.194 L 825.984,946.98 z " style="fill-opacity:1.000000;fill:rgb(170,26,85);stroke:rgb(0,0,0);stroke-width:2"/></g>
<g fill-rule="evenodd"><path d="M 1100,746.982 L 1099.29,746.194 L 1091.06,731.938 L 1085.97,716.282 L 1084.25,699.912 L 1085.97,683.542 L 1091.06,667.886 L 1099.29,653.63 L 1110.31,641.398 L 1123.62,631.722 L 1138.66,625.026 L 1154.76,621.604 L 1171.22,621.604 L 1187.32,625.026 L 1202.36,631.722 L 1215.68,641.398 L 1226.69,653.63 L 1234.92,667.886 L 1240.01,683.542 L 1241.73,699.912 L 1240.01,716.282 L 1234.92,731.938 L 1226.69,746.194 L 1225.98,746.98 L 1225.98,1299.91 L 1224.77,1312.2 L 1221.19,1324.02 L 1215.37,1334.91 L 1207.53,1344.45 L 1197.99,1352.29 L 1187.1,1358.11 L 1175.28,1361.69 L 1162.99,1362.9 L 1009.52,1362.9 L 1002.36,1368.1 L 987.322,1374.8 L 971.222,1378.22 L 954.762,1378.22 L 938.662,1374.8 L 923.624,1368.1 L 910.306,1358.43 L 899.292,1346.19 L 891.06,1331.94 L 885.974,1316.28 L 884.252,1299.91 L 885.974,1283.54 L 891.06,1267.89 L 899.292,1253.63 L 910.306,1241.4 L 923.622,1231.72 L 938.662,1225.03 L 954.762,1221.6 L 971.222,1221.6 L 987.322,1225.03 L 1002.36,1231.72 L 1009.51,1236.92 L 1100,1236.92 L 1100,746.982 z " style="fill-opacity:1.000000;fill:rgb(162,190,112);stroke:rgb(0,0,0);stroke-width:2"/></g>
<g fill-rule="evenodd"><path d="M 429.92,1962.9 L 429.92,1966.84 L 296.064,1966.84 L 296.064,1832.98 L 429.92,1832.98 L 429.92,1836.92 L 716.468,1836.92 L 723.622,1831.72 L 738.662,1825.03 L 754.762,1821.6 L 771.222,1821.6 L 787.322,1825.03 L 802.36,1831.72 L 815.678,1841.4 L 826.692,1853.63 L 834.924,1867.89 L 840.01,1883.54 L 841.732,1899.91 L 840.01,1916.28 L 834.924,1931.94 L 826.692,1946.19 L 815.678,1958.43 L 802.362,1968.1 L 787.322,1974.8 L 771.222,1978.22 L 754.762,1978.22 L 738.662,1974.8 L 723.624,1968.1 L 716.47,1962.9 L 429.92,1962.9 z " style="fill-opacity:1.000000;fill:rgb(181,115,59);stroke:rgb(0,0,0);stroke-width:2"/></g>
<g fill-rule="evenodd"><path d="M 1986.44,0 L 2000.04,2.084 L 2012.94,6.862 L 2024.61,14.14 L 2034.59,23.62 L 2042.45,34.912 L 2047.87,47.556 L 2050.64,61.034 L 2050.99,91.912 L 2049.6,105.6 L 2045.98,117.122 L 2045.98,259.802 L 2123.1,336.92 L 2340.94,336.92 L 2342.96,336.054 L 2356.22,333.328 L 2362.99,332.984 L 2376.46,334.356 L 2389.38,338.408 L 2401.22,344.98 L 2411.5,353.802 L 2419.79,364.51 L 2425.75,376.668 L 2429.15,389.778 L 2429.83,403.3 L 2427.78,416.686 L 2423.08,429.386 L 2415.92,440.878 L 2406.59,450.694 L 2395.47,458.43 L 2383.03,463.77 L 2369.76,466.496 L 2362.99,466.84 L 2349.52,465.468 L 2341.35,462.904 L 2160,462.904 L 2160,565.896 L 2158.79,578.184 L 2155.2,590 L 2149.38,600.89 L 2140.52,611.466 L 2140.01,616.282 L 2134.92,631.938 L 2126.69,646.194 L 2115.68,658.426 L 2102.36,668.102 L 2087.32,674.798 L 2071.22,678.22 L 2054.76,678.22 L 2038.66,674.798 L 2023.62,668.102 L 2010.31,658.426 L 1999.29,646.194 L 1991.06,631.938 L 1985.97,616.282 L 1984.25,599.912 L 1985.97,583.542 L 1991.06,567.886 L 1999.29,553.63 L 2010.31,541.398 L 2023.62,531.722 L 2034.01,527.098 L 2034.01,426.004 L 1956.9,348.886 L 1802.13,348.888 L 1797.99,352.286 L 1787.1,358.108 L 1775.28,361.692 L 1762.99,362.904 L 963.432,362.904 L 951.106,361.686 L 939.26,358.08 L 928.346,352.228 L 918.788,344.352 L 910.556,334.376 L 904.766,323.508 L 901.202,311.724 L 900,299.47 L 900,162.904 L 509.516,162.904 L 502.362,168.102 L 487.322,174.798 L 471.222,178.22 L 454.762,178.22 L 438.662,174.798 L 423.624,168.102 L 410.306,158.426 L 399.292,146.194 L 391.06,131.938 L 385.974,116.282 L 384.252,99.912 L 385.974,83.542 L 391.06,67.886 L 399.292,53.63 L 410.306,41.398 L 423.622,31.722 L 438.662,25.026 L 454.762,21.604 L 471.222,21.604 L 487.322,25.026 L 502.36,31.722 L 509.514,36.92 L 962.992,36.92 L 975.28,38.13 L 987.096,41.714 L 997.988,47.536 L 1007.53,55.368 L 1015.37,64.914 L 1021.19,75.806 L 1024.77,87.622 L 1025.98,99.912 L 1025.98,236.92 L 1737.87,236.918 L 1742.01,233.52 L 1752.9,227.698 L 1764.71,224.114 L 1777.01,222.904 L 1920,222.904 L 1920,116.668 L 1918.11,112.268 L 1915.34,98.79 L 1914.99,67.912 L 1916.38,54.224 L 1920.5,41.096 L 1927.18,29.066 L 1936.14,18.628 L 1947.02,10.206 L 1959.38,4.146 L 1972.7,0.698 L 1986.44,0 z " style="fill-opacity:1.000000;fill:rgb(4,92,211);stroke:rgb(0,0,0);stroke-width:2"/></g>
<g fill-rule="evenodd"><path d="M 385.468,488.348 L 385.974,483.542 L 391.06,467.886 L 399.292,453.63 L 410.306,441.398 L 423.622,431.722 L 438.662,425.026 L 454.762,421.604 L 471.222,421.604 L 487.322,425.026 L 502.36,431.722 L 515.678,441.398 L 526.692,453.63 L 534.924,467.886 L 540.01,483.542 L 541.732,499.912 L 540.01,516.282 L 534.924,531.938 L 526.692,546.194 L 515.678,558.426 L 502.362,568.102 L 487.322,574.798 L 474.456,577.532 L 425.984,626.004 L 425.984,877.562 L 429.148,889.778 L 429.834,903.3 L 427.782,916.686 L 423.08,929.386 L 415.916,940.878 L 406.586,950.694 L 395.472,958.43 L 383.026,963.77 L 369.762,966.496 L 362.992,966.84 L 349.52,965.468 L 336.6,961.416 L 324.76,954.844 L 314.484,946.022 L 306.194,935.314 L 300.232,923.156 L 296.836,910.046 L 296.15,896.524 L 298.202,883.138 L 300,878.282 L 300,599.912 L 301.21,587.622 L 304.794,575.806 L 310.616,564.914 L 318.448,555.368 L 385.468,488.348 z " style="fill-opacity:1.000000;fill:rgb(54,148,179);stroke:rgb(0,0,0);stroke-width:2"/></g>
<g fill-rule="evenodd"><path d="M 2140.51,988.348 L 2289.08,1136.92 L 2340.94,1136.92 L 2342.96,1136.05 L 2356.22,1133.33 L 2362.99,1132.98 L 2376.46,1134.36 L 2384.63,1136.92 L 2716.47,1136.92 L 2723.62,1131.72 L 2738.66,1125.03 L 2754.76,1121.6 L 2771.22,1121.6 L 2787.32,1125.03 L 2802.36,1131.72 L 2815.68,1141.4 L 2826.69,1153.63 L 2834.92,1167.89 L 2840.01,1183.54 L 2841.73,1199.91 L 2840.01,1216.28 L 2834.92,1231.94 L 2826.69,1246.19 L 2815.68,1258.43 L 2802.36,1268.1 L 2787.32,1274.8 L 2771.22,1278.22 L 2754.76,1278.22 L 2738.66,1274.8 L 2723.62,1268.1 L 2716.47,1262.9 L 2385.05,1262.9 L 2383.03,1263.77 L 2369.76,1266.5 L 2362.99,1266.84 L 2349.52,1265.47 L 2341.35,1262.9 L 2262.99,1262.9 L 2250.7,1261.69 L 2238.89,1258.11 L 2227.99,1252.29 L 2218.45,1244.45 L 2051.53,1077.53 L 2038.66,1074.8 L 2023.62,1068.1 L 2010.31,1058.43 L 1999.29,1046.19 L 1991.06,1031.94 L 1985.97,1016.28 L 1984.25,999.912 L 1985.97,983.542 L 1991.06,967.886 L 1999.29,953.63 L 2010.31,941.398 L 2023.62,931.722 L 2038.66,925.026 L 2054.76,921.604 L 2071.22,921.604 L 2087.32,925.026 L 2102.36,931.722 L 2115.68,941.398 L 2126.69,953.63 L 2134.92,967.886 L 2140.01,983.542 L 2140.51,988.348 z " style="fill-opacity:1.000000;fill:rgb(175,226,240);stroke:rgb(0,0,0);stroke-width:2"/></g>
<g fill-rule="evenodd"><path d="M 3010.67,959.246 L 3013.95,962.888 L 3015.82,965.604 L 3020.54,974.292 L 3021.8,977.336 L 3024.61,986.816 L 3025.21,990.056 L 3025.98,999.912 L 3025.9,1003.21 L 3024.61,1013.01 L 3023.84,1016.21 L 3020.54,1025.53 L 3019.12,1028.51 L 3013.95,1036.94 L 3011.94,1039.55 L 3005.14,1046.72 L 3002.63,1048.86 L 2994.49,1054.46 L 2991.59,1056.04 L 2982.46,1059.82 L 2979.29,1060.76 L 2969.58,1062.56 L 2966.29,1062.82 L 2956.41,1062.56 L 2953.14,1062.13 L 2943.53,1059.82 L 2940.42,1058.72 L 2931.5,1054.46 L 2928.68,1052.74 L 2920.84,1046.72 L 2918.45,1044.45 L 2536.9,662.904 L 2385.05,662.904 L 2383.03,663.77 L 2369.76,666.496 L 2362.99,666.84 L 2349.52,665.468 L 2336.6,661.416 L 2324.76,654.844 L 2314.48,646.022 L 2306.19,635.314 L 2300.23,623.156 L 2296.84,610.046 L 2296.15,596.524 L 2298.2,583.138 L 2302.9,570.438 L 2310.07,558.946 L 2319.4,549.13 L 2330.51,541.394 L 2342.96,536.054 L 2356.22,533.328 L 2362.99,532.984 L 2376.46,534.356 L 2384.64,536.92 L 2562.99,536.92 L 2575.28,538.13 L 2587.1,541.714 L 2597.99,547.536 L 2607.53,555.368 L 3007.53,955.368 L 3010.67,959.246 z " style="fill-opacity:1.000000;fill:rgb(228,158,79);stroke:rgb(0,0,0);stroke-width:2"/></g>
<g fill-rule="evenodd"><path d="M 3225.98,999.912 L 3225.98,1299.91 L 3224.77,1312.2 L 3221.19,1324.02 L 3215.37,1334.91 L 3207.53,1344.45 L 3107.53,1444.45 L 3097.99,1452.29 L 3087.1,1458.11 L 3075.28,1461.69 L 3062.99,1462.9 L 2385.05,1462.9 L 2383.03,1463.77 L 2369.76,1466.5 L 2362.99,1466.84 L 2349.52,1465.47 L 2336.6,1461.42 L 2324.76,1454.84 L 2314.48,1446.02 L 2306.19,1435.31 L 2300.23,1423.16 L 2296.84,1410.05 L 2296.15,1396.52 L 2298.2,1383.14 L 2302.9,1370.44 L 2310.07,1358.95 L 2319.4,1349.13 L 2330.51,1341.39 L 2342.96,1336.05 L 2356.22,1333.33 L 2362.99,1332.98 L 2376.46,1334.36 L 2384.64,1336.92 L 3036.9,1336.92 L 3100,1273.82 L 3100,999.912 L 3101.38,986.814 L 3105.44,974.29 L 3112.03,962.886 L 3120.84,953.098 L 3131.5,945.358 L 3143.53,940.002 L 3156.41,937.264 L 3169.58,937.264 L 3182.46,940.002 L 3194.49,945.358 L 3205.14,953.098 L 3213.95,962.886 L 3220.54,974.29 L 3224.61,986.814 L 3225.98,999.912 z " style="fill-opacity:1.000000;fill:rgb(50,21,73);stroke:rgb(0,0,0);stroke-width:2"/></g>
<g fill-rule="evenodd"><path d="M 3186.44,0 L 3200.04,2.084 L 3212.94,6.862 L 3224.61,14.14 L 3234.59,23.62 L 3242.45,34.912 L 3247.87,47.556 L 3250.64,61.034 L 3250.99,91.912 L 3249.6,105.6 L 3245.48,118.728 L 3243.45,122.382 L 3225.86,403.84 L 3225.09,408.44 L 3223.67,416.826 L 3218.83,429.072 L 3212.8,438.468 L 3204.02,447.706 L 3202.14,449.262 L 3193.56,454.988 L 3191.02,456.322 L 3181.85,460.014 L 3178.68,460.918 L 3169.36,462.58 L 3162.99,462.904 L 3150.31,461.614 L 3138.15,457.798 L 3127.01,451.612 L 3118,444.002 L 3109.54,433.232 L 3103.96,421.892 L 3100.68,409.138 L 3100.12,395.982 L 3117.92,111.306 L 3115.34,98.79 L 3114.99,67.912 L 3116.38,54.224 L 3120.5,41.096 L 3127.18,29.066 L 3136.14,18.628 L 3147.02,10.206 L 3159.38,4.146 L 3172.7,0.698 L 3186.44,0 z " style="fill-opacity:1.000000;fill:rgb(253,130,78);stroke:rgb(0,0,0);stroke-width:2"/></g>
<g fill-rule="evenodd"><path d="M 2986.44,0 L 3000.04,2.084 L 3012.94,6.862 L 3024.61,14.14 L 3034.59,23.62 L 3042.45,34.912 L 3047.87,47.556 L 3050.64,61.034 L 3050.99,91.912 L 3049.6,105.6 L 3045.48,118.728 L 3043.45,122.382 L 3025.86,403.84 L 3025.09,408.44 L 3023.67,416.826 L 3018.83,429.072 L 3012.8,438.468 L 3004.02,447.706 L 3002.14,449.262 L 2993.56,454.988 L 2991.02,456.322 L 2981.85,460.014 L 2978.68,460.918 L 2969.36,462.58 L 2962.99,462.904 L 2950.31,461.614 L 2938.15,457.798 L 2927.01,451.612 L 2918,444.002 L 2909.54,433.232 L 2903.96,421.892 L 2900.68,409.138 L 2900.12,395.982 L 2917.92,111.306 L 2915.34,98.79 L 2914.99,67.912 L 2916.38,54.224 L 2920.5,41.096 L 2927.18,29.066 L 2936.14,18.628 L 2947.02,10.206 L 2959.38,4.146 L 2972.7,0.698 L 2986.44,0 z " style="fill-opacity:1.000000;fill:rgb(169,8,112);stroke:rgb(0,0,0);stroke-width:2"/></g>
<g fill-rule="evenodd"><path d="M 7570.9,3483.36 L 7568.82,3496.96 L 7564.04,3509.86 L 7556.76,3521.53 L 7547.28,3531.51 L 7535.99,3539.37 L 7523.35,3544.79 L 7509.87,3547.56 L 7502.99,3547.91 L 7489.3,3546.52 L 7477.78,3542.9 L 7327.77,3542.9 L 7324,3544.58 L 7310.1,3547.54 L 7295.89,3547.54 L 7281.98,3544.58 L 7278.21,3542.9 L 7142.99,3542.9 L 7130.7,3541.69 L 7118.89,3538.11 L 7107.99,3532.29 L 7098.45,3524.45 L 7018.45,3444.45 L 7010.62,3434.91 L 7004.79,3424.02 L 7001.21,3412.2 L 7000,3399.91 L 7000,2262.9 L 5325.98,2262.9 L 5325.98,3399.91 L 5325.9,3403.1 L 5324.77,3412.2 L 5323.97,3415.7 L 5321.19,3424.02 L 5319.55,3427.65 L 5315.37,3434.91 L 5312.8,3438.47 L 5307.53,3444.45 L 5104.02,3647.71 L 5097.3,3652.74 L 5093.56,3654.99 L 5085.57,3658.72 L 5081.85,3660.01 L 5072.85,3662.13 L 5062.99,3662.9 L 5059.69,3662.82 L 5050.31,3661.61 L 5046.69,3660.76 L 5038.15,3657.8 L 5034.39,3656.04 L 5027.01,3651.61 L 5023.35,3648.86 L 5017.34,3643.31 L 5014.04,3639.55 L 5009.54,3633.23 L 5006.86,3628.51 L 5003.92,3621.79 L 5002.15,3616.21 L 5000.73,3609.45 L 5000.09,3603.21 L 5000.08,3596.72 L 5000.77,3590.06 L 5002.01,3584.12 L 5004.18,3577.34 L 5006.44,3572.17 L 5010.16,3565.6 L 5013.18,3561.36 L 5018.45,3555.37 L 5200,3373.82 L 5200,2662.9 L 5062.99,2662.9 L 5050.31,2661.61 L 5038.15,2657.8 L 5027.01,2651.61 L 5017.34,2643.31 L 5009.54,2633.23 L 5008.44,2631.41 L 5003.92,2621.79 L 5003.08,2619.38 L 5000.73,2609.45 L 5000.34,2606.5 L 5000.08,2596.72 L 5000.34,2593.33 L 5002.01,2584.12 L 5003.08,2580.45 L 5006.44,2572.17 L 5008.44,2568.42 L 5013.18,2561.36 L 5016.18,2557.76 L 5021.96,2552.12 L 5025.97,2548.95 L 5032.42,2544.84 L 5037.37,2542.36 L 5044.14,2539.81 L 5049.89,2538.3 L 5056.62,2537.24 L 5062.99,2536.92 L 5200,2536.92 L 5200,2246.98 L 5199.29,2246.19 L 5191.06,2231.94 L 5185.97,2216.28 L 5184.25,2199.91 L 5185.97,2183.54 L 5191.06,2167.89 L 5199.29,2153.63 L 5210.31,2141.4 L 5223.62,2131.72 L 5238.66,2125.03 L 5254.76,2121.6 L 5271.22,2121.6 L 5287.32,2125.03 L 5302.36,2131.72 L 5309.51,2136.92 L 7062.99,2136.92 L 7075.28,2138.13 L 7087.1,2141.71 L 7097.99,2147.54 L 7107.53,2155.37 L 7115.37,2164.91 L 7121.19,2175.81 L 7124.77,2187.62 L 7125.98,2199.91 L 7125.98,3373.82 L 7169.08,3416.92 L 7278.21,3416.92 L 7281.98,3415.24 L 7295.89,3412.29 L 7310.1,3412.29 L 7324,3415.24 L 7327.77,3416.92 L 7478.24,3416.92 L 7482.64,3415.03 L 7496.11,3412.26 L 7502.99,3411.91 L 7516.68,3413.3 L 7529.81,3417.42 L 7541.84,3424.1 L 7552.28,3433.06 L 7560.7,3443.94 L 7566.76,3456.3 L 7570.21,3469.62 L 7570.9,3483.36 z " style="fill-opacity:1.000000;fill:rgb(212,178,138);stroke:rgb(0,0,0);stroke-width:2"/></g>
<g fill-rule="evenodd"><path d="M 4699.55,3959.82 L 4685.95,3957.74 L 4673.05,3952.96 L 4661.37,3945.68 L 4651.4,3936.2 L 4643.54,3924.91 L 4638.11,3912.27 L 4635.34,3898.79 L 4634.99,3867.91 L 4635.24,3865.43 L 4601.5,3713.58 L 4600.38,3706.78 L 4600,3699.91 L 4600,2922.26 L 4596.84,2910.05 L 4596.15,2896.52 L 4598.2,2883.14 L 4602.9,2870.44 L 4610.07,2858.95 L 4619.4,2849.13 L 4630.51,2841.39 L 4642.96,2836.05 L 4656.22,2833.33 L 4662.99,2832.98 L 4676.46,2834.36 L 4689.38,2838.41 L 4701.22,2844.98 L 4711.5,2853.8 L 4719.79,2864.51 L 4725.75,2876.67 L 4729.15,2889.78 L 4729.83,2903.3 L 4727.78,2916.69 L 4725.98,2921.54 L 4725.98,3399.91 L 4725.98,3693 L 4755.21,3824.51 L 4762.45,3834.91 L 4767.87,3847.56 L 4770.64,3861.03 L 4770.99,3891.91 L 4769.6,3905.6 L 4765.48,3918.73 L 4758.8,3930.76 L 4749.84,3941.2 L 4738.96,3949.62 L 4726.61,3955.68 L 4713.29,3959.13 L 4699.55,3959.82 z " style="fill-opacity:1.000000;fill:rgb(41,84,72);stroke:rgb(0,0,0);stroke-width:2"/></g>
<g fill-rule="evenodd"><path d="M 4499.55,3959.82 L 4485.95,3957.74 L 4473.05,3952.96 L 4461.37,3945.68 L 4451.4,3936.2 L 4443.54,3924.91 L 4438.11,3912.27 L 4435.34,3898.79 L 4434.99,3867.91 L 4435.24,3865.43 L 4401.5,3713.58 L 4400.38,3706.78 L 4400,3699.91 L 4400,3599.91 L 4400,2922.26 L 4396.84,2910.05 L 4396.15,2896.52 L 4398.2,2883.14 L 4402.9,2870.44 L 4410.07,2858.95 L 4419.4,2849.13 L 4430.51,2841.39 L 4442.96,2836.05 L 4456.22,2833.33 L 4462.99,2832.98 L 4476.46,2834.36 L 4489.38,2838.41 L 4501.22,2844.98 L 4511.5,2853.8 L 4519.79,2864.51 L 4525.75,2876.67 L 4529.15,2889.78 L 4529.83,2903.3 L 4527.78,2916.69 L 4525.98,2921.54 L 4525.98,3693 L 4555.21,3824.51 L 4562.45,3834.91 L 4567.87,3847.56 L 4570.64,3861.03 L 4570.99,3891.91 L 4569.6,3905.6 L 4565.48,3918.73 L 4558.8,3930.76 L 4549.84,3941.2 L 4538.96,3949.62 L 4526.61,3955.68 L 4513.29,3959.13 L 4499.55,3959.82 z " style="fill-opacity:1.000000;fill:rgb(154,10,188);stroke:rgb(0,0,0);stroke-width:2"/></g>
<g fill-rule="evenodd"><path d="M 4299.55,3959.82 L 4285.95,3957.74 L 4273.05,3952.96 L 4261.37,3945.68 L 4251.4,3936.2 L 4243.54,3924.91 L 4238.11,3912.27 L 4235.34,3898.79 L 4234.99,3867.91 L 4235.24,3865.43 L 4201.5,3713.58 L 4200.38,3706.78 L 4200,3699.91 L 4200,3199.91 L 4200,2922.26 L 4196.84,2910.05 L 4196.15,2896.52 L 4198.2,2883.14 L 4202.9,2870.44 L 4210.07,2858.95 L 4219.4,2849.13 L 4230.51,2841.39 L 4242.96,2836.05 L 4256.22,2833.33 L 4262.99,2832.98 L 4276.46,2834.36 L 4289.38,2838.41 L 4301.22,2844.98 L 4311.5,2853.8 L 4319.79,2864.51 L 4325.75,2876.67 L 4329.15,2889.78 L 4329.83,2903.3 L 4327.78,2916.69 L 4325.98,2921.54 L 4325.98,3693 L 4355.21,3824.51 L 4362.45,3834.91 L 4367.87,3847.56 L 4370.64,3861.03 L 4370.99,3891.91 L 4369.6,3905.6 L 4365.48,3918.73 L 4358.8,3930.76 L 4349.84,3941.2 L 4338.96,3949.62 L 4326.61,3955.68 L 4313.29,3959.13 L 4299.55,3959.82 z " style="fill-opacity:1.000000;fill:rgb(213,14,24);stroke:rgb(0,0,0);stroke-width:2"/></g>
<g fill-rule="evenodd"><path d="M 4099.55,3959.82 L 4085.95,3957.74 L 4073.05,3952.96 L 4061.37,3945.68 L 4051.4,3936.2 L 4043.54,3924.91 L 4038.11,3912.27 L 4035.34,3898.79 L 4034.99,3867.91 L 4035.24,3865.43 L 4001.5,3713.58 L 4000.38,3706.78 L 4000,3699.91 L 4000,3399.91 L 4000,2922.26 L 3996.84,2910.05 L 3996.15,2896.52 L 3998.2,2883.14 L 4002.9,2870.44 L 4010.07,2858.95 L 4019.4,2849.13 L 4030.51,2841.39 L 4042.96,2836.05 L 4056.22,2833.33 L 4062.99,2832.98 L 4076.46,2834.36 L 4089.38,2838.41 L 4101.22,2844.98 L 4111.5,2853.8 L 4119.79,2864.51 L 4125.75,2876.67 L 4129.15,2889.78 L 4129.83,2903.3 L 4127.78,2916.69 L 4125.98,2921.54 L 4125.98,3693 L 4155.21,3824.51 L 4162.45,3834.91 L 4167.87,3847.56 L 4170.64,3861.03 L 4170.99,3891.91 L 4169.6,3905.6 L 4165.48,3918.73 L 4158.8,3930.76 L 4149.84,3941.2 L 4138.96,3949.62 L 4126.61,3955.68 L 4113.29,3959.13 L 4099.55,3959.82 z " style="fill-opacity:1.000000;fill:rgb(168,68,172);stroke:rgb(0,0,0);stroke-width:2"/></g>
<g fill-rule="evenodd"><path d="M 3899.55,3959.82 L 3885.95,3957.74 L 3873.05,3952.96 L 3861.37,3945.68 L 3851.4,3936.2 L 3843.54,3924.91 L 3838.11,3912.27 L 3835.34,3898.79 L 3834.99,3867.91 L 3835.24,3865.43 L 3801.5,3713.58 L 3800.38,3706.78 L 3800,3699.91 L 3800,3599.91 L 3800,2966.84 L 3796.06,2966.84 L 3796.06,2832.98 L 3929.92,2832.98 L 3929.92,2966.84 L 3925.98,2966.84 L 3925.98,3693 L 3955.21,3824.51 L 3962.45,3834.91 L 3967.87,3847.56 L 3970.64,3861.03 L 3970.99,3891.91 L 3969.6,3905.6 L 3965.48,3918.73 L 3958.8,3930.76 L 3949.84,3941.2 L 3938.96,3949.62 L 3926.61,3955.68 L 3913.29,3959.13 L 3899.55,3959.82 z " style="fill-opacity:1.000000;fill:rgb(91,243,142);stroke:rgb(0,0,0);stroke-width:2"/></g>
<g fill-rule="evenodd"><path d="M 5500,3066.84 L 5496.06,3066.84 L 5496.06,2932.98 L 5629.92,2932.98 L 5629.92,3066.84 L 5625.98,3066.84 L 5625.98,3432.98 L 5629.92,3432.98 L 5629.92,3566.84 L 5496.06,3566.84 L 5496.06,3432.98 L 5500,3432.98 L 5500,3066.84 z " style="fill-opacity:1.000000;fill:rgb(76,215,45);stroke:rgb(0,0,0);stroke-width:2"/></g>
<g fill-rule="evenodd"><path d="M 4899.55,3959.82 L 4885.95,3957.74 L 4873.05,3952.96 L 4861.37,3945.68 L 4851.4,3936.2 L 4843.54,3924.91 L 4838.11,3912.27 L 4835.34,3898.79 L 4834.99,3867.91 L 4835.24,3865.43 L 4801.5,3713.58 L 4800.38,3706.78 L 4800,3699.91 L 4800,2262.9 L 3925.98,2262.9 L 3925.98,2677.56 L 3929.15,2689.78 L 3929.83,2703.3 L 3927.78,2716.68 L 3923.08,2729.38 L 3915.92,2740.88 L 3906.59,2750.69 L 3895.47,2758.43 L 3883.03,2763.77 L 3869.76,2766.49 L 3862.99,2766.84 L 3849.52,2765.47 L 3836.6,2761.41 L 3824.76,2754.84 L 3814.48,2746.02 L 3806.19,2735.31 L 3800.23,2723.15 L 3796.84,2710.04 L 3796.15,2696.52 L 3798.2,2683.14 L 3800,2678.28 L 3800,2199.91 L 3801.21,2187.62 L 3804.79,2175.81 L 3810.62,2164.91 L 3818.45,2155.37 L 3827.99,2147.54 L 3838.89,2141.71 L 3850.7,2138.13 L 3862.99,2136.92 L 4862.99,2136.92 L 4875.28,2138.13 L 4887.1,2141.71 L 4897.99,2147.54 L 4907.53,2155.37 L 4915.37,2164.91 L 4921.19,2175.81 L 4924.77,2187.62 L 4925.98,2199.91 L 4925.98,3136.92 L 5062.99,3136.92 L 5069.58,3137.27 L 5076.09,3138.3 L 5082.46,3140 L 5088.61,3142.36 L 5094.49,3145.36 L 5100.02,3148.95 L 5105.14,3153.1 L 5109.8,3157.76 L 5113.95,3162.89 L 5117.54,3168.42 L 5120.54,3174.29 L 5122.9,3180.45 L 5124.61,3186.82 L 5125.64,3193.33 L 5125.98,3199.91 L 5125.64,3206.5 L 5124.61,3213.01 L 5122.9,3219.38 L 5120.54,3225.53 L 5117.54,3231.41 L 5113.95,3236.94 L 5109.8,3242.06 L 5105.14,3246.72 L 5100.02,3250.87 L 5094.49,3254.46 L 5088.61,3257.46 L 5082.46,3259.82 L 5076.09,3261.53 L 5069.58,3262.56 L 5062.99,3262.9 L 4925.98,3262.9 L 4925.98,3693 L 4955.21,3824.51 L 4962.45,3834.91 L 4967.87,3847.56 L 4970.64,3861.03 L 4970.99,3891.91 L 4969.6,3905.6 L 4965.48,3918.73 L 4958.8,3930.76 L 4949.84,3941.2 L 4938.96,3949.62 L 4926.61,3955.68 L 4913.29,3959.13 L 4899.55,3959.82 z " style="fill-opacity:1.000000;fill:rgb(155,9,66);stroke:rgb(0,0,0);stroke-width:2"/></g>
<g fill-rule="evenodd"><path d="M 4000,2446.98 L 3999.29,2446.19 L 3991.06,2431.94 L 3985.97,2416.28 L 3984.25,2399.91 L 3985.97,2383.54 L 3991.06,2367.89 L 3999.29,2353.63 L 4010.31,2341.4 L 4023.62,2331.72 L 4038.66,2325.03 L 4054.76,2321.6 L 4071.22,2321.6 L 4087.32,2325.03 L 4102.36,2331.72 L 4115.68,2341.4 L 4126.69,2353.63 L 4134.92,2367.89 L 4140.01,2383.54 L 4141.73,2399.91 L 4140.01,2416.28 L 4134.92,2431.94 L 4126.69,2446.19 L 4125.98,2446.98 L 4125.98,2636.92 L 4240.94,2636.92 L 4242.96,2636.05 L 4256.22,2633.33 L 4262.99,2632.98 L 4276.46,2634.35 L 4284.64,2636.92 L 4440.94,2636.92 L 4442.96,2636.05 L 4456.22,2633.33 L 4462.99,2632.98 L 4476.46,2634.35 L 4484.64,2636.92 L 4640.94,2636.92 L 4642.96,2636.05 L 4656.22,2633.33 L 4662.99,2632.98 L 4676.46,2634.35 L 4689.38,2638.41 L 4701.22,2644.98 L 4711.5,2653.8 L 4719.79,2664.51 L 4725.75,2676.67 L 4729.15,2689.78 L 4729.83,2703.3 L 4727.78,2716.68 L 4723.08,2729.38 L 4715.92,2740.88 L 4706.59,2750.69 L 4695.47,2758.43 L 4683.03,2763.77 L 4669.76,2766.49 L 4662.99,2766.84 L 4649.52,2765.47 L 4641.35,2762.9 L 4485.05,2762.9 L 4483.03,2763.77 L 4469.76,2766.49 L 4462.99,2766.84 L 4449.52,2765.47 L 4441.35,2762.9 L 4285.05,2762.9 L 4283.03,2763.77 L 4269.76,2766.49 L 4262.99,2766.84 L 4249.52,2765.47 L 4241.35,2762.9 L 4085.05,2762.9 L 4083.03,2763.77 L 4069.76,2766.49 L 4062.99,2766.84 L 4049.52,2765.47 L 4036.6,2761.41 L 4024.76,2754.84 L 4014.48,2746.02 L 4006.19,2735.31 L 4000.23,2723.15 L 3996.84,2710.04 L 3996.15,2696.52 L 3998.2,2683.14 L 4000,2678.28 L 4000,2446.98 z " style="fill-opacity:1.000000;fill:rgb(229,6,196);stroke:rgb(0,0,0);stroke-width:2"/></g>
<g fill-rule="evenodd"><path d="M 6625.98,3021.54 L 6625.98,3477.56 L 6629.15,3489.78 L 6629.83,3503.3 L 6627.78,3516.69 L 6623.08,3529.39 L 6615.92,3540.88 L 6606.59,3550.69 L 6595.47,3558.43 L 6583.03,3563.77 L 6569.76,3566.5 L 6562.99,3566.84 L 6549.52,3565.47 L 6536.6,3561.42 L 6524.76,3554.84 L 6514.48,3546.02 L 6506.19,3535.31 L 6500.23,3523.16 L 6496.84,3510.05 L 6496.15,3496.52 L 6498.2,3483.14 L 6500,3478.28 L 6500,3022.26 L 6496.84,3010.05 L 6496.15,2996.52 L 6498.2,2983.14 L 6502.9,2970.44 L 6510.07,2958.95 L 6519.4,2949.13 L 6530.51,2941.39 L 6542.96,2936.05 L 6556.22,2933.33 L 6562.99,2932.98 L 6576.46,2934.36 L 6589.38,2938.41 L 6601.22,2944.98 L 6611.5,2953.8 L 6619.79,2964.51 L 6625.75,2976.67 L 6629.15,2989.78 L 6629.83,3003.3 L 6627.78,3016.69 L 6625.98,3021.54 z " style="fill-opacity:1.000000;fill:rgb(51,175,205);stroke:rgb(0,0,0);stroke-width:2"/></g>
<g fill-rule="evenodd"><path d="M 5700,3478.28 L 5700,3022.26 L 5696.84,3010.05 L 5696.15,2996.52 L 5698.2,2983.14 L 5702.9,2970.44 L 5710.07,2958.95 L 5719.4,2949.13 L 5730.51,2941.39 L 5742.96,2936.05 L 5756.22,2933.33 L 5762.99,2932.98 L 5776.46,2934.36 L 5789.38,2938.41 L 5801.22,2944.98 L 5811.5,2953.8 L 5819.79,2964.51 L 5825.75,2976.67 L 5829.15,2989.78 L 5829.83,3003.3 L 5827.78,3016.69 L 5825.98,3021.54 L 5825.98,3477.56 L 5829.15,3489.78 L 5829.83,3503.3 L 5827.78,3516.69 L 5823.08,3529.39 L 5815.92,3540.88 L 5806.59,3550.69 L 5795.47,3558.43 L 5783.03,3563.77 L 5769.76,3566.5 L 5762.99,3566.84 L 5749.52,3565.47 L 5736.6,3561.42 L 5724.76,3554.84 L 5714.48,3546.02 L 5706.19,3535.31 L 5700.23,3523.16 L 5696.84,3510.05 L 5696.15,3496.52 L 5698.2,3483.14 L 5700,3478.28 z " style="fill-opacity:1.000000;fill:rgb(163,132,127);stroke:rgb(0,0,0);stroke-width:2"/></g>
<g fill-rule="evenodd"><path d="M 5900,3478.28 L 5900,3022.26 L 5896.84,3010.05 L 5896.15,2996.52 L 5898.2,2983.14 L 5902.9,2970.44 L 5910.07,2958.95 L 5919.4,2949.13 L 5930.51,2941.39 L 5942.96,2936.05 L 5956.22,2933.33 L 5962.99,2932.98 L 5976.46,2934.36 L 5989.38,2938.41 L 6001.22,2944.98 L 6011.5,2953.8 L 6019.79,2964.51 L 6025.75,2976.67 L 6029.15,2989.78 L 6029.83,3003.3 L 6027.78,3016.69 L 6025.98,3021.54 L 6025.98,3477.56 L 6029.15,3489.78 L 6029.83,3503.3 L 6027.78,3516.69 L 6023.08,3529.39 L 6015.92,3540.88 L 6006.59,3550.69 L 5995.47,3558.43 L 5983.03,3563.77 L 5969.76,3566.5 L 5962.99,3566.84 L 5949.52,3565.47 L 5936.6,3561.42 L 5924.76,3554.84 L 5914.48,3546.02 L 5906.19,3535.31 L 5900.23,3523.16 L 5896.84,3510.05 L 5896.15,3496.52 L 5898.2,3483.14 L 5900,3478.28 z " style="fill-opacity:1.000000;fill:rgb(45,173,212);stroke:rgb(0,0,0);stroke-width:2"/></g>
<g fill-rule="evenodd"><path d="M 6100,3478.28 L 6100,3022.26 L 6096.84,3010.05 L 6096.15,2996.52 L 6098.2,2983.14 L 6102.9,2970.44 L 6110.07,2958.95 L 6119.4,2949.13 L 6130.51,2941.39 L 6142.96,2936.05 L 6156.22,2933.33 L 6162.99,2932.98 L 6176.46,2934.36 L 6189.38,2938.41 L 6201.22,2944.98 L 6211.5,2953.8 L 6219.79,2964.51 L 6225.75,2976.67 L 6229.15,2989.78 L 6229.83,3003.3 L 6227.78,3016.69 L 6225.98,3021.54 L 6225.98,3477.56 L 6229.15,3489.78 L 6229.83,3503.3 L 6227.78,3516.69 L 6223.08,3529.39 L 6215.92,3540.88 L 6206.59,3550.69 L 6195.47,3558.43 L 6183.03,3563.77 L 6169.76,3566.5 L 6162.99,3566.84 L 6149.52,3565.47 L 6136.6,3561.42 L 6124.76,3554.84 L 6114.48,3546.02 L 6106.19,3535.31 L 6100.23,3523.16 L 6096.84,3510.05 L 6096.15,3496.52 L 6098.2,3483.14 L 6100,3478.28 z " style="fill-opacity:1.000000;fill:rgb(118,71,222);stroke:rgb(0,0,0);stroke-width:2"/></g>
<g fill-rule="evenodd"><path d="M 6300,3478.28 L 6300,3022.26 L 6296.84,3010.05 L 6296.15,2996.52 L 6298.2,2983.14 L 6302.9,2970.44 L 6310.07,2958.95 L 6319.4,2949.13 L 6330.51,2941.39 L 6342.96,2936.05 L 6356.22,2933.33 L 6362.99,2932.98 L 6376.46,2934.36 L 6389.38,2938.41 L 6401.22,2944.98 L 6411.5,2953.8 L 6419.79,2964.51 L 6425.75,2976.67 L 6429.15,2989.78 L 6429.83,3003.3 L 6427.78,3016.69 L 6425.98,3021.54 L 6425.98,3477.56 L 6429.15,3489.78 L 6429.83,3503.3 L 6427.78,3516.69 L 6423.08,3529.39 L 6415.92,3540.88 L 6406.59,3550.69 L 6395.47,3558.43 L 6383.03,3563.77 L 6369.76,3566.5 L 6362.99,3566.84 L 6349.52,3565.47 L 6336.6,3561.42 L 6324.76,3554.84 L 6314.48,3546.02 L 6306.19,3535.31 L 6300.23,3523.16 L 6296.84,3510.05 L 6296.15,3496.52 L 6298.2,3483.14 L 6300,3478.28 z " style="fill-opacity:1.000000;fill:rgb(50,28,236);stroke:rgb(0,0,0);stroke-width:2"/></g>
<g fill-rule="evenodd"><path d="M 5509.51,336.92 L 5940.94,336.92 L 5942.96,336.054 L 5956.22,333.328 L 5962.99,332.984 L 5976.46,334.356 L 5989.38,338.408 L 6001.22,344.98 L 6011.5,353.802 L 6019.79,364.51 L 6025.75,376.668 L 6029.15,389.778 L 6029.83,403.3 L 6027.78,416.686 L 6023.08,429.386 L 6015.92,440.878 L 6006.59,450.694 L 5995.47,458.43 L 5983.03,463.77 L 5969.76,466.496 L 5962.99,466.84 L 5949.52,465.468 L 5941.35,462.904 L 5509.52,462.904 L 5502.36,468.102 L 5487.32,474.798 L 5471.22,478.22 L 5454.76,478.22 L 5438.66,474.798 L 5423.62,468.102 L 5410.31,458.426 L 5399.29,446.194 L 5391.06,431.938 L 5385.97,416.282 L 5384.25,399.912 L 5385.97,383.542 L 5391.06,367.886 L 5399.29,353.63 L 5410.31,341.398 L 5423.62,331.722 L 5438.66,325.026 L 5454.76,321.604 L 5471.22,321.604 L 5487.32,325.026 L 5502.36,331.722 L 5509.51,336.92 z " style="fill-opacity:1.000000;fill:rgb(74,196,48);stroke:rgb(0,0,0);stroke-width:2"/></g>
<g fill-rule="evenodd"><path d="M 4506.44,0 L 4520.04,2.084 L 4532.94,6.862 L 4544.61,14.14 L 4554.59,23.62 L 4562.45,34.912 L 4567.87,47.556 L 4570.64,61.034 L 4570.99,91.912 L 4569.6,105.6 L 4565.98,117.122 L 4565.98,413.818 L 4689.08,536.918 L 5962.99,536.92 L 5975.28,538.13 L 5987.1,541.714 L 5997.99,547.536 L 6007.53,555.368 L 6207.53,755.368 L 6215.37,764.914 L 6221.19,775.806 L 6224.77,787.622 L 6225.98,799.912 L 6225.98,977.562 L 6229.15,989.778 L 6229.83,1003.3 L 6227.78,1016.69 L 6223.08,1029.39 L 6215.92,1040.88 L 6206.59,1050.69 L 6195.47,1058.43 L 6183.03,1063.77 L 6169.76,1066.5 L 6162.99,1066.84 L 6149.52,1065.47 L 6136.6,1061.42 L 6124.76,1054.84 L 6114.48,1046.02 L 6106.19,1035.31 L 6100.23,1023.16 L 6096.84,1010.05 L 6096.15,996.524 L 6098.2,983.138 L 6100,978.282 L 6100,826.004 L 5936.9,662.904 L 4662.99,662.904 L 4650.7,661.692 L 4638.89,658.108 L 4627.99,652.286 L 4618.45,644.454 L 4458.45,484.454 L 4450.62,474.908 L 4444.79,464.016 L 4441.21,452.2 L 4440,439.912 L 4440,116.668 L 4438.11,112.268 L 4435.34,98.79 L 4434.99,67.912 L 4436.38,54.224 L 4440.5,41.096 L 4447.18,29.066 L 4456.14,18.628 L 4467.02,10.206 L 4479.38,4.146 L 4492.7,0.698 L 4506.44,0 z " style="fill-opacity:1.000000;fill:rgb(246,32,35);stroke:rgb(0,0,0);stroke-width:2"/></g>
<g fill-rule="evenodd"><path d="M 4306.44,0 L 4320.04,2.084 L 4332.94,6.862 L 4344.61,14.14 L 4354.59,23.62 L 4362.45,34.912 L 4367.87,47.556 L 4370.64,61.034 L 4370.99,91.912 L 4369.6,105.6 L 4365.98,117.122 L 4365.98,713.818 L 4389.08,736.918 L 5862.99,736.92 L 5875.28,738.13 L 5887.1,741.714 L 5897.99,747.536 L 5907.53,755.368 L 6007.53,855.368 L 6015.37,864.914 L 6021.19,875.806 L 6024.77,887.622 L 6025.98,899.912 L 6025.98,977.562 L 6029.15,989.778 L 6029.83,1003.3 L 6027.78,1016.69 L 6023.08,1029.39 L 6015.92,1040.88 L 6006.59,1050.69 L 5995.47,1058.43 L 5983.03,1063.77 L 5969.76,1066.5 L 5962.99,1066.84 L 5949.52,1065.47 L 5936.6,1061.42 L 5924.76,1054.84 L 5914.48,1046.02 L 5906.19,1035.31 L 5900.23,1023.16 L 5896.84,1010.05 L 5896.15,996.524 L 5898.2,983.138 L 5900,978.282 L 5900,926.004 L 5836.9,862.904 L 4362.99,862.904 L 4350.7,861.692 L 4338.89,858.108 L 4327.99,852.286 L 4318.45,844.454 L 4258.45,784.454 L 4250.62,774.908 L 4244.79,764.016 L 4241.21,752.2 L 4240,739.912 L 4240,116.668 L 4238.11,112.268 L 4235.34,98.79 L 4234.99,67.912 L 4236.38,54.224 L 4240.5,41.096 L 4247.18,29.066 L 4256.14,18.628 L 4267.02,10.206 L 4279.38,4.146 L 4292.7,0.698 L 4306.44,0 z " style="fill-opacity:1.000000;fill:rgb(133,108,251);stroke:rgb(0,0,0);stroke-width:2"/></g>
<g fill-rule="evenodd"><path d="M 6106.44,0 L 6120.04,2.084 L 6132.94,6.862 L 6144.61,14.14 L 6154.59,23.62 L 6162.45,34.912 L 6167.87,47.556 L 6170.64,61.034 L 6170.99,91.912 L 6170.41,97.654 L 6220.85,366.664 L 6225.75,376.668 L 6229.15,389.778 L 6229.83,403.3 L 6227.78,416.686 L 6223.08,429.386 L 6215.92,440.878 L 6206.59,450.694 L 6195.47,458.43 L 6183.03,463.77 L 6169.76,466.496 L 6162.99,466.84 L 6149.52,465.468 L 6136.6,461.416 L 6124.76,454.844 L 6114.48,446.022 L 6106.19,435.314 L 6100.23,423.156 L 6096.84,410.046 L 6096.15,396.524 L 6097.1,390.316 L 6048.74,132.384 L 6043.54,124.912 L 6038.11,112.268 L 6035.34,98.79 L 6034.99,67.912 L 6036.38,54.224 L 6040.5,41.096 L 6047.18,29.066 L 6056.14,18.628 L 6067.02,10.206 L 6079.38,4.146 L 6092.7,0.698 L 6106.44,0 z " style="fill-opacity:1.000000;fill:rgb(178,7,4);stroke:rgb(0,0,0);stroke-width:2"/></g>
<g fill-rule="evenodd"><path d="M 6306.44,0 L 6320.04,2.084 L 6332.94,6.862 L 6344.61,14.14 L 6354.59,23.62 L 6362.45,34.912 L 6367.87,47.556 L 6370.64,61.034 L 6370.99,91.912 L 6370.41,97.654 L 6420.85,366.664 L 6425.75,376.668 L 6429.15,389.778 L 6429.83,403.3 L 6427.78,416.686 L 6423.08,429.386 L 6415.92,440.878 L 6406.59,450.694 L 6395.47,458.43 L 6383.03,463.77 L 6369.76,466.496 L 6362.99,466.84 L 6349.52,465.468 L 6336.6,461.416 L 6324.76,454.844 L 6314.48,446.022 L 6306.19,435.314 L 6300.23,423.156 L 6296.84,410.046 L 6296.15,396.524 L 6297.1,390.316 L 6248.74,132.388 L 6243.54,124.912 L 6238.11,112.268 L 6235.34,98.79 L 6234.99,67.912 L 6236.38,54.224 L 6240.5,41.096 L 6247.18,29.066 L 6256.14,18.628 L 6267.02,10.206 L 6279.38,4.146 L 6292.7,0.698 L 6306.44,0 z " style="fill-opacity:1.000000;fill:rgb(244,236,11);stroke:rgb(0,0,0);stroke-width:2"/></g>
</svg>
