<?xml version="1.0" standalone="no"?>
<!DOCTYPE svg PUBLIC "-//W3C//DTD SVG 1.1//EN"
"http://www.w3.org/Graphics/SVG/1.1/DTD/svg11.dtd">
<svg width="8078.74" height="4278.74" viewBox="0 0 8078.74 4278.74" version="1.1"
xmlns="http://www.w3.org/2000/svg"
xmlns:xlink="http://www.w3.org/1999/xlink">
<g fill-rule="evenodd"><path d="M 9.09495e-13,4278.74 L 9.09495e-13,0 L 8078.74,0 L 8078.74,4278.74 L 9.09495e-13,4278.74 z " style="fill-opacity:0.300000;fill:rgb(103,198,105);"/></g>
<g fill-rule="evenodd"><path d="M 7878.74,1023.06 L 8067.21,1211.53 L 8072.11,1217.5 L 8075.74,1224.3 L 8077.98,1231.69 L 8078.74,1239.37 L 8078.74,3939.37 L 8077.98,3947.05 L 8075.74,3954.44 L 8072.11,3961.24 L 8067.21,3967.21 L 7878.74,4155.68 L 7878.74,4239.37 L 7877.98,4247.05 L 7875.74,4254.44 L 7872.11,4261.24 L 7867.21,4267.21 L 7861.24,4272.11 L 7854.44,4275.74 L 7847.05,4277.98 L 7839.37,4278.74 L 39.3701,4278.74 L 31.6894,4277.98 L 24.3038,4275.74 L 17.4973,4272.11 L 11.5313,4267.21 L 6.63512,4261.24 L 2.99694,4254.44 L 0.756562,4247.05 L 7.87402e-05,4239.37 L 7.87402e-05,39.3701 L 0.756562,31.6894 L 2.99694,24.3038 L 6.63512,17.4973 L 11.5313,11.5313 L 17.4973,6.63512 L 24.3038,2.99694 L 31.6894,0.756562 L 39.3701,7.87402e-05 L 7639.37,7.87402e-05 L 7647.05,0.756562 L 7654.44,2.99694 L 7661.24,6.63512 L 7667.21,11.5313 L 7867.21,211.531 L 7872.11,217.497 L 7875.74,224.304 L 7877.98,231.689 L 7878.74,239.37 L 7878.74,1023.06 z " style="fill-opacity:0.600000;fill:rgb(103,198,105);stroke:rgb(0,0,0);stroke-width:2"/></g>
<g fill-rule="evenodd"><path d="M 39.3701,4239.37 L 39.3701,39.3701 L 7639.37,39.3701 L 7839.37,239.37 L 7839.37,1039.37 L 8039.37,1239.37 L 8039.37,3939.37 L 7839.37,4139.37 L 7839.37,4239.37 L 39.3701,4239.37 z " style="fill-opacity:1.000000;fill:rgb(103,198,105);stroke:rgb(0,0,0);stroke-width:2"/></g>
</svg>
